{"glyphs":{"0":{"ha":817,"x_min":68,"x_max":781,"o":"m 532 1042 q 723 950 665 1042 q 781 696 781 858 q 769 543 781 624 q 734 384 758 463 q 673 235 710 306 q 585 110 636 164 q 467 24 533 56 q 318 -8 400 -8 q 193 19 242 -8 q 117 95 144 47 q 78 208 89 143 q 68 346 68 272 q 101 617 68 490 q 195 838 135 743 q 341 987 256 932 q 532 1042 426 1042 m 235 306 q 240 231 235 268 q 260 163 246 193 q 300 115 275 133 q 364 96 325 96 q 476 156 425 96 q 565 311 528 215 q 622 528 601 407 q 643 772 643 649 q 639 851 643 814 q 624 915 635 888 q 591 957 613 942 q 536 972 569 972 q 420 915 475 972 q 324 763 365 857 q 259 549 283 668 q 235 306 235 429 z "},"1":{"ha":429,"x_min":76,"x_max":447,"o":"m 226 0 l 76 0 l 257 858 l 103 858 l 122 931 q 181 934 149 931 q 254 949 214 938 q 342 982 294 961 q 447 1039 390 1003 l 226 0 z "},"2":{"ha":724,"x_min":3,"x_max":660,"o":"m 171 133 q 297 121 231 133 q 432 108 363 108 q 497 114 469 108 q 547 131 525 119 q 586 161 568 143 q 624 204 604 179 q 625 172 625 186 q 625 143 625 158 q 619 74 625 103 q 594 24 613 44 q 542 -6 575 4 q 454 -15 508 -15 q 362 -8 401 -15 q 285 10 322 0 q 207 27 247 19 q 115 35 167 35 q 88 30 103 35 q 59 19 74 25 q 30 6 44 13 q 6 -4 15 0 q 3 19 3 7 q 3 42 3 31 q 40 179 3 115 q 132 304 76 243 q 252 425 188 365 q 372 547 317 485 q 465 678 428 610 q 501 825 501 746 q 465 938 501 904 q 376 972 428 972 q 333 965 356 972 q 293 942 311 957 q 263 905 275 928 q 251 851 251 882 q 254 825 251 839 q 263 798 257 811 q 279 774 269 785 q 304 758 289 763 q 222 711 265 711 q 156 740 186 711 q 126 831 126 769 q 140 906 126 868 q 186 973 154 943 q 269 1022 218 1003 q 396 1040 321 1040 q 517 1024 467 1040 q 599 979 568 1008 q 645 908 631 950 q 660 817 660 867 q 624 663 660 732 q 535 536 589 594 q 415 427 481 478 q 290 328 350 376 q 184 231 231 281 q 121 128 138 182 q 171 133 142 133 z "},"3":{"ha":743,"x_min":8,"x_max":692,"o":"m 257 357 q 196 342 219 354 q 158 310 172 329 q 140 267 144 290 q 135 221 135 243 q 148 153 135 179 q 181 113 161 128 q 224 94 200 99 q 272 89 249 89 q 375 113 332 89 q 447 173 418 136 q 489 255 475 210 q 503 344 503 300 q 490 427 503 388 q 449 499 476 467 q 378 553 421 532 q 276 581 336 575 q 398 626 346 597 q 485 691 450 656 q 538 766 521 726 q 556 842 556 806 q 523 933 556 896 q 429 971 490 971 q 323 935 360 971 q 286 856 286 900 q 299 805 286 831 q 340 758 313 779 q 292 726 317 736 q 247 715 268 715 q 187 744 211 715 q 163 826 163 774 q 187 919 163 879 q 251 987 211 960 q 342 1027 292 1014 q 444 1040 392 1040 q 536 1028 492 1040 q 615 990 581 1015 q 671 927 650 965 q 692 838 692 889 q 641 690 692 760 q 501 579 590 619 q 635 472 594 539 q 676 329 676 404 q 647 208 676 268 q 565 99 617 147 q 441 22 513 51 q 286 -8 369 -8 q 208 -1 256 -8 q 117 30 161 6 q 40 101 72 54 q 8 226 8 147 q 51 369 8 315 q 164 424 93 424 q 191 422 176 424 q 219 412 206 419 q 242 391 232 404 q 257 357 253 378 z "},"4":{"ha":671,"x_min":13,"x_max":657,"o":"m 657 1042 l 538 485 l 654 485 l 633 403 l 521 403 l 435 0 l 285 0 l 371 403 l 13 403 q 68 519 31 460 q 142 644 106 579 q 206 777 178 708 q 233 922 233 846 q 228 979 233 943 q 217 1039 222 1015 q 265 1031 242 1039 q 305 1007 288 1024 q 333 962 322 990 q 343 892 343 933 q 318 776 343 829 q 259 675 293 724 q 188 580 225 626 q 128 485 151 533 l 388 485 l 503 1021 l 657 1042 z "},"5":{"ha":710,"x_min":14,"x_max":674,"o":"m 671 1040 q 673 1017 672 1029 q 674 994 674 1006 q 640 894 674 933 q 518 856 606 856 q 458 860 490 856 q 395 870 426 864 q 335 882 364 876 q 286 890 307 888 l 224 603 q 315 636 272 626 q 397 646 358 646 q 508 624 461 646 q 585 564 554 601 q 630 477 615 526 q 644 372 644 428 q 622 232 644 300 q 550 110 599 164 q 426 24 501 57 q 244 -8 350 -8 q 163 1 204 -8 q 89 33 122 10 q 35 96 56 56 q 14 197 14 136 q 26 277 14 242 q 59 338 39 313 q 105 376 79 363 q 158 390 131 390 q 215 373 190 390 q 247 319 239 356 q 164 287 194 317 q 133 204 133 257 q 172 110 133 140 q 263 81 210 81 q 360 105 318 81 q 431 168 403 129 q 472 255 458 207 q 486 350 486 303 q 432 492 486 442 q 289 543 378 543 q 192 524 240 543 q 110 482 143 504 l 224 1017 q 340 1001 286 1007 q 446 994 394 994 q 556 1004 501 994 q 671 1040 610 1014 z "},"6":{"ha":751,"x_min":57,"x_max":736,"o":"m 353 406 q 317 411 331 406 q 297 426 304 417 q 286 446 289 435 q 283 467 283 457 q 296 522 283 493 q 333 574 308 550 q 393 614 357 599 q 478 629 429 629 q 571 609 532 629 q 635 556 610 589 q 674 481 661 524 q 686 392 686 438 q 660 247 686 318 q 586 118 635 175 q 469 26 538 61 q 315 -8 400 -8 q 188 13 238 -8 q 108 72 138 33 q 68 166 79 111 q 57 290 57 221 q 72 472 57 381 q 115 646 86 563 q 187 801 144 729 q 285 927 229 874 q 407 1011 340 981 q 553 1042 474 1042 q 691 1006 646 1042 q 736 928 736 971 q 731 895 736 913 q 714 863 725 878 q 686 838 703 847 q 646 828 669 828 q 629 829 636 828 q 613 833 622 831 q 631 860 624 844 q 638 892 638 876 q 614 954 638 931 q 556 978 590 978 q 462 949 507 978 q 378 869 417 919 q 307 753 339 819 q 252 613 275 686 q 217 463 229 539 q 204 315 204 386 q 243 147 204 196 q 361 97 282 97 q 453 126 414 97 q 520 199 493 156 q 561 293 547 243 q 575 383 575 343 q 542 496 575 456 q 461 536 508 536 q 380 512 411 536 q 349 440 349 488 q 353 406 349 424 z "},"7":{"ha":690,"x_min":115,"x_max":803,"o":"m 803 1017 q 769 942 803 990 q 687 828 736 893 q 580 684 638 763 q 473 519 522 606 q 390 343 424 433 q 357 165 357 253 q 358 128 357 146 q 363 93 360 111 q 369 55 365 75 q 381 10 374 35 q 335 -7 357 -1 q 293 -12 313 -12 q 207 37 235 -12 q 179 174 179 86 q 212 313 179 242 q 294 455 244 385 q 400 590 343 525 q 506 713 457 656 q 588 818 556 771 q 621 897 621 865 q 569 906 600 901 q 504 915 539 911 q 434 921 469 918 q 369 924 399 924 q 308 919 338 924 q 256 901 279 914 q 219 868 233 889 q 201 817 204 847 q 140 849 164 818 q 115 929 115 881 q 128 985 115 964 q 164 1019 142 1007 q 216 1036 186 1032 q 279 1040 246 1040 q 376 1035 324 1040 q 482 1023 428 1029 q 589 1011 536 1017 q 689 1006 642 1006 q 744 1008 717 1006 q 803 1017 772 1010 z "},"8":{"ha":731,"x_min":31,"x_max":690,"o":"m 307 92 q 384 113 349 92 q 446 167 419 133 q 488 242 472 200 q 503 325 503 283 q 469 435 503 388 q 374 528 435 483 q 290 484 328 513 q 225 419 251 456 q 184 341 199 382 q 169 260 169 300 q 178 201 169 231 q 203 147 186 171 q 245 107 219 122 q 307 92 271 92 m 300 -8 q 185 14 235 -8 q 100 74 135 36 q 48 160 65 111 q 31 263 31 210 q 45 358 31 310 q 90 449 60 407 q 165 526 119 492 q 272 579 211 560 q 188 665 214 615 q 163 768 163 714 q 183 867 163 818 q 242 955 203 917 q 335 1017 281 993 q 458 1042 389 1042 q 557 1025 514 1042 q 630 981 600 1008 q 675 916 660 953 q 690 839 690 879 q 644 697 690 768 q 504 579 597 626 q 579 539 549 564 q 628 483 610 514 q 656 419 647 453 q 664 353 664 385 q 637 226 664 290 q 562 110 610 163 q 447 25 514 58 q 300 -8 379 -8 m 397 622 q 469 674 438 644 q 522 737 500 704 q 554 803 543 769 q 565 868 565 838 q 559 911 565 890 q 540 949 553 932 q 508 975 528 965 q 461 985 488 985 q 398 969 428 985 q 347 926 368 953 q 313 866 325 900 q 300 796 300 832 q 324 700 300 747 q 397 622 349 653 z "},"9":{"ha":760,"x_min":78,"x_max":732,"o":"m 451 617 q 478 584 472 604 q 485 550 485 564 q 469 499 485 522 q 427 460 453 476 q 367 433 401 443 q 299 424 333 424 q 207 444 244 424 q 145 500 169 465 q 110 579 121 535 q 99 672 99 624 q 124 815 99 747 q 197 933 150 882 q 313 1013 244 983 q 464 1042 381 1042 q 590 1019 539 1042 q 673 955 642 997 q 718 853 704 913 q 732 718 732 793 q 697 452 732 582 q 598 220 661 322 q 447 56 535 118 q 254 -7 360 -7 q 172 5 206 -7 q 118 36 139 17 q 88 80 97 56 q 78 131 78 104 q 83 167 78 149 q 99 199 88 185 q 130 224 110 214 q 179 235 150 233 q 166 214 168 224 q 164 192 164 204 q 168 163 164 179 q 183 131 172 146 q 213 107 194 117 q 261 97 232 97 q 290 101 267 97 q 346 121 314 104 q 415 173 378 138 q 485 273 451 208 q 545 435 519 338 q 581 676 571 533 q 583 713 582 696 q 583 750 583 729 q 573 863 583 818 q 544 935 563 908 q 499 974 525 963 q 444 985 474 985 q 356 958 396 985 q 289 887 317 931 q 245 787 261 843 q 229 672 229 731 q 233 623 229 651 q 248 569 236 594 q 282 525 260 543 q 342 507 304 507 q 405 535 375 507 q 451 617 435 564 z "},"A":{"ha":838,"x_min":-54,"x_max":894,"o":"m 525 0 l 631 499 q 517 543 583 525 q 382 568 450 561 q 308 402 342 488 q 249 234 274 317 q 209 75 224 151 q 194 -64 194 -1 q 207 -158 194 -119 q 153 -153 181 -158 q 102 -133 125 -149 q 65 -88 79 -117 q 50 -11 50 -60 q 66 104 50 38 q 110 248 82 171 q 177 408 138 325 q 265 574 217 492 q 187 565 224 572 q 122 547 150 558 q 78 521 94 536 q 63 488 63 506 q 86 471 82 481 q 90 453 90 461 q 68 409 90 421 q 22 397 46 397 q -31 413 -7 397 q -54 469 -54 429 q -31 537 -54 507 q 32 588 -8 567 q 126 619 72 608 q 242 631 181 631 q 269 630 256 631 q 299 628 283 629 q 411 788 351 713 q 533 919 471 863 q 660 1008 596 975 q 788 1042 725 1042 q 839 1038 808 1042 q 894 1022 869 1033 l 676 0 l 525 0 m 406 614 q 535 583 474 603 q 639 542 597 564 l 731 974 q 654 944 694 972 q 572 867 614 915 q 487 753 529 818 q 406 614 444 689 z "},"Æ":{"ha":1157,"x_min":21,"x_max":1268,"o":"m 1118 913 q 1033 922 1075 913 q 953 943 992 932 l 874 574 l 1081 574 l 1061 492 l 856 492 l 772 97 l 1078 97 l 1057 0 l 600 0 l 706 499 q 591 543 657 525 q 456 568 525 561 q 381 402 415 488 q 322 234 347 317 q 283 75 297 151 q 269 -64 269 -1 q 282 -158 269 -119 q 228 -153 256 -158 q 177 -133 200 -149 q 140 -87 154 -117 q 125 -10 125 -58 q 140 106 125 39 q 184 249 156 172 q 251 409 213 326 q 339 574 290 492 q 261 565 297 572 q 197 547 225 558 q 153 521 169 536 q 138 488 138 506 q 161 471 157 481 q 165 453 165 461 q 143 409 165 421 q 97 397 121 397 q 44 413 68 397 q 21 469 21 429 q 51 548 21 517 q 126 597 81 579 q 224 623 171 615 q 321 631 276 631 q 349 630 336 631 q 372 628 361 629 q 487 788 426 713 q 612 919 547 863 q 743 1008 676 975 q 876 1042 810 1042 q 931 1038 901 1042 q 992 1028 961 1033 q 1053 1019 1024 1024 q 1108 1015 1083 1015 q 1149 1017 1126 1015 q 1193 1024 1171 1019 q 1235 1033 1215 1028 q 1268 1042 1254 1038 q 1241 975 1257 1000 q 1206 936 1225 950 q 1164 917 1186 922 q 1118 913 1142 913 m 479 614 q 610 583 549 603 q 714 542 672 564 l 806 974 q 726 938 768 968 q 643 860 685 908 q 560 749 601 813 q 479 614 518 686 z "},"Á":{"ha":838,"x_min":-54,"x_max":894,"o":"m 525 0 l 631 499 q 517 543 583 525 q 382 568 450 561 q 308 402 342 488 q 249 234 274 317 q 209 75 224 151 q 194 -64 194 -1 q 207 -158 194 -119 q 153 -153 181 -158 q 102 -133 125 -149 q 65 -88 79 -117 q 50 -11 50 -60 q 66 104 50 38 q 110 248 82 171 q 177 408 138 325 q 265 574 217 492 q 187 565 224 572 q 122 547 150 558 q 78 521 94 536 q 63 488 63 506 q 86 471 82 481 q 90 453 90 461 q 68 409 90 421 q 22 397 46 397 q -31 413 -7 397 q -54 469 -54 429 q -31 537 -54 507 q 32 588 -8 567 q 126 619 72 608 q 242 631 181 631 q 269 630 256 631 q 299 628 283 629 q 411 788 351 713 q 533 919 471 863 q 660 1008 596 975 q 788 1042 725 1042 q 839 1038 808 1042 q 894 1022 869 1033 l 676 0 l 525 0 m 406 614 q 535 583 474 603 q 639 542 597 564 l 731 974 q 654 944 694 972 q 572 867 614 915 q 487 753 529 818 q 406 614 444 689 m 764 1389 l 882 1389 l 714 1126 l 638 1126 l 764 1389 z "},"Â":{"ha":838,"x_min":-54,"x_max":913,"o":"m 525 0 l 631 499 q 517 543 583 525 q 382 568 450 561 q 308 402 342 488 q 249 234 274 317 q 209 75 224 151 q 194 -64 194 -1 q 207 -158 194 -119 q 153 -153 181 -158 q 102 -133 125 -149 q 65 -88 79 -117 q 50 -11 50 -60 q 66 104 50 38 q 110 248 82 171 q 177 408 138 325 q 265 574 217 492 q 187 565 224 572 q 122 547 150 558 q 78 521 94 536 q 63 488 63 506 q 86 471 82 481 q 90 453 90 461 q 68 409 90 421 q 22 397 46 397 q -31 413 -7 397 q -54 469 -54 429 q -31 537 -54 507 q 32 588 -8 567 q 126 619 72 608 q 242 631 181 631 q 269 630 256 631 q 299 628 283 629 q 411 788 351 713 q 533 919 471 863 q 660 1008 596 975 q 788 1042 725 1042 q 839 1038 808 1042 q 894 1022 869 1033 l 676 0 l 525 0 m 406 614 q 535 583 474 603 q 639 542 597 564 l 731 974 q 654 944 694 972 q 572 867 614 915 q 487 753 529 818 q 406 614 444 689 m 882 1126 l 792 1267 l 567 1126 l 519 1126 l 799 1358 l 828 1358 l 913 1126 l 882 1126 z "},"Ä":{"ha":838,"x_min":-54,"x_max":926,"o":"m 525 0 l 631 499 q 517 543 583 525 q 382 568 450 561 q 308 402 342 488 q 249 234 274 317 q 209 75 224 151 q 194 -64 194 -1 q 207 -158 194 -119 q 153 -153 181 -158 q 102 -133 125 -149 q 65 -88 79 -117 q 50 -11 50 -60 q 66 104 50 38 q 110 248 82 171 q 177 408 138 325 q 265 574 217 492 q 187 565 224 572 q 122 547 150 558 q 78 521 94 536 q 63 488 63 506 q 86 471 82 481 q 90 453 90 461 q 68 409 90 421 q 22 397 46 397 q -31 413 -7 397 q -54 469 -54 429 q -31 537 -54 507 q 32 588 -8 567 q 126 619 72 608 q 242 631 181 631 q 269 630 256 631 q 299 628 283 629 q 411 788 351 713 q 533 919 471 863 q 660 1008 596 975 q 788 1042 725 1042 q 839 1038 808 1042 q 894 1022 869 1033 l 676 0 l 525 0 m 406 614 q 535 583 474 603 q 639 542 597 564 l 731 974 q 654 944 694 972 q 572 867 614 915 q 487 753 529 818 q 406 614 444 689 m 781 1239 q 801 1291 781 1269 q 853 1313 822 1313 q 905 1291 883 1313 q 926 1239 926 1269 q 905 1188 926 1208 q 853 1167 883 1167 q 801 1188 822 1167 q 781 1239 781 1208 m 553 1239 q 574 1291 553 1269 q 625 1313 594 1313 q 677 1291 656 1313 q 699 1239 699 1269 q 677 1188 699 1208 q 625 1167 656 1167 q 574 1188 594 1167 q 553 1239 553 1208 z "},"À":{"ha":838,"x_min":-54,"x_max":894,"o":"m 525 0 l 631 499 q 517 543 583 525 q 382 568 450 561 q 308 402 342 488 q 249 234 274 317 q 209 75 224 151 q 194 -64 194 -1 q 207 -158 194 -119 q 153 -153 181 -158 q 102 -133 125 -149 q 65 -88 79 -117 q 50 -11 50 -60 q 66 104 50 38 q 110 248 82 171 q 177 408 138 325 q 265 574 217 492 q 187 565 224 572 q 122 547 150 558 q 78 521 94 536 q 63 488 63 506 q 86 471 82 481 q 90 453 90 461 q 68 409 90 421 q 22 397 46 397 q -31 413 -7 397 q -54 469 -54 429 q -31 537 -54 507 q 32 588 -8 567 q 126 619 72 608 q 242 631 181 631 q 269 630 256 631 q 299 628 283 629 q 411 788 351 713 q 533 919 471 863 q 660 1008 596 975 q 788 1042 725 1042 q 839 1038 808 1042 q 894 1022 869 1033 l 676 0 l 525 0 m 406 614 q 535 583 474 603 q 639 542 597 564 l 731 974 q 654 944 694 972 q 572 867 614 915 q 487 753 529 818 q 406 614 444 689 m 725 1126 l 649 1126 l 564 1389 l 682 1389 l 725 1126 z "},"Ą":{"ha":838,"x_min":-54,"x_max":894,"o":"m 600 0 q 547 -48 571 -15 q 522 -117 522 -81 q 540 -173 522 -146 q 592 -200 558 -200 q 643 -181 619 -200 q 690 -139 667 -162 l 688 -182 q 660 -209 675 -194 q 626 -237 644 -224 q 585 -259 607 -250 q 536 -268 563 -268 q 487 -258 507 -268 q 453 -232 467 -247 q 433 -197 439 -217 q 426 -160 426 -178 q 451 -81 426 -122 q 525 0 476 -40 l 631 499 q 517 543 583 525 q 382 568 450 561 q 308 402 342 488 q 249 234 274 317 q 209 75 224 151 q 194 -64 194 -1 q 207 -158 194 -119 q 153 -153 181 -158 q 102 -133 125 -149 q 65 -88 79 -117 q 50 -11 50 -60 q 66 104 50 38 q 110 248 82 171 q 177 408 138 325 q 265 574 217 492 q 187 565 224 572 q 122 547 150 558 q 78 521 94 536 q 63 488 63 506 q 86 471 82 481 q 90 453 90 461 q 68 409 90 421 q 22 397 46 397 q -31 413 -7 397 q -54 469 -54 429 q -31 537 -54 507 q 32 588 -8 567 q 126 619 72 608 q 242 631 181 631 q 269 630 256 631 q 299 628 283 629 q 411 788 351 713 q 533 919 471 863 q 660 1008 596 975 q 788 1042 725 1042 q 839 1038 808 1042 q 894 1022 869 1033 l 676 0 l 600 0 m 406 614 q 535 583 474 603 q 639 542 597 564 l 731 974 q 654 944 694 972 q 572 867 614 915 q 487 753 529 818 q 406 614 444 689 z "},"Å":{"ha":838,"x_min":-54,"x_max":894,"o":"m 525 0 l 631 499 q 517 543 583 525 q 382 568 450 561 q 308 402 342 488 q 249 234 274 317 q 209 75 224 151 q 194 -64 194 -1 q 207 -158 194 -119 q 153 -153 181 -158 q 102 -133 125 -149 q 65 -88 79 -117 q 50 -11 50 -60 q 66 104 50 38 q 110 248 82 171 q 177 408 138 325 q 265 574 217 492 q 187 565 224 572 q 122 547 150 558 q 78 521 94 536 q 63 488 63 506 q 86 471 82 481 q 90 453 90 461 q 68 409 90 421 q 22 397 46 397 q -31 413 -7 397 q -54 469 -54 429 q -31 537 -54 507 q 32 588 -8 567 q 126 619 72 608 q 242 631 181 631 q 269 630 256 631 q 299 628 283 629 q 411 788 351 713 q 533 919 471 863 q 660 1008 596 975 q 788 1042 725 1042 q 839 1038 808 1042 q 894 1022 869 1033 l 676 0 l 525 0 m 406 614 q 535 583 474 603 q 639 542 597 564 l 731 974 q 654 944 694 972 q 572 867 614 915 q 487 753 529 818 q 406 614 444 689 m 751 1338 q 827 1306 803 1338 q 851 1231 851 1275 q 824 1149 851 1185 q 731 1114 796 1114 q 660 1142 686 1114 q 633 1211 633 1171 q 640 1251 633 1229 q 661 1293 647 1274 q 697 1325 675 1313 q 751 1338 719 1338 m 800 1226 q 799 1248 800 1236 q 794 1269 799 1260 q 780 1285 789 1279 q 754 1292 771 1292 q 703 1266 718 1292 q 689 1214 689 1240 q 700 1176 689 1190 q 736 1163 711 1163 q 784 1180 768 1163 q 800 1226 800 1197 z "},"Ã":{"ha":838,"x_min":-54,"x_max":1011,"o":"m 525 0 l 631 499 q 517 543 583 525 q 382 568 450 561 q 308 402 342 488 q 249 234 274 317 q 209 75 224 151 q 194 -64 194 -1 q 207 -158 194 -119 q 153 -153 181 -158 q 102 -133 125 -149 q 65 -88 79 -117 q 50 -11 50 -60 q 66 104 50 38 q 110 248 82 171 q 177 408 138 325 q 265 574 217 492 q 187 565 224 572 q 122 547 150 558 q 78 521 94 536 q 63 488 63 506 q 86 471 82 481 q 90 453 90 461 q 68 409 90 421 q 22 397 46 397 q -31 413 -7 397 q -54 469 -54 429 q -31 537 -54 507 q 32 588 -8 567 q 126 619 72 608 q 242 631 181 631 q 269 630 256 631 q 299 628 283 629 q 411 788 351 713 q 533 919 471 863 q 660 1008 596 975 q 788 1042 725 1042 q 839 1038 808 1042 q 894 1022 869 1033 l 676 0 l 525 0 m 406 614 q 535 583 474 603 q 639 542 597 564 l 731 974 q 654 944 694 972 q 572 867 614 915 q 487 753 529 818 q 406 614 444 689 m 1011 1271 q 987 1226 1006 1249 q 940 1186 968 1204 q 878 1157 913 1168 q 810 1146 844 1146 q 752 1153 779 1146 q 700 1169 725 1160 q 650 1185 675 1178 q 600 1192 625 1192 q 517 1158 551 1192 l 510 1161 q 594 1253 540 1222 q 718 1283 647 1283 q 779 1277 753 1283 q 829 1263 806 1271 q 875 1249 853 1256 q 925 1243 897 1243 q 969 1250 949 1243 q 1004 1271 990 1257 l 1011 1271 z "},"B":{"ha":943,"x_min":78,"x_max":903,"o":"m 193 640 q 201 576 193 597 q 213 546 210 556 q 114 574 150 546 q 78 674 78 603 q 119 812 78 746 q 231 929 161 878 q 392 1011 301 981 q 582 1042 483 1042 q 714 1023 658 1042 q 806 974 769 1004 q 860 903 843 943 q 878 821 878 864 q 842 698 878 758 q 736 599 806 638 q 860 518 817 581 q 903 376 903 456 q 888 258 903 326 q 838 126 874 189 q 744 20 803 64 q 599 -24 686 -24 q 497 1 536 -24 q 458 72 458 25 q 463 107 458 88 q 476 143 468 126 q 519 100 493 111 q 574 89 546 89 q 650 115 619 89 q 700 183 681 142 q 728 271 719 224 q 736 360 736 318 q 730 433 736 399 q 706 493 724 468 q 658 533 689 518 q 578 547 626 547 q 547 546 571 547 q 500 542 524 544 l 385 0 l 232 0 l 424 890 l 579 911 l 513 597 l 538 597 q 626 619 585 597 q 699 674 668 640 q 748 748 731 707 q 765 828 765 789 q 752 890 765 860 q 713 942 739 919 q 647 978 686 965 q 554 992 607 992 q 426 970 490 992 q 310 906 363 949 q 226 796 258 863 q 193 640 193 729 z "},"C":{"ha":703,"x_min":63,"x_max":779,"o":"m 763 236 q 690 126 735 174 q 592 44 646 78 q 475 -6 538 11 q 349 -22 413 -22 q 138 59 213 -22 q 63 318 63 140 q 73 459 63 381 q 107 617 83 538 q 168 774 131 697 q 260 910 206 850 q 387 1006 314 969 q 553 1042 460 1042 q 640 1031 599 1042 q 713 999 682 1021 q 761 940 743 976 q 779 853 779 904 q 757 764 779 800 q 682 728 735 728 q 649 734 665 728 q 624 753 633 740 q 663 806 643 764 q 683 899 683 847 q 656 968 683 944 q 581 992 629 992 q 478 963 525 992 q 392 883 431 933 q 323 768 353 833 q 272 629 293 703 q 241 480 251 556 q 231 335 231 404 q 238 241 231 286 q 267 160 244 196 q 333 104 290 125 q 447 83 376 83 q 610 124 543 83 q 731 250 676 165 l 763 236 z "},"Ć":{"ha":703,"x_min":63,"x_max":819,"o":"m 763 236 q 690 126 735 174 q 592 44 646 78 q 475 -6 538 11 q 349 -22 413 -22 q 138 59 213 -22 q 63 318 63 140 q 73 459 63 381 q 107 617 83 538 q 168 774 131 697 q 260 910 206 850 q 387 1006 314 969 q 553 1042 460 1042 q 640 1031 599 1042 q 713 999 682 1021 q 761 940 743 976 q 779 853 779 904 q 757 764 779 800 q 682 728 735 728 q 649 734 665 728 q 624 753 633 740 q 663 806 643 764 q 683 899 683 847 q 656 968 683 944 q 581 992 629 992 q 478 963 525 992 q 392 883 431 933 q 323 768 353 833 q 272 629 293 703 q 241 480 251 556 q 231 335 231 404 q 238 241 231 286 q 267 160 244 196 q 333 104 290 125 q 447 83 376 83 q 610 124 543 83 q 731 250 676 165 l 763 236 m 701 1389 l 819 1389 l 651 1126 l 575 1126 l 701 1389 z "},"Č":{"ha":703,"x_min":63,"x_max":894,"o":"m 763 236 q 690 126 735 174 q 592 44 646 78 q 475 -6 538 11 q 349 -22 413 -22 q 138 59 213 -22 q 63 318 63 140 q 73 459 63 381 q 107 617 83 538 q 168 774 131 697 q 260 910 206 850 q 387 1006 314 969 q 553 1042 460 1042 q 640 1031 599 1042 q 713 999 682 1021 q 761 940 743 976 q 779 853 779 904 q 757 764 779 800 q 682 728 735 728 q 649 734 665 728 q 624 753 633 740 q 663 806 643 764 q 683 899 683 847 q 656 968 683 944 q 581 992 629 992 q 478 963 525 992 q 392 883 431 933 q 323 768 353 833 q 272 629 293 703 q 241 480 251 556 q 231 335 231 404 q 238 241 231 286 q 267 160 244 196 q 333 104 290 125 q 447 83 376 83 q 610 124 543 83 q 731 250 676 165 l 763 236 m 532 1378 l 622 1238 l 847 1378 l 894 1378 l 615 1146 l 586 1146 l 501 1378 l 532 1378 z "},"Ç":{"ha":703,"x_min":63,"x_max":779,"o":"m 542 -150 q 527 -216 542 -187 q 489 -264 513 -244 q 435 -293 465 -283 q 375 -303 406 -303 q 290 -291 322 -303 q 226 -264 257 -279 q 249 -233 236 -247 q 282 -219 263 -219 q 308 -226 296 -219 q 332 -240 319 -232 q 357 -255 344 -249 q 385 -261 369 -261 q 435 -241 415 -261 q 454 -199 454 -221 q 438 -155 454 -175 q 386 -135 422 -135 q 334 -145 354 -135 q 300 -165 314 -156 l 351 -22 q 138 58 213 -22 q 63 318 63 139 q 73 459 63 381 q 107 617 83 538 q 168 774 131 697 q 260 910 206 850 q 387 1006 314 969 q 553 1042 460 1042 q 640 1031 599 1042 q 713 999 682 1021 q 761 940 743 976 q 779 853 779 904 q 757 764 779 800 q 682 728 735 728 q 649 734 665 728 q 624 753 633 740 q 663 806 643 764 q 683 899 683 847 q 656 968 683 944 q 581 992 629 992 q 478 963 525 992 q 392 883 431 933 q 323 768 353 833 q 272 629 293 703 q 241 480 251 556 q 231 335 231 404 q 238 241 231 286 q 267 160 244 196 q 333 104 290 125 q 447 83 376 83 q 610 124 543 83 q 731 250 676 165 l 763 236 q 701 138 738 182 q 618 62 664 94 q 519 9 572 29 q 411 -18 467 -11 l 382 -92 q 456 -81 426 -81 q 521 -99 500 -81 q 542 -150 542 -118 z "},"Ĉ":{"ha":703,"x_min":63,"x_max":779,"o":"m 763 236 q 690 126 735 174 q 592 44 646 78 q 475 -6 538 11 q 349 -22 413 -22 q 138 59 213 -22 q 63 318 63 140 q 73 459 63 381 q 107 617 83 538 q 168 774 131 697 q 260 910 206 850 q 387 1006 314 969 q 553 1042 460 1042 q 640 1031 599 1042 q 713 999 682 1021 q 761 940 743 976 q 779 853 779 904 q 757 764 779 800 q 682 728 735 728 q 649 734 665 728 q 624 753 633 740 q 663 806 643 764 q 683 899 683 847 q 656 968 683 944 q 581 992 629 992 q 478 963 525 992 q 392 883 431 933 q 323 768 353 833 q 272 629 293 703 q 241 480 251 556 q 231 335 231 404 q 238 241 231 286 q 267 160 244 196 q 333 104 290 125 q 447 83 376 83 q 610 124 543 83 q 731 250 676 165 l 763 236 m 742 1126 l 651 1267 l 426 1126 l 379 1126 l 658 1358 l 688 1358 l 772 1126 l 742 1126 z "},"D":{"ha":978,"x_min":78,"x_max":965,"o":"m 585 911 l 413 108 q 503 72 457 72 q 597 101 554 72 q 673 178 639 129 q 731 290 707 226 q 772 422 756 353 q 797 563 789 492 q 806 697 806 633 q 790 835 806 779 q 744 926 775 892 q 667 976 714 961 q 560 992 621 992 q 420 968 489 992 q 298 900 351 944 q 212 791 244 856 q 179 644 179 726 q 197 578 179 601 q 226 546 215 556 q 117 575 157 546 q 78 675 78 604 q 119 813 78 746 q 231 930 161 879 q 394 1011 301 981 q 589 1042 486 1042 q 763 1010 692 1042 q 880 924 835 979 q 945 794 925 868 q 965 633 965 719 q 950 479 965 557 q 907 329 935 401 q 842 193 879 257 q 763 83 806 129 q 672 9 719 36 q 578 -18 625 -18 q 493 1 536 -18 q 403 63 450 21 l 390 0 l 238 0 l 429 890 l 585 911 z "},"E":{"ha":621,"x_min":17,"x_max":692,"o":"m 679 236 q 608 126 651 175 q 511 44 565 78 q 396 -7 457 11 q 272 -25 335 -25 q 157 -5 206 -25 q 77 49 108 15 q 31 126 46 82 q 17 219 17 171 q 34 328 17 274 q 85 430 51 382 q 166 516 118 478 q 274 579 214 554 q 209 655 229 611 q 189 746 189 699 q 211 853 189 800 q 274 949 233 906 q 371 1018 315 992 q 493 1044 426 1044 q 571 1033 535 1044 q 634 1000 607 1022 q 676 946 661 978 q 692 871 692 914 q 661 767 692 808 q 589 726 631 726 q 524 764 551 726 q 577 806 550 774 q 604 892 604 838 q 595 942 604 922 q 573 972 586 961 q 543 988 560 983 q 511 992 526 992 q 446 976 479 992 q 384 931 413 961 q 338 856 356 901 q 319 753 319 811 q 324 697 319 725 q 342 646 329 669 q 376 605 354 622 q 431 581 397 588 q 322 536 369 568 q 243 460 275 504 q 195 365 211 417 q 179 258 179 313 q 222 131 179 176 q 354 85 264 85 q 448 98 403 85 q 531 134 493 111 q 598 187 568 157 q 647 250 628 217 l 679 236 z "},"É":{"ha":621,"x_min":17,"x_max":739,"o":"m 679 236 q 608 126 651 175 q 511 44 565 78 q 396 -7 457 11 q 272 -25 335 -25 q 157 -5 206 -25 q 77 49 108 15 q 31 126 46 82 q 17 219 17 171 q 34 328 17 274 q 85 430 51 382 q 166 516 118 478 q 274 579 214 554 q 209 655 229 611 q 189 746 189 699 q 211 853 189 800 q 274 949 233 906 q 371 1018 315 992 q 493 1044 426 1044 q 571 1033 535 1044 q 634 1000 607 1022 q 676 946 661 978 q 692 871 692 914 q 661 767 692 808 q 589 726 631 726 q 524 764 551 726 q 577 806 550 774 q 604 892 604 838 q 595 942 604 922 q 573 972 586 961 q 543 988 560 983 q 511 992 526 992 q 446 976 479 992 q 384 931 413 961 q 338 856 356 901 q 319 753 319 811 q 324 697 319 725 q 342 646 329 669 q 376 605 354 622 q 431 581 397 588 q 322 536 369 568 q 243 460 275 504 q 195 365 211 417 q 179 258 179 313 q 222 131 179 176 q 354 85 264 85 q 448 98 403 85 q 531 134 493 111 q 598 187 568 157 q 647 250 628 217 l 679 236 m 621 1389 l 739 1389 l 571 1126 l 494 1126 l 621 1389 z "},"Ê":{"ha":621,"x_min":17,"x_max":703,"o":"m 679 236 q 608 126 651 175 q 511 44 565 78 q 396 -7 457 11 q 272 -25 335 -25 q 157 -5 206 -25 q 77 49 108 15 q 31 126 46 82 q 17 219 17 171 q 34 328 17 274 q 85 430 51 382 q 166 516 118 478 q 274 579 214 554 q 209 655 229 611 q 189 746 189 699 q 211 853 189 800 q 274 949 233 906 q 371 1018 315 992 q 493 1044 426 1044 q 571 1033 535 1044 q 634 1000 607 1022 q 676 946 661 978 q 692 871 692 914 q 661 767 692 808 q 589 726 631 726 q 524 764 551 726 q 577 806 550 774 q 604 892 604 838 q 595 942 604 922 q 573 972 586 961 q 543 988 560 983 q 511 992 526 992 q 446 976 479 992 q 384 931 413 961 q 338 856 356 901 q 319 753 319 811 q 324 697 319 725 q 342 646 329 669 q 376 605 354 622 q 431 581 397 588 q 322 536 369 568 q 243 460 275 504 q 195 365 211 417 q 179 258 179 313 q 222 131 179 176 q 354 85 264 85 q 448 98 403 85 q 531 134 493 111 q 598 187 568 157 q 647 250 628 217 l 679 236 m 672 1126 l 582 1267 l 357 1126 l 310 1126 l 589 1358 l 618 1358 l 703 1126 l 672 1126 z "},"Ë":{"ha":621,"x_min":17,"x_max":736,"o":"m 679 236 q 608 126 651 175 q 511 44 565 78 q 396 -7 457 11 q 272 -25 335 -25 q 157 -5 206 -25 q 77 49 108 15 q 31 126 46 82 q 17 219 17 171 q 34 328 17 274 q 85 430 51 382 q 166 516 118 478 q 274 579 214 554 q 209 655 229 611 q 189 746 189 699 q 211 853 189 800 q 274 949 233 906 q 371 1018 315 992 q 493 1044 426 1044 q 571 1033 535 1044 q 634 1000 607 1022 q 676 946 661 978 q 692 871 692 914 q 661 767 692 808 q 589 726 631 726 q 524 764 551 726 q 577 806 550 774 q 604 892 604 838 q 595 942 604 922 q 573 972 586 961 q 543 988 560 983 q 511 992 526 992 q 446 976 479 992 q 384 931 413 961 q 338 856 356 901 q 319 753 319 811 q 324 697 319 725 q 342 646 329 669 q 376 605 354 622 q 431 581 397 588 q 322 536 369 568 q 243 460 275 504 q 195 365 211 417 q 179 258 179 313 q 222 131 179 176 q 354 85 264 85 q 448 98 403 85 q 531 134 493 111 q 598 187 568 157 q 647 250 628 217 l 679 236 m 363 1239 q 383 1291 363 1269 q 435 1313 404 1313 q 487 1291 465 1313 q 508 1239 508 1269 q 487 1188 508 1208 q 435 1167 465 1167 q 383 1188 404 1167 q 363 1239 363 1208 m 590 1239 q 611 1291 590 1269 q 663 1313 632 1313 q 715 1291 693 1313 q 736 1239 736 1269 q 715 1188 736 1208 q 663 1167 693 1167 q 611 1188 632 1167 q 590 1239 590 1208 z "},"È":{"ha":621,"x_min":17,"x_max":692,"o":"m 679 236 q 608 126 651 175 q 511 44 565 78 q 396 -7 457 11 q 272 -25 335 -25 q 157 -5 206 -25 q 77 49 108 15 q 31 126 46 82 q 17 219 17 171 q 34 328 17 274 q 85 430 51 382 q 166 516 118 478 q 274 579 214 554 q 209 655 229 611 q 189 746 189 699 q 211 853 189 800 q 274 949 233 906 q 371 1018 315 992 q 493 1044 426 1044 q 571 1033 535 1044 q 634 1000 607 1022 q 676 946 661 978 q 692 871 692 914 q 661 767 692 808 q 589 726 631 726 q 524 764 551 726 q 577 806 550 774 q 604 892 604 838 q 595 942 604 922 q 573 972 586 961 q 543 988 560 983 q 511 992 526 992 q 446 976 479 992 q 384 931 413 961 q 338 856 356 901 q 319 753 319 811 q 324 697 319 725 q 342 646 329 669 q 376 605 354 622 q 431 581 397 588 q 322 536 369 568 q 243 460 275 504 q 195 365 211 417 q 179 258 179 313 q 222 131 179 176 q 354 85 264 85 q 448 98 403 85 q 531 134 493 111 q 598 187 568 157 q 647 250 628 217 l 679 236 m 532 1126 l 456 1126 l 371 1389 l 489 1389 l 532 1126 z "},"Ę":{"ha":624,"x_min":17,"x_max":692,"o":"m 679 236 q 650 172 672 201 q 598 114 628 142 q 536 60 568 86 q 477 6 504 33 q 432 -52 450 -22 q 414 -117 414 -82 q 429 -170 414 -143 q 481 -197 444 -197 q 531 -178 506 -197 q 576 -139 557 -158 l 574 -182 q 546 -209 561 -194 q 512 -237 531 -224 q 471 -259 493 -250 q 422 -268 449 -268 q 373 -258 393 -268 q 339 -232 353 -247 q 319 -197 325 -217 q 313 -160 313 -178 q 336 -83 313 -124 q 406 -4 360 -43 q 272 -25 340 -25 q 157 -5 206 -25 q 77 49 108 15 q 31 126 46 82 q 17 219 17 171 q 34 328 17 274 q 85 430 51 382 q 166 516 118 478 q 274 579 214 554 q 209 655 229 611 q 189 746 189 699 q 211 853 189 800 q 274 949 233 906 q 371 1018 315 992 q 493 1044 426 1044 q 571 1033 535 1044 q 634 1000 607 1022 q 676 946 661 978 q 692 871 692 914 q 661 767 692 808 q 589 726 631 726 q 524 764 551 726 q 577 806 550 774 q 604 892 604 838 q 595 942 604 922 q 573 972 586 961 q 543 988 560 983 q 511 992 526 992 q 446 976 479 992 q 384 931 413 961 q 338 856 356 901 q 319 753 319 811 q 324 697 319 725 q 342 646 329 669 q 376 605 354 622 q 431 581 397 588 q 322 536 369 568 q 243 460 275 504 q 195 365 211 417 q 179 258 179 313 q 222 131 179 176 q 354 85 264 85 q 449 97 403 85 q 533 132 494 110 q 601 185 572 154 q 647 250 631 215 l 679 236 z "},"Ð":{"ha":978,"x_min":78,"x_max":965,"o":"m 179 644 q 197 578 179 601 q 226 546 215 556 q 117 575 157 546 q 78 675 78 604 q 119 813 78 746 q 231 930 161 879 q 394 1011 301 981 q 589 1042 486 1042 q 763 1010 692 1042 q 880 924 835 979 q 945 794 925 868 q 965 633 965 719 q 950 479 965 557 q 907 329 935 401 q 842 193 879 257 q 763 83 806 129 q 672 9 719 36 q 578 -18 625 -18 q 493 1 536 -18 q 403 63 450 21 l 390 0 l 238 0 l 343 489 l 251 489 l 274 574 l 361 574 l 429 890 l 585 911 l 513 574 l 631 574 l 608 489 l 494 489 l 413 108 q 503 72 457 72 q 597 101 554 72 q 673 178 639 129 q 731 290 707 226 q 772 422 756 353 q 797 563 789 492 q 806 697 806 633 q 790 835 806 779 q 744 926 775 892 q 667 976 714 961 q 560 992 621 992 q 420 968 489 992 q 298 900 351 944 q 212 791 244 856 q 179 644 179 726 z "},"€":{"ha":849,"x_min":28,"x_max":835,"o":"m 150 464 q 167 568 156 514 l 63 568 l 78 624 l 181 624 q 236 778 201 703 q 323 911 271 853 q 445 1006 375 969 q 608 1042 515 1042 q 695 1031 654 1042 q 767 999 736 1021 q 817 941 799 976 q 835 854 835 906 q 813 765 835 801 q 740 728 790 728 q 679 753 697 728 q 699 772 689 758 q 719 806 710 786 q 733 848 728 825 q 739 894 739 871 q 712 968 739 944 q 638 992 685 992 q 535 962 581 992 q 452 881 489 932 q 388 764 415 831 q 343 624 361 697 l 636 624 l 621 568 l 332 568 q 315 464 321 515 l 601 464 l 586 408 l 311 408 q 310 374 310 390 q 310 342 310 357 q 317 244 310 290 q 347 162 324 197 q 413 105 369 126 q 526 83 456 83 q 651 106 597 83 q 749 172 704 128 l 749 117 q 690 62 725 88 q 612 17 654 36 q 521 -12 569 -1 q 421 -22 472 -22 q 215 60 289 -22 q 142 329 142 143 q 142 367 142 347 q 144 408 142 386 l 28 408 l 43 464 l 150 464 z "},"F":{"ha":769,"x_min":86,"x_max":915,"o":"m 761 897 q 672 905 717 897 q 582 922 626 913 l 514 604 l 721 604 l 701 522 l 496 522 l 385 0 l 232 0 l 436 947 q 422 949 429 949 q 408 949 415 949 q 325 935 365 949 q 254 888 285 922 q 206 797 224 854 q 188 653 188 740 q 195 583 188 608 q 214 546 203 557 q 119 576 151 546 q 86 686 86 607 q 113 817 86 753 q 197 931 140 881 q 338 1011 253 981 q 540 1042 424 1042 q 606 1039 576 1042 q 665 1033 636 1036 q 724 1028 694 1031 q 789 1025 754 1025 q 855 1028 824 1025 q 915 1042 886 1032 q 886 965 903 993 q 850 922 869 936 q 808 902 831 907 q 761 897 785 897 z "},"G":{"ha":821,"x_min":69,"x_max":829,"o":"m 801 581 l 688 58 q 644 -85 671 -21 q 576 -194 617 -150 q 481 -263 536 -239 q 354 -287 426 -287 q 251 -271 292 -287 q 185 -228 210 -254 q 149 -167 160 -201 q 139 -97 139 -133 q 149 -27 139 -61 q 181 34 158 7 q 238 78 203 61 q 325 94 274 94 q 360 92 339 94 q 399 80 381 89 q 431 52 418 71 q 444 1 444 33 q 436 -54 444 -24 q 392 -15 417 -28 q 340 -3 367 -3 q 266 -35 299 -3 q 233 -119 233 -67 q 265 -202 233 -171 q 346 -233 297 -233 q 394 -224 369 -233 q 441 -194 418 -215 q 483 -137 464 -172 q 514 -47 501 -101 l 585 276 q 476 183 538 214 q 344 151 415 151 q 233 175 283 151 q 146 242 182 199 q 90 350 110 286 q 69 496 69 414 q 104 700 69 601 q 203 875 139 799 q 360 997 268 951 q 568 1042 453 1042 q 664 1032 617 1042 q 748 1000 711 1022 q 807 941 785 978 q 829 850 829 904 q 807 765 829 801 q 732 728 785 728 q 711 729 724 728 q 685 735 699 731 q 659 746 672 739 q 636 764 646 753 q 653 769 640 764 q 680 788 665 774 q 706 824 694 801 q 717 883 717 847 q 690 963 717 935 q 606 992 663 992 q 460 948 528 992 q 343 833 393 904 q 265 673 293 763 q 236 492 236 583 q 278 316 236 383 q 400 249 319 249 q 555 333 488 249 q 667 582 622 418 l 801 581 z "},"Ğ":{"ha":821,"x_min":69,"x_max":914,"o":"m 801 581 l 688 58 q 644 -85 671 -21 q 576 -194 617 -150 q 481 -263 536 -239 q 354 -287 426 -287 q 251 -271 292 -287 q 185 -228 210 -254 q 149 -167 160 -201 q 139 -97 139 -133 q 149 -27 139 -61 q 181 34 158 7 q 238 78 203 61 q 325 94 274 94 q 360 92 339 94 q 399 80 381 89 q 431 52 418 71 q 444 1 444 33 q 436 -54 444 -24 q 392 -15 417 -28 q 340 -3 367 -3 q 266 -35 299 -3 q 233 -119 233 -67 q 265 -202 233 -171 q 346 -233 297 -233 q 394 -224 369 -233 q 441 -194 418 -215 q 483 -137 464 -172 q 514 -47 501 -101 l 585 276 q 476 183 538 214 q 344 151 415 151 q 233 175 283 151 q 146 242 182 199 q 90 350 110 286 q 69 496 69 414 q 104 700 69 601 q 203 875 139 799 q 360 997 268 951 q 568 1042 453 1042 q 664 1032 617 1042 q 748 1000 711 1022 q 807 941 785 978 q 829 850 829 904 q 807 765 829 801 q 732 728 785 728 q 711 729 724 728 q 685 735 699 731 q 659 746 672 739 q 636 764 646 753 q 653 769 640 764 q 680 788 665 774 q 706 824 694 801 q 717 883 717 847 q 690 963 717 935 q 606 992 663 992 q 460 948 528 992 q 343 833 393 904 q 265 673 293 763 q 236 492 236 583 q 278 316 236 383 q 400 249 319 249 q 555 333 488 249 q 667 582 622 418 l 801 581 m 914 1324 q 899 1238 914 1274 q 853 1178 885 1201 q 772 1143 822 1154 q 649 1132 721 1132 q 492 1168 551 1132 q 433 1292 433 1204 q 434 1307 433 1299 q 436 1324 435 1315 l 532 1324 q 530 1311 531 1317 q 529 1299 529 1306 q 568 1210 529 1240 q 667 1181 607 1181 q 772 1213 728 1181 q 822 1324 815 1246 l 914 1324 z "},"H":{"ha":968,"x_min":81,"x_max":1028,"o":"m 1028 1039 l 807 0 l 654 0 l 765 522 l 467 522 l 356 0 l 203 0 l 410 969 q 248 849 310 935 q 186 642 186 764 q 194 576 186 597 q 219 546 203 556 q 120 575 160 546 q 81 674 81 604 q 120 814 81 747 q 222 931 160 881 q 363 1012 285 982 q 519 1042 442 1042 q 549 1041 535 1042 q 576 1039 563 1040 l 483 604 l 782 604 l 867 996 l 1028 1039 z "},"I":{"ha":561,"x_min":78,"x_max":621,"o":"m 400 0 l 247 0 l 451 961 q 346 919 393 946 q 265 852 299 892 q 212 762 231 813 q 193 651 193 711 q 203 581 193 603 q 226 546 214 560 q 117 574 157 546 q 78 674 78 603 q 122 814 78 747 q 235 931 165 881 q 391 1012 304 982 q 564 1042 478 1042 q 593 1041 579 1042 q 621 1039 607 1040 l 400 0 z "},"Ĳ":{"ha":936,"x_min":78,"x_max":996,"o":"m 417 79 q 487 51 465 74 q 508 4 508 28 q 506 -17 508 -6 q 499 -42 503 -29 q 469 -15 489 -28 q 422 -3 449 -3 q 380 -14 399 -3 q 349 -43 361 -25 q 330 -82 336 -61 q 324 -122 324 -103 q 356 -200 324 -168 q 433 -232 389 -232 q 479 -224 453 -232 q 531 -194 506 -215 q 578 -137 556 -172 q 611 -47 600 -101 l 833 1006 l 996 1042 l 788 56 q 743 -87 771 -24 q 673 -195 715 -150 q 574 -264 631 -240 q 442 -287 517 -287 q 340 -273 382 -287 q 273 -233 299 -258 q 236 -174 247 -208 q 225 -103 225 -140 q 247 0 225 -43 l 451 961 q 346 919 393 946 q 265 852 299 892 q 212 762 231 813 q 193 651 193 711 q 203 581 193 603 q 226 546 214 560 q 117 574 157 546 q 78 674 78 603 q 122 814 78 747 q 235 931 165 881 q 391 1012 304 982 q 564 1042 478 1042 q 593 1041 579 1042 q 621 1039 607 1040 l 417 79 z "},"Í":{"ha":561,"x_min":78,"x_max":735,"o":"m 400 0 l 247 0 l 451 961 q 346 919 393 946 q 265 852 299 892 q 212 762 231 813 q 193 651 193 711 q 203 581 193 603 q 226 546 214 560 q 117 574 157 546 q 78 674 78 603 q 122 814 78 747 q 235 931 165 881 q 391 1012 304 982 q 564 1042 478 1042 q 593 1041 579 1042 q 621 1039 607 1040 l 400 0 m 617 1389 l 735 1389 l 567 1126 l 490 1126 l 617 1389 z "},"Î":{"ha":561,"x_min":78,"x_max":749,"o":"m 400 0 l 247 0 l 451 961 q 346 919 393 946 q 265 852 299 892 q 212 762 231 813 q 193 651 193 711 q 203 581 193 603 q 226 546 214 560 q 117 574 157 546 q 78 674 78 603 q 122 814 78 747 q 235 931 165 881 q 391 1012 304 982 q 564 1042 478 1042 q 593 1041 579 1042 q 621 1039 607 1040 l 400 0 m 718 1126 l 628 1267 l 403 1126 l 356 1126 l 635 1358 l 664 1358 l 749 1126 l 718 1126 z "},"Ï":{"ha":561,"x_min":78,"x_max":729,"o":"m 400 0 l 247 0 l 451 961 q 346 919 393 946 q 265 852 299 892 q 212 762 231 813 q 193 651 193 711 q 203 581 193 603 q 226 546 214 560 q 117 574 157 546 q 78 674 78 603 q 122 814 78 747 q 235 931 165 881 q 391 1012 304 982 q 564 1042 478 1042 q 593 1041 579 1042 q 621 1039 607 1040 l 400 0 m 583 1239 q 604 1291 583 1269 q 656 1313 625 1313 q 708 1291 686 1313 q 729 1239 729 1269 q 708 1188 729 1208 q 656 1167 686 1167 q 604 1188 625 1167 q 583 1239 583 1208 m 356 1239 q 376 1291 356 1269 q 428 1313 397 1313 q 480 1291 458 1313 q 501 1239 501 1269 q 480 1188 501 1208 q 428 1167 458 1167 q 376 1188 397 1167 q 356 1239 356 1208 z "},"Ì":{"ha":561,"x_min":78,"x_max":621,"o":"m 400 0 l 247 0 l 451 961 q 346 919 393 946 q 265 852 299 892 q 212 762 231 813 q 193 651 193 711 q 203 581 193 603 q 226 546 214 560 q 117 574 157 546 q 78 674 78 603 q 122 814 78 747 q 235 931 165 881 q 391 1012 304 982 q 564 1042 478 1042 q 593 1041 579 1042 q 621 1039 607 1040 l 400 0 m 547 1126 l 471 1126 l 386 1389 l 504 1389 l 547 1126 z "},"J":{"ha":611,"x_min":-100,"x_max":671,"o":"m 671 1042 l 463 56 q 419 -84 446 -21 q 350 -192 392 -147 q 251 -262 308 -237 q 115 -287 193 -287 q 15 -273 56 -287 q -52 -233 -26 -258 q -89 -173 -78 -207 q -100 -100 -100 -139 q -89 -26 -100 -61 q -55 36 -78 10 q 5 78 -32 63 q 93 94 42 94 q 126 92 107 94 q 161 80 144 89 q 190 52 178 71 q 201 1 201 33 q 197 -24 201 -10 q 189 -54 193 -39 q 151 -19 175 -32 q 107 -6 126 -6 q 62 -17 82 -6 q 28 -44 42 -28 q 6 -82 14 -61 q -1 -122 -1 -103 q 32 -200 -1 -168 q 110 -232 65 -232 q 155 -223 129 -232 q 206 -193 181 -214 q 253 -137 232 -172 q 286 -47 275 -101 l 500 961 q 310 850 378 933 q 243 654 243 767 q 254 578 243 600 q 276 546 265 556 q 167 574 207 546 q 128 674 128 603 q 172 814 128 747 q 285 931 215 881 q 441 1012 354 982 q 615 1042 528 1042 l 671 1042 z "},"K":{"ha":899,"x_min":78,"x_max":992,"o":"m 525 590 l 869 1035 l 992 1035 l 586 589 q 619 591 604 590 q 646 592 635 592 q 733 581 699 592 q 789 549 768 569 q 818 501 810 529 q 826 442 826 474 q 816 352 826 400 q 792 258 806 304 q 769 169 779 211 q 758 94 758 126 q 773 35 758 60 q 813 0 788 10 q 741 -18 768 -12 q 689 -24 714 -24 q 613 6 636 -24 q 590 67 590 35 q 603 149 590 103 q 631 245 615 196 q 658 342 646 294 q 671 426 671 389 q 642 515 671 492 q 569 539 614 539 q 513 532 544 539 l 400 0 l 247 0 l 453 961 q 344 919 393 946 q 259 852 294 892 q 204 762 224 813 q 185 651 185 711 q 193 581 185 603 q 214 546 201 560 q 117 575 157 546 q 78 674 78 604 q 122 814 78 747 q 235 931 165 881 q 391 1012 304 982 q 564 1042 478 1042 q 593 1041 579 1042 q 621 1039 607 1040 l 525 590 z "},"L":{"ha":622,"x_min":75,"x_max":932,"o":"m 404 26 q 500 -13 451 14 q 599 -68 549 -40 q 703 -117 650 -96 q 817 -137 757 -137 q 872 -133 843 -137 q 932 -115 900 -129 q 884 -251 921 -203 q 778 -300 847 -300 q 704 -280 742 -300 q 627 -230 667 -260 q 546 -165 588 -200 q 460 -101 504 -131 q 370 -51 417 -71 q 274 -31 324 -31 q 258 -31 265 -31 q 242 -32 250 -31 l 450 947 q 262 838 333 918 q 190 638 190 758 q 201 567 190 589 q 224 532 211 546 q 115 560 154 532 q 75 660 75 589 q 119 800 75 733 q 232 917 163 867 q 388 998 301 968 q 561 1028 475 1028 q 590 1027 576 1028 q 618 1025 604 1026 l 404 26 z "},"Ł":{"ha":678,"x_min":75,"x_max":988,"o":"m 538 647 l 703 756 l 699 694 l 522 579 l 404 28 q 513 -14 458 15 q 624 -74 567 -43 q 743 -128 682 -104 q 872 -151 804 -151 q 928 -147 899 -151 q 988 -129 957 -142 q 940 -265 976 -217 q 833 -314 903 -314 q 751 -293 793 -314 q 666 -240 710 -272 q 576 -172 622 -208 q 482 -104 531 -136 q 381 -51 433 -72 q 274 -31 329 -31 q 258 -31 265 -31 q 242 -32 250 -31 l 347 465 l 199 369 l 201 429 l 361 533 l 450 947 q 262 838 333 918 q 190 638 190 758 q 201 567 190 589 q 224 532 211 546 q 115 560 154 532 q 75 660 75 589 q 119 800 75 733 q 232 917 163 867 q 388 998 301 968 q 561 1028 475 1028 q 590 1027 576 1028 q 618 1025 604 1026 l 538 647 z "},"M":{"ha":1042,"x_min":79,"x_max":1047,"o":"m 551 215 l 889 1022 l 1047 1022 l 901 0 l 743 0 l 846 725 l 543 0 l 394 0 l 426 711 l 163 0 l 79 0 l 439 972 q 259 860 321 947 q 197 642 197 774 q 203 574 197 592 q 217 546 210 556 q 119 574 156 546 q 82 671 82 603 q 102 764 82 718 q 155 851 122 810 q 231 928 188 893 q 322 988 275 963 q 416 1027 368 1013 q 506 1042 464 1042 q 550 1038 529 1042 q 588 1022 571 1033 l 551 215 z "},"N":{"ha":989,"x_min":83,"x_max":1054,"o":"m 1054 1039 l 818 0 l 640 0 l 465 749 l 293 0 l 189 0 l 407 960 q 245 855 306 931 q 185 651 185 779 q 196 581 185 603 q 218 546 207 560 q 117 576 151 546 q 83 681 83 606 q 115 807 83 743 q 199 923 146 871 q 322 1008 251 975 q 471 1042 392 1042 q 518 1038 494 1042 q 564 1022 542 1033 l 754 158 l 947 1039 l 1054 1039 z "},"Ń":{"ha":989,"x_min":83,"x_max":1054,"o":"m 1054 1039 l 818 0 l 640 0 l 465 749 l 293 0 l 189 0 l 407 960 q 245 855 306 931 q 185 651 185 779 q 196 581 185 603 q 218 546 207 560 q 117 576 151 546 q 83 681 83 606 q 115 807 83 743 q 199 923 146 871 q 322 1008 251 975 q 471 1042 392 1042 q 518 1038 494 1042 q 564 1022 542 1033 l 754 158 l 947 1039 l 1054 1039 m 890 1389 l 1008 1389 l 840 1126 l 764 1126 l 890 1389 z "},"Ñ":{"ha":989,"x_min":83,"x_max":1054,"o":"m 1054 1039 l 818 0 l 640 0 l 465 749 l 293 0 l 189 0 l 407 960 q 245 855 306 931 q 185 651 185 779 q 196 581 185 603 q 218 546 207 560 q 117 576 151 546 q 83 681 83 606 q 115 807 83 743 q 199 923 146 871 q 322 1008 251 975 q 471 1042 392 1042 q 518 1038 494 1042 q 564 1022 542 1033 l 754 158 l 947 1039 l 1054 1039 m 1013 1271 q 988 1226 1007 1249 q 942 1186 969 1204 q 880 1157 914 1168 q 811 1146 846 1146 q 753 1153 781 1146 q 701 1169 726 1160 q 651 1185 676 1178 q 601 1192 626 1192 q 518 1158 553 1192 l 511 1161 q 595 1253 542 1222 q 719 1283 649 1283 q 781 1277 754 1283 q 831 1263 807 1271 q 876 1249 854 1256 q 926 1243 899 1243 q 971 1250 950 1243 q 1006 1271 992 1257 l 1013 1271 z "},"O":{"ha":968,"x_min":75,"x_max":964,"o":"m 651 911 q 580 851 615 892 q 513 757 544 811 q 456 640 482 703 q 410 511 429 576 q 380 382 390 446 q 369 265 369 318 q 397 142 369 186 q 492 97 424 97 q 605 156 549 97 q 706 307 661 214 q 779 516 751 400 q 807 749 807 632 q 797 859 807 813 q 762 935 786 906 q 697 978 738 964 q 594 992 656 992 q 444 966 517 992 q 314 892 371 940 q 222 776 257 844 q 188 622 188 707 q 190 572 188 586 q 201 546 193 557 q 108 572 142 546 q 75 663 75 599 q 122 803 75 735 q 245 925 168 872 q 422 1010 322 978 q 628 1042 522 1042 q 785 1016 721 1042 q 890 943 850 990 q 947 831 929 896 q 964 690 964 767 q 951 544 964 622 q 912 388 939 465 q 844 239 885 311 q 747 112 803 167 q 617 24 690 57 q 456 -8 544 -8 q 352 7 399 -8 q 272 56 306 22 q 221 142 239 89 q 203 271 203 194 q 213 397 203 326 q 244 540 224 467 q 297 681 265 613 q 370 803 328 750 q 465 890 413 857 q 581 922 517 922 q 614 920 596 922 q 651 911 632 918 z "},"Œ":{"ha":1200,"x_min":75,"x_max":1319,"o":"m 651 911 q 580 851 615 892 q 513 757 544 811 q 456 640 482 703 q 410 511 429 576 q 380 382 390 446 q 369 265 369 318 q 397 142 369 186 q 492 97 424 97 q 605 156 549 97 q 706 307 661 214 q 779 516 751 400 q 807 749 807 632 q 797 859 807 813 q 762 935 786 906 q 697 978 738 964 q 594 992 656 992 q 444 966 517 992 q 314 892 371 940 q 222 776 257 844 q 188 622 188 707 q 190 572 188 586 q 201 546 193 557 q 108 572 142 546 q 75 663 75 599 q 122 803 75 735 q 245 925 168 872 q 422 1010 322 978 q 628 1042 522 1042 q 715 1035 675 1042 q 788 1015 754 1028 q 858 1034 821 1026 q 944 1042 896 1042 q 1010 1039 981 1042 q 1069 1033 1040 1036 q 1128 1028 1099 1031 q 1193 1025 1158 1025 q 1259 1028 1228 1025 q 1319 1042 1290 1032 q 1290 965 1307 993 q 1254 922 1274 936 q 1212 902 1235 907 q 1165 897 1189 897 q 1027 913 1097 897 q 890 940 957 929 q 947 831 929 894 q 964 690 964 767 q 956 574 964 633 l 1135 574 l 1115 492 l 940 492 q 865 276 917 382 q 731 97 814 171 l 1110 97 l 1089 0 l 539 0 q 456 -8 499 -8 q 352 7 399 -8 q 272 56 306 22 q 221 142 239 89 q 203 271 203 194 q 213 397 203 326 q 244 540 224 467 q 297 681 265 613 q 370 803 328 750 q 465 890 413 857 q 581 922 517 922 q 614 920 596 922 q 651 911 632 918 z "},"Ó":{"ha":968,"x_min":75,"x_max":964,"o":"m 651 911 q 580 851 615 892 q 513 757 544 811 q 456 640 482 703 q 410 511 429 576 q 380 382 390 446 q 369 265 369 318 q 397 142 369 186 q 492 97 424 97 q 605 156 549 97 q 706 307 661 214 q 779 516 751 400 q 807 749 807 632 q 797 859 807 813 q 762 935 786 906 q 697 978 738 964 q 594 992 656 992 q 444 966 517 992 q 314 892 371 940 q 222 776 257 844 q 188 622 188 707 q 190 572 188 586 q 201 546 193 557 q 108 572 142 546 q 75 663 75 599 q 122 803 75 735 q 245 925 168 872 q 422 1010 322 978 q 628 1042 522 1042 q 785 1016 721 1042 q 890 943 850 990 q 947 831 929 896 q 964 690 964 767 q 951 544 964 622 q 912 388 939 465 q 844 239 885 311 q 747 112 803 167 q 617 24 690 57 q 456 -8 544 -8 q 352 7 399 -8 q 272 56 306 22 q 221 142 239 89 q 203 271 203 194 q 213 397 203 326 q 244 540 224 467 q 297 681 265 613 q 370 803 328 750 q 465 890 413 857 q 581 922 517 922 q 614 920 596 922 q 651 911 632 918 m 774 1389 l 892 1389 l 724 1126 l 647 1126 l 774 1389 z "},"Ô":{"ha":968,"x_min":75,"x_max":964,"o":"m 651 911 q 580 851 615 892 q 513 757 544 811 q 456 640 482 703 q 410 511 429 576 q 380 382 390 446 q 369 265 369 318 q 397 142 369 186 q 492 97 424 97 q 605 156 549 97 q 706 307 661 214 q 779 516 751 400 q 807 749 807 632 q 797 859 807 813 q 762 935 786 906 q 697 978 738 964 q 594 992 656 992 q 444 966 517 992 q 314 892 371 940 q 222 776 257 844 q 188 622 188 707 q 190 572 188 586 q 201 546 193 557 q 108 572 142 546 q 75 663 75 599 q 122 803 75 735 q 245 925 168 872 q 422 1010 322 978 q 628 1042 522 1042 q 785 1016 721 1042 q 890 943 850 990 q 947 831 929 896 q 964 690 964 767 q 951 544 964 622 q 912 388 939 465 q 844 239 885 311 q 747 112 803 167 q 617 24 690 57 q 456 -8 544 -8 q 352 7 399 -8 q 272 56 306 22 q 221 142 239 89 q 203 271 203 194 q 213 397 203 326 q 244 540 224 467 q 297 681 265 613 q 370 803 328 750 q 465 890 413 857 q 581 922 517 922 q 614 920 596 922 q 651 911 632 918 m 856 1126 l 765 1267 l 540 1126 l 493 1126 l 772 1358 l 801 1358 l 886 1126 l 856 1126 z "},"Ö":{"ha":968,"x_min":75,"x_max":964,"o":"m 651 911 q 580 851 615 892 q 513 757 544 811 q 456 640 482 703 q 410 511 429 576 q 380 382 390 446 q 369 265 369 318 q 397 142 369 186 q 492 97 424 97 q 605 156 549 97 q 706 307 661 214 q 779 516 751 400 q 807 749 807 632 q 797 859 807 813 q 762 935 786 906 q 697 978 738 964 q 594 992 656 992 q 444 966 517 992 q 314 892 371 940 q 222 776 257 844 q 188 622 188 707 q 190 572 188 586 q 201 546 193 557 q 108 572 142 546 q 75 663 75 599 q 122 803 75 735 q 245 925 168 872 q 422 1010 322 978 q 628 1042 522 1042 q 785 1016 721 1042 q 890 943 850 990 q 947 831 929 896 q 964 690 964 767 q 951 544 964 622 q 912 388 939 465 q 844 239 885 311 q 747 112 803 167 q 617 24 690 57 q 456 -8 544 -8 q 352 7 399 -8 q 272 56 306 22 q 221 142 239 89 q 203 271 203 194 q 213 397 203 326 q 244 540 224 467 q 297 681 265 613 q 370 803 328 750 q 465 890 413 857 q 581 922 517 922 q 614 920 596 922 q 651 911 632 918 m 563 1239 q 583 1291 563 1269 q 635 1313 604 1313 q 687 1291 665 1313 q 708 1239 708 1269 q 687 1188 708 1208 q 635 1167 665 1167 q 583 1188 604 1167 q 563 1239 563 1208 m 790 1239 q 811 1291 790 1269 q 863 1313 832 1313 q 915 1291 893 1313 q 936 1239 936 1269 q 915 1188 936 1208 q 863 1167 893 1167 q 811 1188 832 1167 q 790 1239 790 1208 z "},"Ò":{"ha":968,"x_min":75,"x_max":964,"o":"m 651 911 q 580 851 615 892 q 513 757 544 811 q 456 640 482 703 q 410 511 429 576 q 380 382 390 446 q 369 265 369 318 q 397 142 369 186 q 492 97 424 97 q 605 156 549 97 q 706 307 661 214 q 779 516 751 400 q 807 749 807 632 q 797 859 807 813 q 762 935 786 906 q 697 978 738 964 q 594 992 656 992 q 444 966 517 992 q 314 892 371 940 q 222 776 257 844 q 188 622 188 707 q 190 572 188 586 q 201 546 193 557 q 108 572 142 546 q 75 663 75 599 q 122 803 75 735 q 245 925 168 872 q 422 1010 322 978 q 628 1042 522 1042 q 785 1016 721 1042 q 890 943 850 990 q 947 831 929 896 q 964 690 964 767 q 951 544 964 622 q 912 388 939 465 q 844 239 885 311 q 747 112 803 167 q 617 24 690 57 q 456 -8 544 -8 q 352 7 399 -8 q 272 56 306 22 q 221 142 239 89 q 203 271 203 194 q 213 397 203 326 q 244 540 224 467 q 297 681 265 613 q 370 803 328 750 q 465 890 413 857 q 581 922 517 922 q 614 920 596 922 q 651 911 632 918 m 690 1126 l 614 1126 l 529 1389 l 647 1389 l 690 1126 z "},"Ő":{"ha":968,"x_min":75,"x_max":1025,"o":"m 651 911 q 580 851 615 892 q 513 757 544 811 q 456 640 482 703 q 410 511 429 576 q 380 382 390 446 q 369 265 369 318 q 397 142 369 186 q 492 97 424 97 q 605 156 549 97 q 706 307 661 214 q 779 516 751 400 q 807 749 807 632 q 797 859 807 813 q 762 935 786 906 q 697 978 738 964 q 594 992 656 992 q 444 966 517 992 q 314 892 371 940 q 222 776 257 844 q 188 622 188 707 q 190 572 188 586 q 201 546 193 557 q 108 572 142 546 q 75 663 75 599 q 122 803 75 735 q 245 925 168 872 q 422 1010 322 978 q 628 1042 522 1042 q 785 1016 721 1042 q 890 943 850 990 q 947 831 929 896 q 964 690 964 767 q 951 544 964 622 q 912 388 939 465 q 844 239 885 311 q 747 112 803 167 q 617 24 690 57 q 456 -8 544 -8 q 352 7 399 -8 q 272 56 306 22 q 221 142 239 89 q 203 271 203 194 q 213 397 203 326 q 244 540 224 467 q 297 681 265 613 q 370 803 328 750 q 465 890 413 857 q 581 922 517 922 q 614 920 596 922 q 651 911 632 918 m 726 1389 l 844 1389 l 676 1126 l 600 1126 l 726 1389 m 907 1389 l 1025 1389 l 857 1126 l 781 1126 l 907 1389 z "},"Ø":{"ha":953,"x_min":72,"x_max":961,"o":"m 428 -99 l 447 -8 q 346 8 392 -7 q 268 57 300 24 q 218 143 236 90 q 200 271 200 196 q 210 397 200 326 q 242 540 221 467 q 294 681 263 613 q 367 803 325 750 q 462 890 410 857 q 578 922 514 922 q 608 920 592 922 q 642 913 625 918 l 657 986 q 592 992 631 992 q 441 966 514 992 q 311 892 368 940 q 219 776 254 844 q 185 622 185 707 q 188 572 185 586 q 199 546 190 557 q 106 572 139 546 q 72 663 72 599 q 119 803 72 735 q 242 925 165 872 q 419 1010 319 978 q 625 1042 519 1042 q 647 1042 636 1042 q 669 1040 658 1042 l 669 1046 l 714 1046 l 713 1035 q 828 992 781 1022 q 905 917 875 963 q 948 815 935 872 q 961 690 961 757 q 949 550 961 625 q 913 400 938 475 q 850 255 888 325 q 760 129 813 185 q 640 38 707 74 q 492 -6 574 1 l 472 -99 l 428 -99 m 804 749 q 781 898 804 843 q 700 975 758 953 l 514 100 q 620 176 568 114 q 713 328 672 238 q 779 528 754 418 q 804 749 804 639 m 367 265 q 389 148 367 190 q 469 99 411 106 l 640 907 q 570 844 604 886 q 506 749 536 803 q 449 633 475 696 q 406 506 424 571 q 377 380 388 442 q 367 265 367 318 z "},"Õ":{"ha":968,"x_min":75,"x_max":985,"o":"m 651 911 q 580 851 615 892 q 513 757 544 811 q 456 640 482 703 q 410 511 429 576 q 380 382 390 446 q 369 265 369 318 q 397 142 369 186 q 492 97 424 97 q 605 156 549 97 q 706 307 661 214 q 779 516 751 400 q 807 749 807 632 q 797 859 807 813 q 762 935 786 906 q 697 978 738 964 q 594 992 656 992 q 444 966 517 992 q 314 892 371 940 q 222 776 257 844 q 188 622 188 707 q 190 572 188 586 q 201 546 193 557 q 108 572 142 546 q 75 663 75 599 q 122 803 75 735 q 245 925 168 872 q 422 1010 322 978 q 628 1042 522 1042 q 785 1016 721 1042 q 890 943 850 990 q 947 831 929 896 q 964 690 964 767 q 951 544 964 622 q 912 388 939 465 q 844 239 885 311 q 747 112 803 167 q 617 24 690 57 q 456 -8 544 -8 q 352 7 399 -8 q 272 56 306 22 q 221 142 239 89 q 203 271 203 194 q 213 397 203 326 q 244 540 224 467 q 297 681 265 613 q 370 803 328 750 q 465 890 413 857 q 581 922 517 922 q 614 920 596 922 q 651 911 632 918 m 985 1271 q 960 1226 979 1249 q 914 1186 942 1204 q 852 1157 886 1168 q 783 1146 818 1146 q 726 1153 753 1146 q 674 1169 699 1160 q 624 1185 649 1178 q 574 1192 599 1192 q 490 1158 525 1192 l 483 1161 q 567 1253 514 1222 q 692 1283 621 1283 q 753 1277 726 1283 q 803 1263 779 1271 q 849 1249 826 1256 q 899 1243 871 1243 q 943 1250 922 1243 q 978 1271 964 1257 l 985 1271 z "},"P":{"ha":835,"x_min":78,"x_max":893,"o":"m 571 911 l 469 439 q 600 474 544 440 q 693 558 656 507 q 749 672 731 610 q 767 794 767 735 q 757 869 767 833 q 722 933 747 906 q 653 976 696 960 q 543 992 610 992 q 407 969 472 992 q 292 901 342 946 q 213 792 243 857 q 183 643 183 728 q 194 575 183 597 q 213 546 206 553 q 114 574 150 546 q 78 674 78 603 q 121 814 78 747 q 234 931 164 881 q 394 1012 304 982 q 575 1042 483 1042 q 715 1019 656 1042 q 815 958 775 996 q 874 871 854 921 q 893 767 893 821 q 865 635 893 701 q 786 516 838 569 q 660 429 735 463 q 492 396 585 396 l 461 396 l 376 0 l 224 0 l 415 890 l 571 911 z "},"Q":{"ha":990,"x_min":75,"x_max":961,"o":"m 651 911 q 580 851 615 892 q 513 757 544 811 q 456 640 482 703 q 410 511 429 576 q 380 383 390 446 q 369 269 369 321 q 371 228 369 247 q 376 192 372 208 q 436 205 408 201 q 483 208 464 208 q 554 195 524 208 q 608 161 585 182 q 687 269 650 204 q 750 411 724 333 q 792 574 776 489 q 807 746 807 660 q 797 858 807 811 q 763 934 786 904 q 699 978 739 964 q 600 992 658 992 q 446 967 521 992 q 314 894 371 942 q 222 775 257 846 q 188 611 188 704 q 190 572 188 589 q 201 546 193 556 q 109 572 143 546 q 75 661 75 599 q 122 803 75 735 q 245 925 168 872 q 421 1010 322 978 q 622 1042 519 1042 q 782 1015 717 1042 q 887 940 847 988 q 944 828 926 892 q 961 692 961 764 q 944 529 961 617 q 892 357 926 442 q 806 197 858 272 q 685 71 754 122 q 719 28 701 49 q 759 -7 738 8 q 808 -31 781 -22 q 869 -40 835 -40 q 888 -40 881 -40 q 903 -37 894 -39 q 851 -106 881 -86 q 778 -126 822 -126 q 710 -113 738 -126 q 663 -79 682 -100 q 629 -32 643 -58 q 603 22 615 -6 q 529 -1 567 7 q 450 -8 492 -8 q 351 7 396 -8 q 272 56 306 22 q 221 142 239 89 q 203 271 203 194 q 213 397 203 326 q 244 540 224 467 q 297 681 265 613 q 370 803 328 750 q 465 890 413 857 q 581 922 517 922 q 614 920 596 922 q 651 911 632 918 m 463 167 q 429 163 447 167 q 392 151 411 160 q 479 97 419 97 q 553 118 517 97 q 516 153 538 140 q 463 167 494 167 z "},"R":{"ha":910,"x_min":78,"x_max":881,"o":"m 571 911 l 501 588 l 538 588 q 627 610 586 588 q 699 669 668 633 q 746 750 729 706 q 763 836 763 794 q 753 894 763 867 q 720 944 743 922 q 658 978 697 965 q 560 992 619 992 q 418 967 485 992 q 301 898 351 943 q 222 788 251 853 q 193 640 193 722 q 198 574 193 592 q 210 546 203 556 q 161 553 185 546 q 119 575 138 560 q 89 615 100 590 q 78 674 78 639 q 119 812 78 746 q 231 929 161 878 q 392 1011 301 981 q 578 1042 482 1042 q 708 1024 651 1042 q 803 975 765 1006 q 861 903 842 944 q 881 818 881 863 q 840 688 881 753 q 721 583 799 624 q 804 532 782 569 q 826 442 826 494 q 816 352 826 400 q 792 258 806 304 q 769 169 779 211 q 758 94 758 126 q 773 35 758 60 q 813 0 788 10 q 741 -18 768 -12 q 689 -24 714 -24 q 613 6 636 -24 q 590 67 590 35 q 603 149 590 103 q 631 245 615 196 q 658 342 646 294 q 671 426 671 389 q 642 515 671 492 q 569 539 614 539 q 531 536 554 539 q 489 529 507 533 l 376 0 l 224 0 l 415 890 l 571 911 z "},"S":{"ha":689,"x_min":-1,"x_max":703,"o":"m 703 878 q 671 774 703 814 q 593 735 639 735 q 562 742 574 735 q 539 764 550 749 q 585 815 567 781 q 603 886 603 849 q 597 925 603 906 q 578 959 592 944 q 543 983 565 974 q 488 992 521 992 q 365 955 411 992 q 318 847 318 918 q 341 757 318 794 q 399 686 364 719 q 474 619 433 653 q 550 544 515 586 q 608 446 585 501 q 631 311 631 390 q 603 163 631 226 q 527 58 575 100 q 416 -4 479 17 q 283 -25 353 -25 q 178 -12 229 -25 q 88 28 128 0 q 23 101 47 57 q -1 208 -1 146 q 17 308 -1 265 q 65 380 36 351 q 129 423 94 408 q 196 438 164 438 q 260 417 232 438 q 297 346 289 396 q 239 338 268 346 q 186 315 210 331 q 147 272 163 299 q 132 208 132 246 q 144 149 132 175 q 175 105 156 122 q 220 78 194 88 q 274 68 246 68 q 340 80 307 68 q 398 117 372 92 q 440 179 424 142 q 457 267 457 217 q 436 374 457 326 q 383 463 415 422 q 315 542 351 504 q 246 619 278 581 q 193 699 214 657 q 172 793 172 742 q 197 893 172 847 q 265 972 222 939 q 366 1023 308 1004 q 490 1042 424 1042 q 550 1037 514 1042 q 620 1015 586 1032 q 678 966 654 999 q 703 878 703 933 z "},"Ś":{"ha":689,"x_min":-1,"x_max":760,"o":"m 703 878 q 671 774 703 814 q 593 735 639 735 q 562 742 574 735 q 539 764 550 749 q 585 815 567 781 q 603 886 603 849 q 597 925 603 906 q 578 959 592 944 q 543 983 565 974 q 488 992 521 992 q 365 955 411 992 q 318 847 318 918 q 341 757 318 794 q 399 686 364 719 q 474 619 433 653 q 550 544 515 586 q 608 446 585 501 q 631 311 631 390 q 603 163 631 226 q 527 58 575 100 q 416 -4 479 17 q 283 -25 353 -25 q 178 -12 229 -25 q 88 28 128 0 q 23 101 47 57 q -1 208 -1 146 q 17 308 -1 265 q 65 380 36 351 q 129 423 94 408 q 196 438 164 438 q 260 417 232 438 q 297 346 289 396 q 239 338 268 346 q 186 315 210 331 q 147 272 163 299 q 132 208 132 246 q 144 149 132 175 q 175 105 156 122 q 220 78 194 88 q 274 68 246 68 q 340 80 307 68 q 398 117 372 92 q 440 179 424 142 q 457 267 457 217 q 436 374 457 326 q 383 463 415 422 q 315 542 351 504 q 246 619 278 581 q 193 699 214 657 q 172 793 172 742 q 197 893 172 847 q 265 972 222 939 q 366 1023 308 1004 q 490 1042 424 1042 q 550 1037 514 1042 q 620 1015 586 1032 q 678 966 654 999 q 703 878 703 933 m 642 1389 l 760 1389 l 592 1126 l 515 1126 l 642 1389 z "},"Š":{"ha":689,"x_min":-1,"x_max":818,"o":"m 703 878 q 671 774 703 814 q 593 735 639 735 q 562 742 574 735 q 539 764 550 749 q 585 815 567 781 q 603 886 603 849 q 597 925 603 906 q 578 959 592 944 q 543 983 565 974 q 488 992 521 992 q 365 955 411 992 q 318 847 318 918 q 341 757 318 794 q 399 686 364 719 q 474 619 433 653 q 550 544 515 586 q 608 446 585 501 q 631 311 631 390 q 603 163 631 226 q 527 58 575 100 q 416 -4 479 17 q 283 -25 353 -25 q 178 -12 229 -25 q 88 28 128 0 q 23 101 47 57 q -1 208 -1 146 q 17 308 -1 265 q 65 380 36 351 q 129 423 94 408 q 196 438 164 438 q 260 417 232 438 q 297 346 289 396 q 239 338 268 346 q 186 315 210 331 q 147 272 163 299 q 132 208 132 246 q 144 149 132 175 q 175 105 156 122 q 220 78 194 88 q 274 68 246 68 q 340 80 307 68 q 398 117 372 92 q 440 179 424 142 q 457 267 457 217 q 436 374 457 326 q 383 463 415 422 q 315 542 351 504 q 246 619 278 581 q 193 699 214 657 q 172 793 172 742 q 197 893 172 847 q 265 972 222 939 q 366 1023 308 1004 q 490 1042 424 1042 q 550 1037 514 1042 q 620 1015 586 1032 q 678 966 654 999 q 703 878 703 933 m 456 1378 l 546 1238 l 771 1378 l 818 1378 l 539 1146 l 510 1146 l 425 1378 l 456 1378 z "},"T":{"ha":932,"x_min":86,"x_max":1076,"o":"m 899 875 q 793 885 849 875 q 678 907 738 896 l 485 0 l 332 0 l 532 931 q 505 933 518 932 q 478 933 492 933 q 353 920 408 933 q 261 876 299 907 q 204 792 224 844 q 185 661 185 740 q 194 583 185 608 q 213 544 203 558 q 162 551 185 544 q 122 575 139 558 q 96 619 106 592 q 86 688 86 647 q 112 817 86 754 q 195 930 138 881 q 344 1010 253 979 q 567 1040 435 1040 q 666 1035 622 1040 q 749 1024 710 1031 q 826 1013 789 1018 q 907 1008 864 1008 q 1007 1017 965 1008 q 1076 1038 1049 1026 q 1030 915 1074 954 q 899 875 986 875 z "},"Þ":{"ha":835,"x_min":47,"x_max":860,"o":"m 579 1040 l 547 889 q 685 865 626 888 q 782 804 743 842 q 840 717 821 767 q 860 614 860 668 q 832 483 860 549 q 753 363 804 417 q 626 276 701 310 q 458 243 551 243 q 439 243 456 243 q 408 244 422 243 l 357 0 l 204 0 l 381 821 q 210 704 274 789 q 146 490 146 619 q 149 448 146 464 q 154 422 151 432 q 160 407 157 413 q 165 397 164 401 q 78 428 108 397 q 47 521 47 458 q 74 635 47 581 q 149 735 101 689 q 258 815 196 781 q 390 868 321 849 l 424 1019 l 579 1040 m 747 640 q 737 713 747 678 q 702 774 726 747 q 638 818 678 801 q 536 838 597 835 l 417 285 l 449 285 q 567 317 513 285 q 662 401 622 350 q 724 516 701 453 q 747 640 747 579 z "},"U":{"ha":1069,"x_min":76,"x_max":1133,"o":"m 1133 1039 l 1042 606 q 973 331 1008 447 q 885 140 938 215 q 754 27 832 64 q 560 -10 676 -10 q 433 5 485 -10 q 351 49 382 19 q 306 119 319 78 q 292 215 292 161 q 326 458 292 315 q 406 778 361 600 l 456 982 q 251 867 326 957 q 176 643 176 778 q 185 574 176 592 q 197 547 193 557 q 113 578 149 547 q 76 674 76 610 q 120 814 76 747 q 235 931 164 881 q 394 1012 306 982 q 574 1042 483 1042 q 605 1040 592 1042 q 640 1035 618 1039 q 556 727 592 856 q 498 508 521 599 q 464 356 475 417 q 453 249 453 294 q 457 185 453 213 q 474 138 461 157 q 512 108 488 118 q 576 97 536 97 q 640 103 610 97 q 696 129 669 110 q 747 183 722 149 q 794 275 771 218 q 842 414 818 332 q 890 610 865 496 l 983 1039 l 1133 1039 z "},"Ú":{"ha":1069,"x_min":76,"x_max":1133,"o":"m 1133 1039 l 1042 606 q 973 331 1008 447 q 885 140 938 215 q 754 27 832 64 q 560 -10 676 -10 q 433 5 485 -10 q 351 49 382 19 q 306 119 319 78 q 292 215 292 161 q 326 458 292 315 q 406 778 361 600 l 456 982 q 251 867 326 957 q 176 643 176 778 q 185 574 176 592 q 197 547 193 557 q 113 578 149 547 q 76 674 76 610 q 120 814 76 747 q 235 931 164 881 q 394 1012 306 982 q 574 1042 483 1042 q 605 1040 592 1042 q 640 1035 618 1039 q 556 727 592 856 q 498 508 521 599 q 464 356 475 417 q 453 249 453 294 q 457 185 453 213 q 474 138 461 157 q 512 108 488 118 q 576 97 536 97 q 640 103 610 97 q 696 129 669 110 q 747 183 722 149 q 794 275 771 218 q 842 414 818 332 q 890 610 865 496 l 983 1039 l 1133 1039 m 900 1389 l 1018 1389 l 850 1126 l 774 1126 l 900 1389 z "},"Û":{"ha":1069,"x_min":76,"x_max":1133,"o":"m 1133 1039 l 1042 606 q 973 331 1008 447 q 885 140 938 215 q 754 27 832 64 q 560 -10 676 -10 q 433 5 485 -10 q 351 49 382 19 q 306 119 319 78 q 292 215 292 161 q 326 458 292 315 q 406 778 361 600 l 456 982 q 251 867 326 957 q 176 643 176 778 q 185 574 176 592 q 197 547 193 557 q 113 578 149 547 q 76 674 76 610 q 120 814 76 747 q 235 931 164 881 q 394 1012 306 982 q 574 1042 483 1042 q 605 1040 592 1042 q 640 1035 618 1039 q 556 727 592 856 q 498 508 521 599 q 464 356 475 417 q 453 249 453 294 q 457 185 453 213 q 474 138 461 157 q 512 108 488 118 q 576 97 536 97 q 640 103 610 97 q 696 129 669 110 q 747 183 722 149 q 794 275 771 218 q 842 414 818 332 q 890 610 865 496 l 983 1039 l 1133 1039 m 993 1126 l 903 1267 l 678 1126 l 631 1126 l 910 1358 l 939 1358 l 1024 1126 l 993 1126 z "},"Ü":{"ha":1069,"x_min":76,"x_max":1133,"o":"m 1133 1039 l 1042 606 q 973 331 1008 447 q 885 140 938 215 q 754 27 832 64 q 560 -10 676 -10 q 433 5 485 -10 q 351 49 382 19 q 306 119 319 78 q 292 215 292 161 q 326 458 292 315 q 406 778 361 600 l 456 982 q 251 867 326 957 q 176 643 176 778 q 185 574 176 592 q 197 547 193 557 q 113 578 149 547 q 76 674 76 610 q 120 814 76 747 q 235 931 164 881 q 394 1012 306 982 q 574 1042 483 1042 q 605 1040 592 1042 q 640 1035 618 1039 q 556 727 592 856 q 498 508 521 599 q 464 356 475 417 q 453 249 453 294 q 457 185 453 213 q 474 138 461 157 q 512 108 488 118 q 576 97 536 97 q 640 103 610 97 q 696 129 669 110 q 747 183 722 149 q 794 275 771 218 q 842 414 818 332 q 890 610 865 496 l 983 1039 l 1133 1039 m 914 1239 q 935 1291 914 1269 q 986 1313 956 1313 q 1038 1291 1017 1313 q 1060 1239 1060 1269 q 1038 1188 1060 1208 q 986 1167 1017 1167 q 935 1188 956 1167 q 914 1239 914 1208 m 686 1239 q 707 1291 686 1269 q 758 1313 728 1313 q 810 1291 789 1313 q 832 1239 832 1269 q 810 1188 832 1208 q 758 1167 789 1167 q 707 1188 728 1167 q 686 1239 686 1208 z "},"Ù":{"ha":1069,"x_min":76,"x_max":1133,"o":"m 1133 1039 l 1042 606 q 973 331 1008 447 q 885 140 938 215 q 754 27 832 64 q 560 -10 676 -10 q 433 5 485 -10 q 351 49 382 19 q 306 119 319 78 q 292 215 292 161 q 326 458 292 315 q 406 778 361 600 l 456 982 q 251 867 326 957 q 176 643 176 778 q 185 574 176 592 q 197 547 193 557 q 113 578 149 547 q 76 674 76 610 q 120 814 76 747 q 235 931 164 881 q 394 1012 306 982 q 574 1042 483 1042 q 605 1040 592 1042 q 640 1035 618 1039 q 556 727 592 856 q 498 508 521 599 q 464 356 475 417 q 453 249 453 294 q 457 185 453 213 q 474 138 461 157 q 512 108 488 118 q 576 97 536 97 q 640 103 610 97 q 696 129 669 110 q 747 183 722 149 q 794 275 771 218 q 842 414 818 332 q 890 610 865 496 l 983 1039 l 1133 1039 m 858 1126 l 782 1126 l 697 1389 l 815 1389 l 858 1126 z "},"Ű":{"ha":1069,"x_min":76,"x_max":1133,"o":"m 1133 1039 l 1042 606 q 973 331 1008 447 q 885 140 938 215 q 754 27 832 64 q 560 -10 676 -10 q 433 5 485 -10 q 351 49 382 19 q 306 119 319 78 q 292 215 292 161 q 326 458 292 315 q 406 778 361 600 l 456 982 q 251 867 326 957 q 176 643 176 778 q 185 574 176 592 q 197 547 193 557 q 113 578 149 547 q 76 674 76 610 q 120 814 76 747 q 235 931 164 881 q 394 1012 306 982 q 574 1042 483 1042 q 605 1040 592 1042 q 640 1035 618 1039 q 556 727 592 856 q 498 508 521 599 q 464 356 475 417 q 453 249 453 294 q 457 185 453 213 q 474 138 461 157 q 512 108 488 118 q 576 97 536 97 q 640 103 610 97 q 696 129 669 110 q 747 183 722 149 q 794 275 771 218 q 842 414 818 332 q 890 610 865 496 l 983 1039 l 1133 1039 m 1007 1389 l 1125 1389 l 957 1126 l 881 1126 l 1007 1389 m 826 1389 l 944 1389 l 776 1126 l 700 1126 l 826 1389 z "},"V":{"ha":917,"x_min":82,"x_max":1026,"o":"m 593 111 l 947 1035 l 1026 1035 l 608 0 l 454 0 l 417 963 q 306 937 351 963 q 231 869 260 911 q 188 776 201 828 q 174 674 174 725 q 203 547 174 601 q 158 553 179 547 q 119 573 136 558 q 92 612 103 588 q 82 674 82 636 q 113 814 82 747 q 199 931 143 881 q 335 1012 256 982 q 511 1042 414 1042 q 541 1040 526 1042 q 569 1036 556 1039 l 593 111 z "},"W":{"ha":1397,"x_min":82,"x_max":1507,"o":"m 593 111 l 947 1035 l 1050 1035 l 1074 111 l 1428 1035 l 1507 1035 l 1089 0 l 935 0 l 908 742 l 608 0 l 454 0 l 417 963 q 306 937 351 963 q 231 869 260 911 q 188 776 201 828 q 174 674 174 725 q 203 547 174 601 q 158 553 179 547 q 119 573 136 558 q 92 612 103 588 q 82 674 82 636 q 113 814 82 747 q 199 931 143 881 q 335 1012 256 982 q 511 1042 414 1042 q 541 1040 526 1042 q 569 1036 556 1039 l 593 111 z "},"X":{"ha":879,"x_min":83,"x_max":963,"o":"m 658 0 l 551 425 l 329 0 l 264 0 l 531 507 l 410 992 q 319 947 361 979 q 245 871 276 915 q 196 772 214 826 q 178 661 178 718 q 185 590 178 611 q 200 560 193 569 q 115 582 147 560 q 83 674 83 604 q 119 824 83 756 q 215 940 156 892 q 348 1016 274 989 q 499 1043 422 1043 q 556 1039 528 1043 l 671 565 l 897 1035 l 963 1035 l 690 483 l 808 0 l 658 0 z "},"Y":{"ha":853,"x_min":82,"x_max":972,"o":"m 460 0 l 551 428 l 407 992 q 299 942 344 975 q 226 865 254 908 q 183 773 197 822 q 169 678 169 724 q 203 546 169 597 q 114 574 146 546 q 82 674 82 603 q 115 814 82 747 q 203 931 147 881 q 335 1012 260 982 q 497 1042 411 1042 q 526 1041 513 1042 q 554 1039 540 1040 l 685 499 l 908 1035 l 972 1035 l 703 428 l 611 0 l 460 0 z "},"Ý":{"ha":853,"x_min":82,"x_max":1006,"o":"m 460 0 l 551 428 l 407 992 q 299 942 344 975 q 226 865 254 908 q 183 773 197 822 q 169 678 169 724 q 203 546 169 597 q 114 574 146 546 q 82 674 82 603 q 115 814 82 747 q 203 931 147 881 q 335 1012 260 982 q 497 1042 411 1042 q 526 1041 513 1042 q 554 1039 540 1040 l 685 499 l 908 1035 l 972 1035 l 703 428 l 611 0 l 460 0 m 888 1389 l 1006 1389 l 838 1126 l 761 1126 l 888 1389 z "},"Ÿ":{"ha":853,"x_min":82,"x_max":972,"o":"m 460 0 l 551 428 l 407 992 q 299 942 344 975 q 226 865 254 908 q 183 773 197 822 q 169 678 169 724 q 203 546 169 597 q 114 574 146 546 q 82 674 82 603 q 115 814 82 747 q 203 931 147 881 q 335 1012 260 982 q 497 1042 411 1042 q 526 1041 513 1042 q 554 1039 540 1040 l 685 499 l 908 1035 l 972 1035 l 703 428 l 611 0 l 460 0 m 794 1239 q 815 1291 794 1269 q 867 1313 836 1313 q 919 1291 897 1313 q 940 1239 940 1269 q 919 1188 940 1208 q 867 1167 897 1167 q 815 1188 836 1167 q 794 1239 794 1208 m 567 1239 q 588 1291 567 1269 q 639 1313 608 1313 q 691 1291 669 1313 q 713 1239 713 1269 q 691 1188 713 1208 q 639 1167 669 1167 q 588 1188 608 1167 q 567 1239 567 1208 z "},"Z":{"ha":733,"x_min":6,"x_max":696,"o":"m 556 99 q 538 122 543 108 q 532 144 532 135 q 555 194 532 176 q 610 213 578 213 q 660 195 636 213 q 685 146 685 178 q 672 94 685 121 q 634 47 658 68 q 577 13 610 26 q 507 0 544 0 l 6 0 l 497 979 q 445 983 482 981 q 368 986 408 986 q 287 981 324 986 q 244 958 250 975 q 267 913 267 940 q 246 865 267 886 q 193 843 225 843 q 141 865 165 843 q 117 928 117 886 q 130 969 117 949 q 166 1006 143 990 q 221 1032 189 1022 q 292 1042 253 1042 l 696 1042 l 208 74 q 290 72 240 74 q 390 69 339 69 q 447 71 419 69 q 496 75 474 72 q 534 84 518 78 q 556 99 550 90 z "},"Ź":{"ha":733,"x_min":6,"x_max":740,"o":"m 556 99 q 538 122 543 108 q 532 144 532 135 q 555 194 532 176 q 610 213 578 213 q 660 195 636 213 q 685 146 685 178 q 672 94 685 121 q 634 47 658 68 q 577 13 610 26 q 507 0 544 0 l 6 0 l 497 979 q 445 983 482 981 q 368 986 408 986 q 287 981 324 986 q 244 958 250 975 q 267 913 267 940 q 246 865 267 886 q 193 843 225 843 q 141 865 165 843 q 117 928 117 886 q 130 969 117 949 q 166 1006 143 990 q 221 1032 189 1022 q 292 1042 253 1042 l 696 1042 l 208 74 q 290 72 240 74 q 390 69 339 69 q 447 71 419 69 q 496 75 474 72 q 534 84 518 78 q 556 99 550 90 m 622 1389 l 740 1389 l 572 1126 l 496 1126 l 622 1389 z "},"Ž":{"ha":733,"x_min":6,"x_max":851,"o":"m 556 99 q 538 122 543 108 q 532 144 532 135 q 555 194 532 176 q 610 213 578 213 q 660 195 636 213 q 685 146 685 178 q 672 94 685 121 q 634 47 658 68 q 577 13 610 26 q 507 0 544 0 l 6 0 l 497 979 q 445 983 482 981 q 368 986 408 986 q 287 981 324 986 q 244 958 250 975 q 267 913 267 940 q 246 865 267 886 q 193 843 225 843 q 141 865 165 843 q 117 928 117 886 q 130 969 117 949 q 166 1006 143 990 q 221 1032 189 1022 q 292 1042 253 1042 l 696 1042 l 208 74 q 290 72 240 74 q 390 69 339 69 q 447 71 419 69 q 496 75 474 72 q 534 84 518 78 q 556 99 550 90 m 489 1378 l 579 1238 l 804 1378 l 851 1378 l 572 1146 l 543 1146 l 458 1378 l 489 1378 z "},"Ż":{"ha":733,"x_min":6,"x_max":696,"o":"m 597 1228 q 572 1167 597 1192 q 513 1143 547 1143 q 452 1167 476 1143 q 428 1228 428 1192 q 452 1288 428 1263 q 513 1313 476 1313 q 572 1288 547 1313 q 597 1228 597 1263 m 556 99 q 538 122 543 108 q 532 144 532 135 q 555 194 532 176 q 610 213 578 213 q 660 195 636 213 q 685 146 685 178 q 672 94 685 121 q 634 47 658 68 q 577 13 610 26 q 507 0 544 0 l 6 0 l 497 979 q 445 983 482 981 q 368 986 408 986 q 287 981 324 986 q 244 958 250 975 q 267 913 267 940 q 246 865 267 886 q 193 843 225 843 q 141 865 165 843 q 117 928 117 886 q 130 969 117 949 q 166 1006 143 990 q 221 1032 189 1022 q 292 1042 253 1042 l 696 1042 l 208 74 q 290 72 240 74 q 390 69 339 69 q 447 71 419 69 q 496 75 474 72 q 534 84 518 78 q 556 99 550 90 z "},"a":{"ha":674,"x_min":7,"x_max":749,"o":"m 631 694 l 529 222 q 522 160 522 194 q 531 117 522 136 q 565 97 539 97 q 633 138 599 97 q 697 249 667 178 l 749 249 q 682 110 715 161 q 617 33 649 60 q 558 -1 586 7 q 507 -8 529 -8 q 431 24 461 -8 q 396 128 401 56 q 308 31 364 71 q 185 -8 251 -8 q 119 3 151 -8 q 63 42 88 15 q 22 112 38 69 q 7 215 7 154 q 17 317 7 263 q 47 425 28 371 q 97 529 67 479 q 167 617 128 579 q 255 678 206 656 q 363 701 304 701 q 431 686 396 701 q 476 628 465 671 l 490 694 l 631 694 m 243 97 q 289 109 265 97 q 334 141 313 121 q 372 189 356 161 q 396 249 389 217 l 463 564 q 442 606 458 588 q 393 625 425 625 q 292 583 336 625 q 217 482 247 542 q 171 354 186 422 q 156 235 156 286 q 179 126 156 156 q 243 97 203 97 z "},"á":{"ha":674,"x_min":7,"x_max":749,"o":"m 631 694 l 529 222 q 522 160 522 194 q 531 117 522 136 q 565 97 539 97 q 633 138 599 97 q 697 249 667 178 l 749 249 q 682 110 715 161 q 617 33 649 60 q 558 -1 586 7 q 507 -8 529 -8 q 431 24 461 -8 q 396 128 401 56 q 308 31 364 71 q 185 -8 251 -8 q 119 3 151 -8 q 63 42 88 15 q 22 112 38 69 q 7 215 7 154 q 17 317 7 263 q 47 425 28 371 q 97 529 67 479 q 167 617 128 579 q 255 678 206 656 q 363 701 304 701 q 431 686 396 701 q 476 628 465 671 l 490 694 l 631 694 m 243 97 q 288 109 264 97 q 334 141 313 121 q 372 189 356 161 q 396 249 389 217 l 463 564 q 442 606 458 588 q 393 625 425 625 q 292 583 336 625 q 217 482 247 542 q 171 354 186 422 q 156 235 156 286 q 179 126 156 156 q 243 97 203 97 m 478 1042 l 596 1042 l 428 779 l 351 779 l 478 1042 z "},"â":{"ha":674,"x_min":7,"x_max":749,"o":"m 631 694 l 529 222 q 522 160 522 194 q 531 117 522 136 q 565 97 539 97 q 633 138 599 97 q 697 249 667 178 l 749 249 q 682 110 715 161 q 617 33 649 60 q 558 -1 586 7 q 507 -8 529 -8 q 431 24 461 -8 q 396 128 401 56 q 308 31 364 71 q 185 -8 251 -8 q 119 3 151 -8 q 63 42 88 15 q 22 112 38 69 q 7 215 7 154 q 17 317 7 263 q 47 425 28 371 q 97 529 67 479 q 167 617 128 579 q 255 678 206 656 q 363 701 304 701 q 431 686 396 701 q 476 628 465 671 l 490 694 l 631 694 m 243 97 q 288 109 264 97 q 334 141 313 121 q 372 189 356 161 q 396 249 389 217 l 463 564 q 442 606 458 588 q 393 625 425 625 q 292 583 336 625 q 217 482 247 542 q 171 354 186 422 q 156 235 156 286 q 179 126 156 156 q 243 97 203 97 m 568 779 l 478 919 l 253 779 l 206 779 l 485 1011 l 514 1011 l 599 779 l 568 779 z "},"´":{"ha":399,"x_min":154,"x_max":399,"o":"m 281 1042 l 399 1042 l 231 779 l 154 779 l 281 1042 z "},"ä":{"ha":674,"x_min":7,"x_max":749,"o":"m 631 694 l 529 222 q 522 160 522 194 q 531 117 522 136 q 565 97 539 97 q 633 138 599 97 q 697 249 667 178 l 749 249 q 682 110 715 161 q 617 33 649 60 q 558 -1 586 7 q 507 -8 529 -8 q 431 24 461 -8 q 396 128 401 56 q 308 31 364 71 q 185 -8 251 -8 q 119 3 151 -8 q 63 42 88 15 q 22 112 38 69 q 7 215 7 154 q 17 317 7 263 q 47 425 28 371 q 97 529 67 479 q 167 617 128 579 q 255 678 206 656 q 363 701 304 701 q 431 686 396 701 q 476 628 465 671 l 490 694 l 631 694 m 243 97 q 289 109 265 97 q 334 141 313 121 q 372 189 356 161 q 396 249 389 217 l 463 564 q 442 606 458 588 q 393 625 425 625 q 292 583 336 625 q 217 482 247 542 q 171 354 186 422 q 156 235 156 286 q 179 126 156 156 q 243 97 203 97 m 286 892 q 307 944 286 922 q 358 965 328 965 q 410 944 389 965 q 432 892 432 922 q 410 840 432 861 q 358 819 389 819 q 307 840 328 819 q 286 892 286 861 m 514 892 q 535 944 514 922 q 586 965 556 965 q 638 944 617 965 q 660 892 660 922 q 638 840 660 861 q 586 819 617 819 q 535 840 556 819 q 514 892 514 861 z "},"æ":{"ha":863,"x_min":13,"x_max":931,"o":"m 131 593 q 235 674 181 646 q 364 701 289 701 q 453 686 408 701 q 542 638 497 671 q 621 682 576 663 q 714 701 665 701 q 769 695 743 701 q 817 673 796 689 q 850 629 838 657 q 863 558 863 601 q 772 374 863 440 q 518 294 681 307 q 515 265 517 283 q 514 235 514 246 q 541 131 514 164 q 635 97 568 97 q 767 132 701 97 q 886 249 832 167 l 931 249 q 864 151 903 197 q 778 69 825 104 q 677 13 731 33 q 568 -8 624 -8 q 456 22 504 -8 q 386 124 408 53 q 355 73 372 97 q 315 31 338 49 q 261 2 292 13 q 189 -8 231 -8 q 127 -1 158 -8 q 70 27 96 7 q 28 82 44 47 q 13 172 13 117 q 36 281 13 236 q 101 352 60 325 q 199 391 143 379 q 321 403 256 403 q 371 401 351 403 q 406 397 390 400 q 426 461 418 426 q 435 519 435 496 q 412 601 435 568 q 338 635 389 635 q 238 611 275 635 q 169 553 200 588 l 131 593 m 726 633 q 655 609 688 633 q 597 544 622 585 q 553 453 571 504 q 525 349 535 403 q 710 419 642 361 q 778 572 778 478 q 769 615 778 596 q 726 633 760 633 m 363 332 q 288 322 325 332 q 222 295 251 313 q 176 252 193 278 q 158 196 158 226 q 181 120 158 143 q 238 97 203 97 q 328 157 286 97 q 386 331 371 217 q 374 332 379 332 q 363 332 369 332 z "},"à":{"ha":674,"x_min":7,"x_max":749,"o":"m 631 694 l 529 222 q 522 160 522 194 q 531 117 522 136 q 565 97 539 97 q 633 138 599 97 q 697 249 667 178 l 749 249 q 682 110 715 161 q 617 33 649 60 q 558 -1 586 7 q 507 -8 529 -8 q 431 24 461 -8 q 396 128 401 56 q 308 31 364 71 q 185 -8 251 -8 q 119 3 151 -8 q 63 42 88 15 q 22 112 38 69 q 7 215 7 154 q 17 317 7 263 q 47 425 28 371 q 97 529 67 479 q 167 617 128 579 q 255 678 206 656 q 363 701 304 701 q 431 686 396 701 q 476 628 465 671 l 490 694 l 631 694 m 243 97 q 288 109 264 97 q 334 141 313 121 q 372 189 356 161 q 396 249 389 217 l 463 564 q 442 606 458 588 q 393 625 425 625 q 292 583 336 625 q 217 482 247 542 q 171 354 186 422 q 156 235 156 286 q 179 126 156 156 q 243 97 203 97 m 450 779 l 374 779 l 289 1042 l 407 1042 l 450 779 z "},"&":{"ha":897,"x_min":11,"x_max":915,"o":"m 915 574 q 898 519 915 547 q 850 467 881 490 q 780 426 819 443 q 697 406 740 410 q 642 240 681 318 q 549 102 604 161 q 422 9 493 43 q 267 -25 350 -25 q 151 -5 200 -25 q 72 49 103 15 q 26 126 40 82 q 11 219 11 171 q 28 328 11 274 q 79 430 46 382 q 160 516 113 478 q 268 579 208 554 q 203 655 224 611 q 183 746 183 699 q 206 853 183 800 q 269 949 228 906 q 365 1018 310 992 q 488 1044 421 1044 q 565 1033 529 1044 q 628 1000 601 1022 q 671 946 656 978 q 686 871 686 914 q 656 767 686 808 q 583 726 625 726 q 518 764 546 726 q 572 806 544 774 q 599 892 599 838 q 590 942 599 922 q 567 972 581 961 q 538 988 554 983 q 506 992 521 992 q 440 976 474 992 q 378 931 407 961 q 332 856 350 901 q 314 753 314 811 q 319 697 314 725 q 336 646 324 669 q 370 605 349 622 q 425 581 392 588 q 317 536 364 568 q 238 460 269 504 q 190 365 206 417 q 174 258 174 313 q 216 131 174 176 q 349 85 258 85 q 469 111 417 85 q 558 183 521 138 q 619 285 596 228 q 657 406 643 343 q 605 411 631 408 q 556 414 579 414 q 425 351 464 414 l 415 353 q 501 474 435 426 q 669 521 567 521 q 724 517 699 521 q 775 514 749 514 q 851 528 814 514 q 907 574 889 542 l 915 574 z "},"ą":{"ha":674,"x_min":7,"x_max":749,"o":"m 631 694 l 529 222 q 522 160 522 194 q 531 117 522 136 q 565 97 539 97 q 633 138 599 97 q 697 249 667 178 l 749 249 q 699 141 724 185 q 651 68 675 97 q 606 23 628 39 q 563 0 583 7 q 507 -47 532 -15 q 482 -117 482 -79 q 500 -173 482 -146 q 551 -200 518 -200 q 603 -181 579 -200 q 650 -139 626 -162 l 647 -182 q 619 -209 635 -194 q 585 -237 604 -224 q 544 -259 567 -250 q 496 -268 522 -268 q 447 -258 467 -268 q 413 -232 426 -247 q 392 -197 399 -217 q 386 -160 386 -178 q 478 -4 386 -83 q 422 35 443 3 q 396 128 400 67 q 308 31 364 71 q 185 -8 251 -8 q 119 3 151 -8 q 63 42 88 15 q 22 112 38 69 q 7 215 7 154 q 17 317 7 263 q 47 425 28 371 q 97 529 67 479 q 167 617 128 579 q 255 678 206 656 q 363 701 304 701 q 431 686 396 701 q 476 628 465 671 l 490 694 l 631 694 m 243 97 q 289 109 265 97 q 334 141 313 121 q 372 189 356 161 q 396 249 389 217 l 463 564 q 442 606 458 588 q 393 625 425 625 q 292 583 336 625 q 217 482 247 542 q 171 354 186 422 q 156 235 156 286 q 179 126 156 156 q 243 97 203 97 z "},"å":{"ha":674,"x_min":7,"x_max":749,"o":"m 631 694 l 529 222 q 522 160 522 194 q 531 117 522 136 q 565 97 539 97 q 633 138 599 97 q 697 249 667 178 l 749 249 q 682 110 715 161 q 617 33 649 60 q 558 -1 586 7 q 507 -8 529 -8 q 431 24 461 -8 q 396 128 401 56 q 308 31 364 71 q 185 -8 251 -8 q 119 3 151 -8 q 63 42 88 15 q 22 112 38 69 q 7 215 7 154 q 17 317 7 263 q 47 425 28 371 q 97 529 67 479 q 167 617 128 579 q 255 678 206 656 q 363 701 304 701 q 431 686 396 701 q 476 628 465 671 l 490 694 l 631 694 m 243 97 q 289 109 265 97 q 334 141 313 121 q 372 189 356 161 q 396 249 389 217 l 463 564 q 442 606 458 588 q 393 625 425 625 q 292 583 336 625 q 217 482 247 542 q 171 354 186 422 q 156 235 156 286 q 179 126 156 156 q 243 97 203 97 m 467 990 q 542 959 518 990 q 567 883 567 928 q 539 802 567 838 q 446 767 511 767 q 375 795 401 767 q 349 864 349 824 q 356 904 349 882 q 376 946 363 926 q 413 978 390 965 q 467 990 435 990 m 515 879 q 515 901 515 889 q 509 922 514 913 q 495 938 504 932 q 469 944 486 944 q 419 919 433 944 q 404 867 404 893 q 415 829 404 843 q 451 815 426 815 q 499 833 483 815 q 515 879 515 850 z "},"^":{"ha":585,"x_min":76,"x_max":469,"o":"m 439 779 l 349 919 l 124 779 l 76 779 l 356 1011 l 385 1011 l 469 779 l 439 779 z "},"~":{"ha":563,"x_min":125,"x_max":626,"o":"m 626 932 q 602 888 621 910 q 556 847 583 865 q 494 818 528 829 q 425 807 460 807 q 367 814 394 807 q 315 830 340 821 q 265 846 290 839 q 215 853 240 853 q 132 819 167 853 l 125 822 q 209 914 156 883 q 333 944 263 944 q 394 938 368 944 q 444 924 421 932 q 490 910 468 917 q 540 904 513 904 q 585 911 564 904 q 619 932 606 918 l 626 932 z "},"*":{"ha":567,"x_min":124,"x_max":585,"o":"m 390 1044 l 390 842 l 551 935 l 585 879 l 418 783 l 585 688 l 551 632 l 390 725 l 390 522 l 318 522 l 318 725 l 157 632 l 124 688 l 289 783 l 124 879 l 157 935 l 318 842 l 318 1044 l 390 1044 z "},"@":{"ha":763,"x_min":22,"x_max":715,"o":"m 306 -53 q 206 -39 257 -53 q 115 8 156 -25 q 48 94 74 40 q 22 228 22 147 q 60 441 22 342 q 162 614 97 540 q 313 731 226 688 q 496 774 399 774 q 566 767 528 774 q 638 737 604 760 q 693 671 671 714 q 715 556 715 628 q 697 422 715 488 q 645 305 678 357 q 568 221 613 253 q 474 189 524 189 q 432 199 449 189 q 406 224 415 208 q 367 183 390 200 q 315 167 344 167 q 253 197 278 167 q 228 289 228 226 q 243 389 228 335 q 284 490 258 443 q 344 569 310 538 q 415 600 378 600 q 449 593 435 600 q 469 576 463 586 l 475 597 l 551 589 l 489 322 q 483 300 486 314 q 479 272 479 286 q 484 253 479 261 q 500 244 489 244 q 553 274 526 244 q 601 349 581 304 q 635 445 622 393 q 649 543 649 497 q 641 606 649 575 q 615 660 633 636 q 567 699 597 685 q 492 714 538 714 q 347 670 413 714 q 233 559 281 626 q 160 410 186 492 q 133 256 133 329 q 144 172 133 211 q 178 106 154 133 q 244 62 203 78 q 346 46 285 46 q 476 77 419 46 q 557 158 533 108 q 583 133 576 150 q 589 99 589 115 q 569 38 589 65 q 512 -10 549 10 q 422 -42 475 -31 q 306 -53 369 -53 m 394 274 q 399 300 394 288 l 458 533 q 446 548 453 542 q 429 554 439 554 q 378 526 401 554 q 337 460 354 499 q 310 379 319 421 q 300 311 300 338 q 302 289 300 301 q 308 265 304 276 q 321 247 313 254 q 342 239 329 239 q 373 249 361 239 q 394 274 385 258 z "},"ã":{"ha":674,"x_min":7,"x_max":749,"o":"m 631 694 l 529 222 q 522 160 522 194 q 531 117 522 136 q 565 97 539 97 q 633 138 599 97 q 697 249 667 178 l 749 249 q 682 110 715 161 q 617 33 649 60 q 558 -1 586 7 q 507 -8 529 -8 q 431 24 461 -8 q 396 128 401 56 q 308 31 364 71 q 185 -8 251 -8 q 119 3 151 -8 q 63 42 88 15 q 22 112 38 69 q 7 215 7 154 q 17 317 7 263 q 47 425 28 371 q 97 529 67 479 q 167 617 128 579 q 255 678 206 656 q 363 701 304 701 q 431 686 396 701 q 476 628 465 671 l 490 694 l 631 694 m 243 97 q 288 109 264 97 q 334 141 313 121 q 372 189 356 161 q 396 249 389 217 l 463 564 q 442 606 458 588 q 393 625 425 625 q 292 583 336 625 q 217 482 247 542 q 171 354 186 422 q 156 235 156 286 q 179 126 156 156 q 243 97 203 97 m 675 924 q 651 879 669 901 q 604 839 632 857 q 542 810 576 821 q 474 799 508 799 q 416 806 443 799 q 364 822 389 813 q 314 838 339 831 q 264 844 289 844 q 181 811 215 844 l 174 814 q 258 906 204 875 q 382 936 311 936 q 443 930 417 936 q 493 916 469 924 q 539 902 517 908 q 589 896 561 896 q 633 903 613 896 q 668 924 654 910 l 675 924 z "},"b":{"ha":581,"x_min":13,"x_max":563,"o":"m 175 953 l 317 972 l 246 643 q 306 683 275 668 q 376 697 338 697 q 442 690 410 697 q 502 658 475 682 q 546 589 529 633 q 563 471 563 544 q 535 306 563 390 q 456 151 507 221 q 333 36 404 81 q 176 -8 263 -8 q 110 -1 140 -8 q 58 24 79 7 q 24 72 36 42 q 13 149 13 103 q 24 249 13 193 l 175 953 m 435 456 q 410 580 435 535 q 335 625 385 625 q 283 612 307 625 q 235 578 260 599 l 153 213 q 148 185 150 197 q 146 160 146 172 q 215 88 146 88 q 301 120 261 88 q 372 205 342 153 q 418 323 401 257 q 435 456 435 389 z "},"\\":{"ha":700,"x_min":147,"x_max":511,"o":"m 147 1042 l 217 1042 l 511 -347 l 442 -347 l 147 1042 z "},"|":{"ha":381,"x_min":132,"x_max":206,"o":"m 206 -347 l 132 -347 l 132 1043 l 206 1043 l 206 -347 z "},"{":{"ha":374,"x_min":-8,"x_max":442,"o":"m 429 972 q 356 967 386 972 q 303 936 326 961 q 252 848 265 894 q 239 744 239 801 q 243 626 239 685 q 247 507 247 567 q 232 410 247 446 q 192 353 217 374 q 208 303 208 333 q 189 197 208 257 q 146 72 169 136 q 103 -57 122 7 q 83 -172 83 -121 q 85 -219 83 -199 q 99 -253 88 -239 q 135 -276 111 -268 q 201 -283 158 -283 l 189 -346 l 149 -346 q 31 -305 71 -346 q -8 -194 -8 -264 q 11 -76 -8 -136 q 55 45 31 -15 q 99 163 79 106 q 118 274 118 221 q 106 305 118 293 q 61 317 94 317 q 17 313 43 317 l 33 392 q 76 388 58 388 q 128 402 110 388 q 156 440 147 417 q 167 490 165 463 q 169 542 169 517 q 165 655 169 600 q 160 763 160 710 q 172 850 160 801 q 209 942 183 899 q 277 1013 235 985 q 382 1042 319 1042 l 442 1042 l 429 972 z "},"}":{"ha":371,"x_min":-111,"x_max":339,"o":"m -99 -276 q -26 -271 -56 -276 q 28 -240 4 -265 q 78 -152 65 -199 q 92 -49 92 -106 q 88 70 92 11 q 83 189 83 129 q 99 286 83 250 q 139 343 114 322 q 122 393 122 363 q 142 499 122 439 q 185 624 161 560 q 228 752 208 689 q 247 868 247 815 q 244 915 247 894 q 231 949 242 935 q 196 972 219 964 q 129 979 172 979 l 142 1042 l 182 1042 q 299 1001 260 1042 q 339 890 339 960 q 319 772 339 832 q 276 651 300 711 q 232 533 251 590 q 213 422 213 475 q 224 391 213 403 q 269 379 236 379 q 314 383 286 379 l 297 304 q 254 308 272 308 q 202 294 221 308 q 174 256 183 279 q 163 206 165 233 q 161 154 161 179 q 166 41 161 96 q 171 -67 171 -14 q 159 -155 171 -107 q 122 -246 147 -203 q 53 -317 96 -289 q -51 -346 11 -346 l -111 -346 l -99 -276 z "},"[":{"ha":399,"x_min":-67,"x_max":496,"o":"m 201 -347 l -67 -347 l 228 1042 l 496 1042 l 478 956 l 310 956 l 51 -261 l 219 -261 l 201 -347 z "},"]":{"ha":397,"x_min":-139,"x_max":424,"o":"m 156 1042 l 424 1042 l 129 -347 l -139 -347 l -121 -261 l 47 -261 l 306 956 l 138 956 l 156 1042 z "},"˘":{"ha":599,"x_min":104,"x_max":585,"o":"m 585 976 q 570 890 585 926 q 524 831 556 854 q 442 796 493 807 q 319 785 392 785 q 163 821 222 785 q 104 944 104 857 q 105 960 104 951 q 107 976 106 968 l 203 976 q 201 964 201 969 q 200 951 200 958 q 239 863 200 893 q 338 833 278 833 q 442 866 399 833 q 493 976 486 899 l 585 976 z "},"¦":{"ha":386,"x_min":135,"x_max":208,"o":"m 208 -347 l 135 -347 l 135 308 l 208 308 l 208 -347 m 135 418 l 135 1043 l 208 1043 l 208 418 l 135 418 z "},"•":{"ha":357,"x_min":49,"x_max":278,"o":"m 49 371 q 81 453 49 419 q 163 486 114 486 q 244 453 211 486 q 278 371 278 419 q 244 290 278 322 q 163 257 211 257 q 81 290 114 257 q 49 371 49 322 z "},"c":{"ha":506,"x_min":11,"x_max":576,"o":"m 397 482 q 427 521 415 493 q 439 572 439 549 q 424 612 439 596 q 376 628 408 628 q 288 588 328 628 q 221 490 249 549 q 178 362 193 431 q 163 235 163 293 q 190 130 163 163 q 285 97 217 97 q 421 134 358 97 q 529 249 483 171 l 576 249 q 510 151 549 197 q 424 69 471 104 q 325 13 378 33 q 217 -8 272 -8 q 140 4 176 -8 q 74 43 103 17 q 28 112 46 69 q 11 215 11 154 q 19 306 11 254 q 45 410 28 357 q 90 517 63 464 q 158 610 118 569 q 251 676 199 651 q 371 701 304 701 q 479 669 442 701 q 517 569 517 638 q 498 487 517 521 q 443 453 479 453 q 397 482 413 453 z "},"ć":{"ha":506,"x_min":11,"x_max":622,"o":"m 397 482 q 427 521 415 493 q 439 572 439 549 q 424 612 439 596 q 376 628 408 628 q 288 588 328 628 q 221 490 249 549 q 178 362 193 431 q 163 235 163 293 q 190 130 163 163 q 285 97 217 97 q 421 134 358 97 q 529 249 483 171 l 576 249 q 510 151 549 197 q 424 69 471 104 q 325 13 378 33 q 217 -8 272 -8 q 140 4 176 -8 q 74 43 103 17 q 28 112 46 69 q 11 215 11 154 q 19 306 11 254 q 45 410 28 357 q 90 517 63 464 q 158 610 118 569 q 251 676 199 651 q 371 701 304 701 q 479 669 442 701 q 517 569 517 638 q 498 487 517 521 q 443 453 479 453 q 397 482 413 453 m 504 1042 l 622 1042 l 454 779 l 378 779 l 504 1042 z "},"ˇ":{"ha":408,"x_min":143,"x_max":536,"o":"m 174 1031 l 264 890 l 489 1031 l 536 1031 l 257 799 l 228 799 l 143 1031 l 174 1031 z "},"č":{"ha":506,"x_min":11,"x_max":714,"o":"m 397 482 q 427 521 415 493 q 439 572 439 549 q 424 612 439 596 q 376 628 408 628 q 288 588 328 628 q 221 490 249 549 q 178 362 193 431 q 163 235 163 293 q 190 130 163 163 q 285 97 217 97 q 421 134 358 97 q 529 249 483 171 l 576 249 q 510 151 549 197 q 424 69 471 104 q 325 13 378 33 q 217 -8 272 -8 q 140 4 176 -8 q 74 43 103 17 q 28 112 46 69 q 11 215 11 154 q 19 306 11 254 q 45 410 28 357 q 90 517 63 464 q 158 610 118 569 q 251 676 199 651 q 371 701 304 701 q 479 669 442 701 q 517 569 517 638 q 498 487 517 521 q 443 453 479 453 q 397 482 413 453 m 351 1031 l 442 890 l 667 1031 l 714 1031 l 435 799 l 406 799 l 321 1031 l 351 1031 z "},"ç":{"ha":506,"x_min":11,"x_max":576,"o":"m 353 -150 q 338 -216 353 -187 q 300 -264 324 -244 q 247 -293 276 -283 q 186 -303 217 -303 q 101 -291 133 -303 q 38 -264 68 -279 q 60 -233 47 -247 q 93 -219 74 -219 q 119 -226 107 -219 q 143 -240 131 -232 q 168 -255 156 -249 q 196 -261 181 -261 q 246 -241 226 -261 q 265 -199 265 -221 q 249 -155 265 -175 q 197 -135 233 -135 q 145 -145 165 -135 q 111 -165 125 -156 l 168 -4 q 108 17 136 1 q 58 60 79 33 q 24 126 36 88 q 11 215 11 164 q 19 306 11 254 q 45 410 28 357 q 90 517 63 464 q 158 610 118 569 q 251 676 199 651 q 371 701 304 701 q 479 669 442 701 q 517 569 517 638 q 498 487 517 521 q 443 453 479 453 q 397 482 413 453 q 427 521 415 493 q 439 572 439 549 q 424 612 439 596 q 376 628 408 628 q 288 588 328 628 q 221 490 249 549 q 178 362 193 431 q 163 235 163 293 q 190 130 163 163 q 285 97 217 97 q 421 134 358 97 q 529 249 483 171 l 576 249 q 511 153 549 199 q 428 72 474 107 q 332 15 383 38 q 226 -8 281 -7 l 193 -92 q 267 -81 238 -81 q 332 -99 311 -81 q 353 -150 353 -118 z "},"ĉ":{"ha":506,"x_min":11,"x_max":579,"o":"m 397 482 q 427 521 415 493 q 439 572 439 549 q 424 612 439 596 q 376 628 408 628 q 288 588 328 628 q 221 490 249 549 q 178 362 193 431 q 163 235 163 293 q 190 130 163 163 q 285 97 217 97 q 421 134 358 97 q 529 249 483 171 l 576 249 q 510 151 549 197 q 424 69 471 104 q 325 13 378 33 q 217 -8 272 -8 q 140 4 176 -8 q 74 43 103 17 q 28 112 46 69 q 11 215 11 154 q 19 306 11 254 q 45 410 28 357 q 90 517 63 464 q 158 610 118 569 q 251 676 199 651 q 371 701 304 701 q 479 669 442 701 q 517 569 517 638 q 498 487 517 521 q 443 453 479 453 q 397 482 413 453 m 549 779 l 458 919 l 233 779 l 186 779 l 465 1011 l 494 1011 l 579 779 l 549 779 z "},"¸":{"ha":315,"x_min":0,"x_max":315,"o":"m 315 -150 q 301 -216 315 -187 q 263 -264 286 -244 q 209 -293 239 -283 q 149 -303 179 -303 q 63 -291 96 -303 q 0 -264 31 -279 q 23 -233 10 -247 q 56 -219 36 -219 q 81 -226 69 -219 q 106 -240 93 -232 q 131 -255 118 -249 q 158 -261 143 -261 q 208 -241 189 -261 q 228 -199 228 -221 q 212 -155 228 -175 q 160 -135 196 -135 q 108 -145 128 -135 q 74 -165 88 -156 l 147 40 l 196 8 l 156 -92 q 229 -81 200 -81 q 294 -99 274 -81 q 315 -150 315 -118 z "},"¢":{"ha":522,"x_min":43,"x_max":526,"o":"m 457 354 q 431 285 451 314 q 382 239 410 257 q 323 212 354 221 q 265 200 292 203 l 213 -37 l 175 -37 l 217 199 q 151 215 182 201 q 95 252 119 228 q 57 313 71 276 q 43 399 43 349 q 57 516 43 447 q 104 651 71 585 q 193 767 138 717 q 331 832 249 818 l 361 997 l 442 997 l 406 835 q 493 801 460 829 q 526 718 526 772 q 510 644 526 675 q 460 613 493 613 q 435 620 444 613 q 418 639 425 628 q 445 675 435 650 q 456 721 456 700 q 438 757 456 740 q 393 776 419 774 l 286 293 l 299 293 q 383 310 343 293 q 457 354 424 326 m 179 418 q 236 303 179 326 l 317 754 q 258 692 283 732 q 215 606 232 653 q 188 509 197 558 q 179 418 179 460 z "},"ˆ":{"ha":407,"x_min":7,"x_max":400,"o":"m 369 779 l 279 919 l 54 779 l 7 779 l 286 1011 l 315 1011 l 400 779 l 369 779 z "},":":{"ha":353,"x_min":35,"x_max":286,"o":"m 101 536 q 128 601 101 574 q 193 629 154 629 q 258 601 231 629 q 286 536 286 574 q 258 471 286 497 q 193 444 231 444 q 128 471 154 444 q 101 536 101 497 m 35 201 q 61 267 35 239 q 126 294 88 294 q 192 267 164 294 q 219 201 219 239 q 192 136 219 163 q 126 110 164 110 q 61 136 88 110 q 35 201 35 163 z "},",":{"ha":294,"x_min":-25,"x_max":163,"o":"m -17 85 q 12 154 -17 131 q 75 178 40 178 q 142 154 122 178 q 163 94 163 131 q 147 19 163 60 q 107 -60 132 -22 q 51 -130 82 -99 q -12 -175 19 -161 q -25 -151 -25 -167 q -17 -118 -25 -135 q 2 -85 -8 -101 q 22 -52 13 -68 q 31 -21 31 -36 q 23 7 31 -1 q 7 23 15 15 q -9 44 -1 31 q -17 85 -17 57 z "},"©":{"ha":783,"x_min":58,"x_max":731,"o":"m 199 467 q 217 551 199 514 q 264 616 235 589 q 331 658 293 643 q 406 672 368 672 q 508 640 460 672 q 576 540 556 608 l 525 521 q 480 588 515 565 q 403 611 444 611 q 341 599 368 611 q 296 566 314 586 q 269 520 278 546 q 260 468 260 494 q 269 410 260 439 q 296 360 278 382 q 340 325 314 339 q 401 311 367 311 q 467 327 433 311 q 525 379 501 343 l 572 347 q 494 278 543 303 q 393 253 444 253 q 315 270 351 253 q 253 317 279 288 q 213 385 228 346 q 199 467 199 424 m 394 106 q 264 133 325 106 q 157 209 203 161 q 85 322 111 257 q 58 460 58 386 q 85 599 58 535 q 157 712 111 664 q 264 788 203 760 q 394 815 325 815 q 524 788 463 815 q 631 713 585 761 q 703 601 676 665 q 731 461 731 536 q 703 322 731 386 q 631 209 676 257 q 524 133 585 161 q 394 106 463 106 m 94 460 q 119 331 94 390 q 184 228 143 272 q 280 160 225 185 q 397 135 335 135 q 513 160 458 135 q 609 228 568 185 q 674 331 650 272 q 699 460 699 390 q 674 588 699 528 q 609 691 650 647 q 513 760 568 735 q 397 785 458 785 q 280 760 335 785 q 184 691 225 735 q 119 588 143 647 q 94 460 94 528 z "},"¤":{"ha":665,"x_min":82,"x_max":590,"o":"m 135 733 l 213 656 q 339 697 269 697 q 405 687 374 697 q 463 657 436 676 l 540 735 l 590 685 l 514 608 q 556 481 556 551 q 514 354 556 411 l 590 278 l 540 228 l 464 304 q 406 274 438 285 q 339 264 375 264 q 211 306 268 264 l 133 228 l 83 278 l 161 356 q 131 413 142 382 q 121 479 121 444 q 131 547 121 515 q 161 604 142 578 l 82 683 l 135 733 m 339 642 q 276 629 306 642 q 225 594 247 617 q 190 543 203 572 q 178 481 178 514 q 190 418 178 447 q 225 367 203 389 q 276 332 247 344 q 339 319 306 319 q 401 332 372 319 q 453 367 431 344 q 488 418 475 389 q 500 481 500 447 q 488 543 500 514 q 453 594 475 572 q 401 629 431 617 q 339 642 372 642 z "},"d":{"ha":674,"x_min":7,"x_max":749,"o":"m 690 972 l 529 222 q 522 160 522 194 q 531 117 522 136 q 565 97 539 97 q 633 138 599 97 q 697 249 667 178 l 749 249 q 682 110 715 161 q 617 33 649 60 q 558 -1 586 7 q 507 -8 529 -8 q 431 24 461 -8 q 396 128 401 56 q 308 31 364 71 q 185 -8 251 -8 q 119 3 151 -8 q 63 42 88 15 q 22 112 38 69 q 7 215 7 154 q 17 317 7 263 q 47 425 28 371 q 97 529 67 479 q 167 617 128 579 q 255 678 206 656 q 363 701 304 701 q 431 686 397 701 q 476 626 465 671 l 546 953 l 690 972 m 243 97 q 289 109 265 97 q 334 141 313 121 q 372 189 356 161 q 396 249 389 217 l 463 564 q 442 606 460 586 q 393 625 425 625 q 292 583 336 625 q 217 482 247 542 q 171 354 186 422 q 156 235 156 286 q 179 126 156 156 q 243 97 203 97 z "},"†":{"ha":569,"x_min":33,"x_max":572,"o":"m 363 594 l 572 594 l 546 467 l 336 467 l 164 -347 l 64 -347 l 236 467 l 33 467 l 61 594 l 263 594 l 358 1042 l 458 1042 l 363 594 z "},"‡":{"ha":593,"x_min":-22,"x_max":583,"o":"m 375 594 l 583 594 l 557 467 l 347 467 l 306 268 l 517 268 l 490 140 l 278 140 l 175 -347 l 75 -347 l 178 140 l -22 140 l 6 268 l 206 268 l 247 467 l 44 467 l 72 594 l 275 594 l 369 1042 l 469 1042 l 375 594 z "},"đ":{"ha":672,"x_min":7,"x_max":769,"o":"m 690 972 l 663 847 l 769 847 l 760 799 l 653 799 l 529 222 q 522 160 522 194 q 531 117 522 136 q 565 97 539 97 q 633 138 599 97 q 697 249 667 178 l 749 249 q 682 110 715 161 q 617 33 649 60 q 558 -1 586 7 q 507 -8 529 -8 q 431 24 461 -8 q 396 128 401 56 q 308 31 364 71 q 185 -8 251 -8 q 119 3 151 -8 q 63 42 88 15 q 22 112 38 69 q 7 215 7 154 q 17 317 7 263 q 47 425 28 371 q 97 529 67 479 q 167 617 128 579 q 255 678 206 656 q 363 701 304 701 q 431 686 397 701 q 476 626 465 671 l 513 799 l 467 799 l 476 847 l 524 847 l 546 953 l 690 972 m 243 97 q 288 109 264 97 q 334 141 313 121 q 372 189 356 161 q 396 249 389 217 l 463 564 q 442 606 460 586 q 393 625 425 625 q 292 583 336 625 q 217 482 247 542 q 171 354 186 422 q 156 235 156 286 q 179 126 156 156 q 243 97 203 97 z "},"°":{"ha":442,"x_min":117,"x_max":453,"o":"m 339 975 q 427 935 401 975 q 453 822 453 894 q 440 720 453 774 q 399 622 426 667 q 330 549 372 578 q 231 519 288 519 q 174 532 196 519 q 139 565 151 544 q 122 615 126 586 q 117 675 117 643 q 133 794 117 739 q 179 889 150 849 q 249 952 208 929 q 339 975 290 975 m 193 665 q 196 632 193 649 q 205 603 199 615 q 222 582 211 590 q 251 574 233 574 q 304 595 281 574 q 346 653 328 617 q 374 740 364 690 q 383 843 383 789 q 374 905 383 879 q 335 931 365 931 q 280 910 306 931 q 235 852 254 889 q 204 767 215 815 q 193 665 193 719 z "},"¨":{"ha":544,"x_min":100,"x_max":474,"o":"m 100 892 q 121 944 100 922 q 172 965 142 965 q 224 944 203 965 q 246 892 246 922 q 224 840 246 861 q 172 819 203 819 q 121 840 142 819 q 100 892 100 861 m 328 892 q 349 944 328 922 q 400 965 369 965 q 452 944 431 965 q 474 892 474 922 q 452 840 474 861 q 400 819 431 819 q 349 840 369 819 q 328 892 328 861 z "},"÷":{"ha":583,"x_min":15,"x_max":524,"o":"m 247 594 q 274 660 247 632 q 339 688 300 688 q 404 660 376 688 q 432 594 432 632 q 404 529 432 556 q 339 503 376 503 q 274 529 300 503 q 247 594 247 556 m 164 93 q 190 158 164 131 q 256 186 217 186 q 321 158 293 186 q 349 93 349 131 q 321 28 349 54 q 256 1 293 1 q 190 28 217 1 q 164 93 164 54 m 503 299 l 15 299 l 38 396 l 524 396 l 503 299 z "},"$":{"ha":533,"x_min":29,"x_max":500,"o":"m 192 150 q 74 194 119 157 q 29 306 29 232 q 56 394 29 364 q 117 425 83 425 q 175 393 149 425 q 149 381 160 390 q 132 358 139 371 q 122 329 125 344 q 119 300 119 314 q 144 231 119 256 q 201 199 168 206 l 251 482 q 198 521 225 501 q 149 563 171 540 q 114 613 128 586 q 100 674 100 639 q 118 744 100 713 q 166 799 136 776 q 235 835 196 822 q 318 850 275 849 l 344 997 l 406 997 l 372 846 q 420 833 397 842 q 460 811 443 825 q 489 776 478 797 q 500 729 500 756 q 497 697 500 714 q 486 663 493 679 q 468 637 479 647 q 442 626 457 626 q 422 631 435 626 q 393 651 408 636 q 417 689 410 668 q 425 729 425 710 q 410 776 425 756 q 363 806 394 797 l 310 569 q 368 531 339 551 q 421 485 397 511 q 459 427 444 460 q 474 351 474 394 q 453 264 474 301 q 399 201 433 226 q 317 162 364 175 q 217 149 269 149 l 176 -37 l 158 -37 l 192 150 m 356 328 q 335 400 356 369 q 285 457 315 431 l 228 196 q 318 232 281 196 q 356 328 356 268 m 204 694 q 224 639 204 663 q 272 594 243 615 l 310 808 q 260 794 281 806 q 228 765 240 782 q 210 730 215 749 q 204 694 204 711 z "},"ı":{"ha":301,"x_min":11,"x_max":376,"o":"m 258 694 l 157 222 q 150 160 150 194 q 158 117 150 136 q 193 97 167 97 q 260 138 226 97 q 325 249 294 178 l 376 249 q 310 110 343 161 q 245 33 276 60 q 185 -1 214 7 q 135 -8 157 -8 q 75 4 99 -8 q 38 38 51 17 q 17 86 24 58 q 11 146 11 114 q 15 197 11 171 q 24 249 18 224 l 118 694 l 258 694 z "},"e":{"ha":511,"x_min":11,"x_max":579,"o":"m 511 558 q 419 367 511 440 q 164 278 326 294 q 163 256 163 267 q 163 235 163 246 q 190 131 163 164 q 283 97 217 97 q 415 132 350 97 q 535 249 481 167 l 579 249 q 513 151 551 197 q 426 69 474 104 q 326 13 379 33 q 217 -8 272 -8 q 140 4 176 -8 q 74 43 103 17 q 28 112 46 69 q 11 214 11 154 q 19 304 11 253 q 45 410 28 356 q 91 517 63 464 q 158 610 119 569 q 248 676 197 651 q 363 701 299 701 q 418 695 392 701 q 465 673 444 689 q 499 629 486 657 q 511 558 511 601 m 375 633 q 303 606 336 633 q 244 536 269 579 q 199 440 218 493 q 171 332 181 386 q 357 414 288 350 q 426 572 426 478 q 417 615 426 596 q 375 633 408 633 z "},"é":{"ha":511,"x_min":11,"x_max":588,"o":"m 511 558 q 419 367 511 440 q 164 278 326 294 q 163 256 163 267 q 163 235 163 246 q 190 131 163 164 q 283 97 217 97 q 415 132 350 97 q 535 249 481 167 l 579 249 q 513 151 551 197 q 426 69 474 104 q 326 13 379 33 q 217 -8 272 -8 q 140 4 176 -8 q 74 43 103 17 q 28 112 46 69 q 11 214 11 154 q 19 304 11 253 q 45 410 28 356 q 91 517 63 464 q 158 610 119 569 q 248 676 197 651 q 363 701 299 701 q 418 695 392 701 q 465 673 444 689 q 499 629 486 657 q 511 558 511 601 m 375 633 q 303 606 336 633 q 244 536 269 579 q 199 440 218 493 q 171 332 181 386 q 357 414 288 350 q 426 572 426 478 q 417 615 426 596 q 375 633 408 633 m 469 1042 l 588 1042 l 419 779 l 343 779 l 469 1042 z "},"ê":{"ha":511,"x_min":11,"x_max":579,"o":"m 511 558 q 419 367 511 440 q 164 278 326 294 q 163 256 163 267 q 163 235 163 246 q 190 131 163 164 q 283 97 217 97 q 415 132 350 97 q 535 249 481 167 l 579 249 q 513 151 551 197 q 426 69 474 104 q 326 13 379 33 q 217 -8 272 -8 q 140 4 176 -8 q 74 43 103 17 q 28 112 46 69 q 11 214 11 154 q 19 304 11 253 q 45 410 28 356 q 91 517 63 464 q 158 610 119 569 q 248 676 197 651 q 363 701 299 701 q 418 695 392 701 q 465 673 444 689 q 499 629 486 657 q 511 558 511 601 m 375 633 q 303 606 336 633 q 244 536 269 579 q 199 440 218 493 q 171 332 181 386 q 357 414 288 350 q 426 572 426 478 q 417 615 426 596 q 375 633 408 633 m 539 779 l 449 919 l 224 779 l 176 779 l 456 1011 l 485 1011 l 569 779 l 539 779 z "},"ë":{"ha":511,"x_min":11,"x_max":589,"o":"m 511 558 q 419 367 511 440 q 164 278 326 294 q 163 256 163 267 q 163 235 163 246 q 190 131 163 164 q 283 97 217 97 q 415 132 350 97 q 535 249 481 167 l 579 249 q 513 151 551 197 q 426 69 474 104 q 326 13 379 33 q 217 -8 272 -8 q 140 4 176 -8 q 74 43 103 17 q 28 112 46 69 q 11 214 11 154 q 19 304 11 253 q 45 410 28 356 q 91 517 63 464 q 158 610 119 569 q 248 676 197 651 q 363 701 299 701 q 418 695 392 701 q 465 673 444 689 q 499 629 486 657 q 511 558 511 601 m 375 633 q 303 606 336 633 q 244 536 269 579 q 199 440 218 493 q 171 332 181 386 q 357 414 288 350 q 426 572 426 478 q 417 615 426 596 q 375 633 408 633 m 215 892 q 236 944 215 922 q 288 965 257 965 q 340 944 318 965 q 361 892 361 922 q 340 840 361 861 q 288 819 318 819 q 236 840 257 819 q 215 892 215 861 m 443 892 q 464 944 443 922 q 515 965 485 965 q 567 944 546 965 q 589 892 589 922 q 567 840 589 861 q 515 819 546 819 q 464 840 485 819 q 443 892 443 861 z "},"è":{"ha":511,"x_min":11,"x_max":579,"o":"m 511 558 q 419 367 511 440 q 164 278 326 294 q 163 256 163 267 q 163 235 163 246 q 190 131 163 164 q 283 97 217 97 q 415 132 350 97 q 535 249 481 167 l 579 249 q 513 151 551 197 q 426 69 474 104 q 326 13 379 33 q 217 -8 272 -8 q 140 4 176 -8 q 74 43 103 17 q 28 112 46 69 q 11 214 11 154 q 19 304 11 253 q 45 410 28 356 q 91 517 63 464 q 158 610 119 569 q 248 676 197 651 q 363 701 299 701 q 418 695 392 701 q 465 673 444 689 q 499 629 486 657 q 511 558 511 601 m 375 633 q 303 606 336 633 q 244 536 269 579 q 199 440 218 493 q 171 332 181 386 q 357 414 288 350 q 426 572 426 478 q 417 615 426 596 q 375 633 408 633 m 407 779 l 331 779 l 246 1042 l 364 1042 l 407 779 z "},"…":{"ha":965,"x_min":-17,"x_max":838,"o":"m -17 85 q 10 150 -17 122 q 75 178 36 178 q 140 150 113 178 q 168 85 168 122 q 140 19 168 46 q 75 -7 113 -7 q 10 19 36 -7 q -17 85 -17 46 m 313 85 q 339 150 313 122 q 404 178 365 178 q 469 150 442 178 q 497 85 497 122 q 469 19 497 46 q 404 -7 442 -7 q 339 19 365 -7 q 313 85 313 46 m 653 85 q 679 150 653 122 q 744 178 706 178 q 810 150 782 178 q 838 85 838 122 q 810 19 838 46 q 744 -7 782 -7 q 679 19 706 -7 q 653 85 653 46 z "},"—":{"ha":654,"x_min":57,"x_max":565,"o":"m 544 321 l 57 321 l 79 418 l 565 418 l 544 321 z "},"–":{"ha":529,"x_min":57,"x_max":440,"o":"m 419 321 l 57 321 l 79 418 l 440 418 l 419 321 z "},"ę":{"ha":511,"x_min":11,"x_max":579,"o":"m 511 558 q 419 367 511 440 q 164 278 326 294 q 163 256 163 267 q 163 235 163 246 q 190 131 163 164 q 283 97 217 97 q 415 132 350 97 q 535 249 481 167 l 579 249 q 481 116 540 176 q 347 22 421 56 q 288 -42 313 -1 q 263 -117 263 -82 q 281 -173 263 -146 q 332 -200 299 -200 q 433 -157 389 -200 l 431 -200 q 367 -246 404 -224 q 276 -268 331 -268 q 227 -258 247 -268 q 193 -232 207 -247 q 173 -197 179 -217 q 167 -160 167 -178 q 258 -4 167 -83 q 217 -8 238 -8 q 140 4 176 -8 q 74 43 103 17 q 28 112 46 69 q 11 214 11 154 q 19 304 11 253 q 45 410 28 356 q 91 517 63 464 q 158 610 119 569 q 248 676 197 651 q 363 701 299 701 q 418 695 392 701 q 465 673 444 689 q 499 629 486 657 q 511 558 511 601 m 375 633 q 303 606 336 633 q 244 536 269 579 q 199 440 218 493 q 171 332 181 386 q 357 414 288 350 q 426 572 426 478 q 417 615 426 596 q 375 633 408 633 z "},"=":{"ha":656,"x_min":38,"x_max":585,"o":"m 563 439 l 89 439 l 113 550 l 585 550 l 563 439 m 511 185 l 38 185 l 61 296 l 533 296 l 511 185 z "},"ð":{"ha":674,"x_min":7,"x_max":749,"o":"m 749 249 q 682 110 715 161 q 617 33 649 60 q 558 -1 586 7 q 507 -8 529 -8 q 431 24 461 -8 q 396 128 401 56 q 308 31 364 71 q 185 -8 251 -8 q 119 3 151 -8 q 63 42 88 15 q 22 112 38 69 q 7 215 7 154 q 17 317 7 263 q 47 425 28 371 q 97 529 67 479 q 167 617 128 579 q 255 678 206 656 q 363 701 304 701 q 431 686 397 701 q 476 626 465 671 l 486 674 q 498 743 493 711 q 503 803 503 775 l 503 813 l 403 799 l 403 840 l 499 854 q 443 972 486 913 l 492 972 q 553 928 522 953 q 608 869 585 903 l 704 883 l 704 842 l 628 831 q 640 763 640 801 q 633 704 640 739 l 529 222 q 522 160 522 194 q 531 117 522 136 q 565 97 539 97 q 633 138 599 97 q 697 249 667 178 l 749 249 m 243 97 q 289 109 265 97 q 334 141 313 121 q 372 189 356 161 q 396 249 389 217 l 463 564 q 442 606 460 586 q 393 625 425 625 q 292 583 336 625 q 217 482 247 542 q 171 354 186 422 q 156 235 156 286 q 179 126 156 156 q 243 97 203 97 z "},"!":{"ha":336,"x_min":8,"x_max":353,"o":"m 99 321 l 197 972 l 353 972 l 172 321 l 99 321 m 8 92 q 35 157 8 129 q 100 185 61 185 q 165 157 138 185 q 193 92 193 129 q 165 26 193 53 q 100 0 138 0 q 35 26 61 0 q 8 92 8 53 z "},"¡":{"ha":319,"x_min":-78,"x_max":267,"o":"m 176 307 l 78 -344 l -78 -344 l 103 307 l 176 307 m 267 536 q 240 471 267 499 q 175 443 214 443 q 110 471 138 443 q 82 536 82 499 q 110 601 82 575 q 175 628 138 628 q 240 601 214 628 q 267 536 267 575 z "},"f":{"ha":332,"x_min":-256,"x_max":549,"o":"m 257 694 l 368 694 l 358 646 l 246 646 l 86 -111 q 52 -232 71 -186 q 10 -303 33 -278 q -40 -338 -12 -329 q -103 -347 -68 -347 q -211 -319 -167 -347 q -256 -222 -256 -290 q -235 -158 -256 -187 q -183 -101 -215 -128 q -112 -54 -151 -75 q -33 -18 -72 -33 l 136 779 q 160 867 144 821 q 203 951 175 913 q 276 1015 232 989 q 389 1040 321 1040 q 509 994 469 1040 q 549 881 549 947 q 544 833 549 856 l 489 833 q 493 867 493 847 q 476 926 493 899 q 422 953 460 953 q 360 939 385 953 q 319 900 336 925 q 292 840 303 875 q 271 761 281 804 l 257 694 m -150 -275 q -90 -231 -111 -275 q -54 -114 -69 -186 l -44 -69 q -161 -143 -121 -103 q -201 -221 -201 -183 q -188 -260 -201 -244 q -150 -275 -175 -275 z "},"ﬀ":{"ha":665,"x_min":-254,"x_max":882,"o":"m 590 694 l 699 694 l 689 646 l 579 646 l 419 -111 q 384 -221 406 -176 q 335 -294 363 -265 q 277 -335 308 -322 q 213 -347 246 -347 q 122 -325 167 -347 q 39 -262 76 -303 q -22 -331 13 -314 q -101 -347 -56 -347 q -210 -319 -165 -347 q -254 -222 -254 -290 q -237 -163 -254 -192 q -190 -110 -219 -135 q -119 -62 -160 -85 q -33 -21 -79 -40 l 138 779 q 161 867 146 821 q 205 951 176 913 q 278 1015 233 989 q 390 1040 322 1040 q 485 1016 449 1040 q 536 951 521 992 q 609 1015 564 990 q 722 1040 654 1040 q 842 994 803 1040 q 882 881 882 947 q 878 833 882 856 l 822 833 q 826 867 826 847 q 810 926 826 899 q 756 953 793 953 q 694 939 718 953 q 653 900 669 925 q 625 840 636 875 q 604 761 614 804 l 590 694 m 118 32 q 225 59 174 47 q 319 78 276 71 l 440 646 l 247 646 l 118 32 m 158 -275 q 230 -236 199 -275 q 279 -114 261 -197 l 310 29 q 201 6 251 18 q 107 -19 151 -6 l 88 -111 q 57 -222 72 -179 q 158 -275 107 -275 m 258 694 l 451 694 l 469 779 q 480 823 474 800 q 494 869 486 846 q 476 927 493 901 q 424 953 460 953 q 362 939 386 953 q 321 900 338 925 q 293 840 304 875 q 272 761 282 804 l 258 694 m -149 -275 q -89 -231 -110 -275 q -53 -114 -68 -186 l -44 -74 q -200 -221 -200 -146 q -187 -260 -200 -244 q -149 -275 -174 -275 z "},"ﬃ":{"ha":968,"x_min":-254,"x_max":1043,"o":"m 869 783 q 819 802 836 783 q 803 844 803 821 q 817 888 803 868 q 856 911 832 907 q 829 964 854 950 q 774 978 804 978 q 708 960 736 978 q 660 913 681 943 q 627 844 640 883 q 604 761 614 804 l 590 694 l 703 694 l 693 646 l 579 646 l 419 -111 q 384 -221 406 -176 q 335 -294 363 -265 q 277 -335 308 -322 q 213 -347 246 -347 q 122 -325 167 -347 q 39 -262 76 -303 q -22 -331 13 -314 q -101 -347 -56 -347 q -210 -319 -165 -347 q -254 -222 -254 -290 q -237 -163 -254 -192 q -190 -110 -219 -135 q -119 -62 -160 -85 q -33 -21 -79 -40 l 138 779 q 161 867 146 821 q 205 951 176 913 q 278 1015 233 989 q 390 1040 322 1040 q 492 1010 454 1040 q 543 933 529 981 q 638 1010 581 979 q 774 1040 694 1040 q 908 998 865 1040 q 950 889 950 956 q 930 813 950 842 q 869 783 910 783 m 258 694 l 369 694 l 360 646 l 247 646 l 118 32 q 225 59 174 47 q 319 78 276 71 l 469 779 q 479 817 474 799 q 494 854 485 835 l 494 867 q 478 926 494 899 q 424 953 461 953 q 362 939 386 953 q 321 900 338 925 q 293 840 304 875 q 272 761 282 804 l 258 694 m 925 694 l 824 222 q 817 160 817 194 q 825 117 817 136 q 860 97 833 97 q 927 138 893 97 q 992 249 961 178 l 1043 249 q 976 110 1010 161 q 912 33 943 60 q 852 -1 881 7 q 801 -8 824 -8 q 742 4 765 -8 q 704 38 718 17 q 684 86 690 58 q 678 146 678 114 q 681 197 678 171 q 690 249 685 224 l 785 694 l 925 694 m 158 -275 q 230 -236 199 -275 q 279 -114 261 -197 l 310 29 q 201 6 251 18 q 107 -19 151 -6 l 88 -111 q 57 -222 72 -179 q 158 -275 107 -275 m -149 -275 q -89 -231 -110 -275 q -53 -114 -68 -186 l -44 -74 q -200 -221 -200 -146 q -187 -260 -200 -244 q -149 -275 -174 -275 z "},"ﬄ":{"ha":963,"x_min":-254,"x_max":1038,"o":"m 833 946 q 803 951 818 949 q 753 953 788 953 q 691 939 715 953 q 650 900 667 925 q 622 840 633 875 q 601 761 611 804 l 588 694 l 699 694 l 689 646 l 576 646 l 417 -111 q 381 -221 403 -176 q 333 -294 360 -265 q 274 -335 306 -322 q 210 -347 243 -347 q 119 -326 164 -347 q 38 -264 74 -304 q -23 -331 11 -314 q -101 -347 -57 -347 q -210 -319 -165 -347 q -254 -222 -254 -290 q -237 -163 -254 -192 q -190 -110 -219 -135 q -119 -62 -160 -85 q -33 -21 -79 -40 l 138 779 q 161 867 146 821 q 205 951 176 913 q 278 1015 233 989 q 390 1040 322 1040 q 483 1016 447 1040 q 536 953 519 992 q 608 1015 564 990 q 719 1040 653 1040 q 801 1035 767 1040 q 865 1021 836 1031 q 920 999 893 1011 q 981 972 947 986 l 818 222 q 811 160 811 194 q 819 117 811 136 q 854 97 828 97 q 922 138 888 97 q 986 249 956 178 l 1038 249 q 971 110 1004 161 q 906 33 938 60 q 847 -1 875 7 q 796 -8 818 -8 q 736 4 760 -8 q 699 38 713 17 q 678 86 685 58 q 672 146 672 114 q 676 197 672 171 q 685 249 679 224 l 833 946 m 258 694 l 369 694 l 360 646 l 247 646 l 118 32 q 224 59 172 47 q 317 78 275 71 l 467 779 q 478 827 472 803 q 494 876 485 851 q 475 929 492 906 q 424 953 458 953 q 362 939 386 953 q 321 900 338 925 q 293 840 304 875 q 272 761 282 804 l 258 694 m 156 -275 q 227 -236 196 -275 q 276 -114 258 -197 l 307 29 q 201 6 250 18 q 107 -19 151 -6 l 88 -111 q 56 -224 74 -176 q 106 -262 81 -250 q 156 -275 132 -275 m -149 -275 q -89 -231 -110 -275 q -53 -114 -68 -186 l -44 -74 q -200 -221 -200 -146 q -187 -260 -200 -244 q -149 -275 -174 -275 z "},"ﬁ":{"ha":633,"x_min":-256,"x_max":708,"o":"m 536 783 q 486 802 503 783 q 469 844 469 821 q 484 888 469 868 q 522 911 499 907 q 496 964 521 950 q 440 978 471 978 q 375 960 403 978 q 327 913 347 943 q 294 844 307 883 q 271 761 281 804 l 257 694 l 368 694 l 358 646 l 246 646 l 86 -111 q 52 -232 71 -186 q 10 -303 33 -278 q -40 -338 -12 -329 q -100 -347 -67 -347 q -211 -319 -167 -347 q -256 -231 -256 -290 q -237 -162 -256 -193 q -188 -105 -219 -131 q -117 -58 -157 -79 q -33 -18 -78 -36 l 136 779 q 169 870 146 824 q 229 954 192 917 q 319 1016 267 992 q 440 1040 371 1040 q 574 998 532 1040 q 617 889 617 956 q 597 813 617 842 q 536 783 576 783 m 590 694 l 489 222 q 482 160 482 194 q 490 117 482 136 q 525 97 499 97 q 592 138 558 97 q 657 249 626 178 l 708 249 q 642 110 675 161 q 577 33 608 60 q 517 -1 546 7 q 467 -8 489 -8 q 407 4 431 -8 q 369 38 383 17 q 349 86 356 58 q 343 146 343 114 q 347 197 343 171 q 356 249 350 224 l 450 694 l 590 694 m -151 -275 q -90 -230 -111 -275 q -54 -114 -69 -185 l -44 -69 q -161 -143 -121 -103 q -201 -222 -201 -183 q -188 -260 -201 -246 q -151 -275 -175 -275 z "},"ﬂ":{"ha":632,"x_min":-256,"x_max":707,"o":"m 257 694 l 368 694 l 358 646 l 246 646 l 86 -111 q 52 -232 71 -186 q 10 -303 33 -278 q -40 -338 -12 -329 q -103 -347 -68 -347 q -211 -319 -167 -347 q -256 -222 -256 -290 q -235 -158 -256 -187 q -183 -101 -215 -128 q -112 -54 -151 -75 q -33 -18 -72 -33 l 136 779 q 160 867 144 821 q 203 951 175 913 q 276 1015 232 989 q 389 1040 321 1040 q 471 1035 436 1040 q 534 1021 506 1031 q 590 999 563 1011 q 650 972 617 986 l 488 222 q 481 160 481 194 q 489 117 481 136 q 524 97 497 97 q 591 138 557 97 q 656 249 625 178 l 707 249 q 640 110 674 161 q 576 33 607 60 q 516 -1 544 7 q 465 -8 488 -8 q 406 4 429 -8 q 368 38 382 17 q 348 86 354 58 q 342 146 342 114 q 345 197 342 171 q 354 249 349 224 l 503 946 q 472 951 488 949 q 422 953 457 953 q 360 939 385 953 q 319 900 336 925 q 292 840 303 875 q 271 761 281 804 l 257 694 m -150 -275 q -90 -231 -111 -275 q -54 -114 -69 -186 l -44 -69 q -161 -143 -121 -103 q -201 -221 -201 -183 q -188 -260 -201 -244 q -150 -275 -175 -275 z "},"ƒ":{"ha":376,"x_min":-249,"x_max":558,"o":"m 67 694 l 128 694 l 146 779 q 169 863 154 818 q 213 948 185 908 q 283 1014 240 988 q 392 1040 326 1040 q 519 994 479 1040 q 558 881 558 947 q 554 833 558 856 l 499 833 q 503 867 503 847 q 487 926 503 900 q 424 953 471 953 q 365 938 389 953 q 326 896 342 922 q 299 835 310 869 q 281 761 289 800 l 267 694 l 378 694 l 368 646 l 256 646 l 96 -111 q 62 -232 81 -186 q 20 -303 43 -278 q -30 -338 -3 -329 q -87 -347 -57 -347 q -210 -312 -171 -347 q -249 -217 -249 -278 q -242 -171 -249 -196 q -211 -117 -235 -146 q -142 -58 -187 -89 q -18 6 -96 -26 l 117 646 l 57 646 l 67 694 m -142 -275 q -81 -231 -101 -275 q -44 -114 -60 -187 l -29 -40 q -160 -116 -117 -76 q -203 -206 -203 -156 q -185 -256 -203 -237 q -142 -275 -168 -275 z "},"g":{"ha":674,"x_min":7,"x_max":749,"o":"m 629 694 l 488 28 q 556 56 525 40 q 613 98 588 72 q 658 160 638 124 q 697 249 679 196 l 749 249 q 697 128 724 175 q 636 52 669 82 q 563 6 603 22 q 476 -22 524 -11 l 458 -111 q 424 -232 443 -186 q 383 -303 406 -278 q 332 -338 360 -329 q 269 -347 304 -347 q 161 -319 206 -347 q 117 -222 117 -290 q 137 -158 117 -187 q 189 -101 157 -128 q 260 -54 221 -75 q 339 -18 300 -33 l 365 110 q 283 47 329 71 q 185 22 236 22 q 119 34 151 22 q 63 73 88 46 q 22 142 38 100 q 7 246 7 185 q 30 390 7 311 q 97 539 53 469 q 208 655 142 608 q 363 701 275 701 q 431 686 396 701 q 476 628 465 671 l 490 694 l 629 694 m 243 128 q 286 138 263 128 q 331 166 310 149 q 371 208 353 183 q 397 261 389 232 l 463 565 q 442 606 458 588 q 393 625 425 625 q 292 587 336 625 q 217 494 247 549 q 171 376 186 439 q 156 265 156 314 q 179 157 156 186 q 243 128 203 128 m 222 -275 q 282 -231 261 -275 q 318 -114 303 -186 l 328 -69 q 210 -143 250 -103 q 171 -221 171 -183 q 184 -260 171 -244 q 222 -275 197 -275 z "},"ğ":{"ha":674,"x_min":7,"x_max":749,"o":"m 629 694 l 488 28 q 556 56 525 40 q 613 98 588 72 q 658 160 638 124 q 697 249 679 196 l 749 249 q 697 128 724 175 q 636 52 669 82 q 563 6 603 22 q 476 -22 524 -11 l 458 -111 q 424 -232 443 -186 q 383 -303 406 -278 q 332 -338 360 -329 q 269 -347 304 -347 q 161 -319 206 -347 q 117 -222 117 -290 q 137 -158 117 -187 q 189 -101 157 -128 q 260 -54 221 -75 q 339 -18 300 -33 l 365 110 q 283 47 329 71 q 185 22 236 22 q 119 34 151 22 q 63 73 88 46 q 22 142 38 100 q 7 246 7 185 q 30 390 7 311 q 97 539 53 469 q 208 655 142 608 q 363 701 275 701 q 431 686 396 701 q 476 628 465 671 l 490 694 l 629 694 m 243 128 q 286 138 263 128 q 331 166 310 149 q 371 208 353 183 q 397 261 389 232 l 463 565 q 442 606 458 588 q 393 625 425 625 q 292 587 336 625 q 217 494 247 549 q 171 376 186 439 q 156 265 156 314 q 179 157 156 186 q 243 128 203 128 m 713 976 q 698 890 713 926 q 652 831 683 854 q 570 796 621 807 q 447 785 519 785 q 291 821 350 785 q 232 944 232 857 q 233 960 232 951 q 235 976 233 968 l 331 976 q 328 964 329 969 q 328 951 328 958 q 367 863 328 893 q 465 833 406 833 q 570 866 526 833 q 621 976 614 899 l 713 976 m 222 -275 q 282 -231 261 -275 q 318 -114 303 -186 l 328 -69 q 210 -143 250 -103 q 171 -221 171 -183 q 184 -260 171 -244 q 222 -275 197 -275 z "},"ß":{"ha":625,"x_min":-94,"x_max":586,"o":"m 69 -297 l -94 -347 l 136 736 q 180 857 151 811 q 244 928 208 903 q 317 963 279 954 q 389 972 354 972 q 473 958 438 972 q 532 919 508 943 q 567 863 556 894 q 579 796 579 831 q 547 679 579 736 q 451 593 514 622 q 556 513 525 568 q 586 396 586 458 q 559 214 586 289 q 492 92 532 139 q 406 22 451 44 q 322 0 360 0 q 299 1 311 0 q 276 3 288 1 l 288 57 q 381 92 343 57 q 443 178 419 126 q 477 291 467 231 q 488 403 488 351 q 456 499 488 454 q 350 560 424 543 l 367 613 q 428 639 401 621 q 474 681 456 657 q 502 733 493 706 q 511 786 511 760 q 488 864 511 839 q 433 889 465 889 q 390 879 413 889 q 349 850 368 869 q 314 802 329 831 q 290 736 299 774 l 69 -297 z "},"`":{"ha":279,"x_min":43,"x_max":204,"o":"m 204 779 l 128 779 l 43 1042 l 161 1042 l 204 779 z "},">":{"ha":503,"x_min":15,"x_max":453,"o":"m 111 596 l 453 388 l 438 313 l 15 140 l 35 219 l 368 353 l 99 519 l 111 596 z "},"«":{"ha":717,"x_min":11,"x_max":658,"o":"m 369 561 l 126 351 l 317 157 l 261 96 l 11 353 l 311 624 l 369 561 m 658 561 l 415 351 l 606 157 l 550 96 l 300 353 l 600 624 l 658 561 z "},"»":{"ha":721,"x_min":24,"x_max":671,"o":"m 313 158 l 556 368 l 365 563 l 421 624 l 671 367 l 371 96 l 313 158 m 24 158 l 267 368 l 76 563 l 132 624 l 382 367 l 82 96 l 24 158 z "},"‹":{"ha":428,"x_min":11,"x_max":369,"o":"m 369 561 l 126 351 l 317 157 l 261 96 l 11 353 l 311 624 l 369 561 z "},"›":{"ha":432,"x_min":24,"x_max":382,"o":"m 24 158 l 267 368 l 76 563 l 132 624 l 382 367 l 82 96 l 24 158 z "},"h":{"ha":649,"x_min":-31,"x_max":724,"o":"m 500 165 q 508 117 500 136 q 542 97 517 97 q 672 249 607 97 l 724 249 q 657 110 690 161 q 592 33 624 58 q 534 -1 561 7 q 486 -8 507 -8 q 383 37 414 -8 q 353 149 353 82 q 363 244 353 194 q 386 343 374 294 q 409 437 399 392 q 419 519 419 482 q 407 575 419 554 q 358 596 394 596 q 204 447 269 596 l 108 0 l -31 0 l 174 953 l 317 972 l 235 590 q 288 649 261 626 q 338 683 314 671 q 384 698 363 694 q 424 701 406 701 q 493 689 465 701 q 538 655 521 676 q 560 605 554 633 q 567 544 567 576 q 556 449 567 499 q 533 350 546 399 q 510 254 521 301 q 500 165 500 207 z "},"˝":{"ha":606,"x_min":167,"x_max":592,"o":"m 293 1042 l 411 1042 l 243 779 l 167 779 l 293 1042 m 474 1042 l 592 1042 l 424 779 l 347 779 l 474 1042 z "},"-":{"ha":446,"x_min":57,"x_max":357,"o":"m 336 321 l 57 321 l 79 418 l 357 418 l 336 321 z "},"i":{"ha":301,"x_min":11,"x_max":376,"o":"m 129 894 q 156 960 129 932 q 221 988 182 988 q 286 960 258 988 q 314 894 314 932 q 286 829 314 856 q 221 803 258 803 q 156 829 182 803 q 129 894 129 856 m 258 694 l 157 222 q 150 160 150 194 q 158 117 150 136 q 193 97 167 97 q 260 138 226 97 q 325 249 294 178 l 376 249 q 310 110 343 161 q 245 33 276 60 q 185 -1 214 7 q 135 -8 157 -8 q 75 4 99 -8 q 38 38 51 17 q 17 86 24 58 q 11 146 11 114 q 15 197 11 171 q 24 249 18 224 l 118 694 l 258 694 z "},"í":{"ha":301,"x_min":11,"x_max":410,"o":"m 258 694 l 157 222 q 150 160 150 194 q 158 117 150 136 q 193 97 167 97 q 260 138 226 97 q 325 249 294 178 l 376 249 q 310 110 343 161 q 245 33 276 60 q 185 -1 214 7 q 135 -8 157 -8 q 75 4 99 -8 q 38 38 51 17 q 17 86 24 58 q 11 146 11 114 q 15 197 11 171 q 24 249 18 224 l 118 694 l 258 694 m 292 1042 l 410 1042 l 242 779 l 165 779 l 292 1042 z "},"î":{"ha":301,"x_min":11,"x_max":410,"o":"m 258 694 l 157 222 q 150 160 150 194 q 158 117 150 136 q 193 97 167 97 q 260 138 226 97 q 325 249 294 178 l 376 249 q 310 110 343 161 q 245 33 276 60 q 185 -1 214 7 q 135 -8 157 -8 q 75 4 99 -8 q 38 38 51 17 q 17 86 24 58 q 11 146 11 114 q 15 197 11 171 q 24 249 18 224 l 118 694 l 258 694 m 379 779 l 289 919 l 64 779 l 17 779 l 296 1011 l 325 1011 l 410 779 l 379 779 z "},"ï":{"ha":301,"x_min":11,"x_max":406,"o":"m 258 694 l 157 222 q 150 160 150 194 q 158 117 150 136 q 193 97 167 97 q 260 138 226 97 q 325 249 294 178 l 376 249 q 310 110 343 161 q 245 33 276 60 q 185 -1 214 7 q 135 -8 157 -8 q 75 4 99 -8 q 38 38 51 17 q 17 86 24 58 q 11 146 11 114 q 15 197 11 171 q 24 249 18 224 l 118 694 l 258 694 m 32 892 q 53 944 32 922 q 104 965 74 965 q 156 944 135 965 q 178 892 178 922 q 156 840 178 861 q 104 819 135 819 q 53 840 74 819 q 32 892 32 861 m 260 892 q 281 944 260 922 q 332 965 301 965 q 384 944 363 965 q 406 892 406 922 q 384 840 406 861 q 332 819 363 819 q 281 840 301 819 q 260 892 260 861 z "},"ì":{"ha":301,"x_min":11,"x_max":376,"o":"m 258 694 l 157 222 q 150 160 150 194 q 158 117 150 136 q 193 97 167 97 q 260 138 226 97 q 325 249 294 178 l 376 249 q 310 110 343 161 q 245 33 276 60 q 185 -1 214 7 q 135 -8 157 -8 q 75 4 99 -8 q 38 38 51 17 q 17 86 24 58 q 11 146 11 114 q 15 197 11 171 q 24 249 18 224 l 118 694 l 258 694 m 222 779 l 146 779 l 61 1042 l 179 1042 l 222 779 z "},"ĳ":{"ha":631,"x_min":13,"x_max":706,"o":"m 586 694 l 444 28 q 513 56 482 40 q 569 98 544 72 q 615 160 594 124 q 654 249 636 196 l 706 249 q 653 128 681 175 q 593 52 626 82 q 520 6 560 22 q 433 -22 481 -11 l 415 -111 q 381 -232 400 -186 q 340 -303 363 -278 q 289 -338 317 -329 q 226 -347 261 -347 q 118 -319 163 -347 q 74 -222 74 -290 q 94 -158 74 -187 q 146 -101 114 -128 q 217 -54 178 -75 q 296 -18 257 -33 l 447 694 l 586 694 m 258 694 l 157 222 q 153 192 154 207 q 151 163 151 176 q 162 115 151 133 q 200 97 172 97 q 220 99 210 97 q 244 106 231 100 q 200 15 228 39 q 135 -8 172 -8 q 92 -1 114 -8 q 53 26 71 7 q 24 76 36 44 q 13 154 13 107 q 15 197 13 174 q 24 249 17 221 l 118 694 l 258 694 m 129 894 q 156 960 129 932 q 221 988 182 988 q 286 960 258 988 q 314 894 314 932 q 286 829 314 856 q 221 803 258 803 q 156 829 182 803 q 129 894 129 856 m 458 894 q 485 960 458 932 q 550 988 511 988 q 615 960 588 988 q 643 894 643 932 q 615 829 643 856 q 550 803 588 803 q 485 829 511 803 q 458 894 458 856 m 179 -275 q 239 -231 218 -275 q 275 -114 260 -186 l 285 -69 q 167 -143 207 -103 q 128 -221 128 -183 q 141 -260 128 -244 q 179 -275 154 -275 z "},"j":{"ha":301,"x_min":-256,"x_max":376,"o":"m 257 694 l 115 28 q 184 56 153 40 q 240 98 215 72 q 286 160 265 124 q 325 249 307 196 l 376 249 q 324 128 351 175 q 264 52 297 82 q 191 6 231 22 q 104 -22 151 -11 l 86 -111 q 52 -232 71 -186 q 10 -303 33 -278 q -40 -338 -12 -329 q -103 -347 -68 -347 q -211 -319 -167 -347 q -256 -222 -256 -290 q -235 -158 -256 -187 q -183 -101 -215 -128 q -112 -54 -151 -75 q -33 -18 -72 -33 l 118 694 l 257 694 m 129 894 q 156 960 129 932 q 221 988 182 988 q 286 960 258 988 q 314 894 314 932 q 286 829 314 856 q 221 803 258 803 q 156 829 182 803 q 129 894 129 856 m -150 -275 q -90 -231 -111 -275 q -54 -114 -69 -186 l -44 -69 q -161 -143 -121 -103 q -201 -221 -201 -183 q -188 -260 -201 -244 q -150 -275 -175 -275 z "},"k":{"ha":635,"x_min":-31,"x_max":710,"o":"m 317 972 l 208 469 l 494 694 l 629 694 l 356 506 q 366 506 361 506 q 376 507 371 507 q 446 494 418 507 q 489 460 474 482 q 510 410 504 439 q 517 350 517 382 q 512 301 517 325 q 501 253 507 276 q 491 207 496 229 q 486 165 486 185 q 494 117 486 136 q 528 97 503 97 q 658 249 593 97 l 710 249 q 643 110 676 161 q 578 33 610 58 q 520 -1 547 7 q 472 -8 493 -8 q 369 37 400 -8 q 339 149 339 82 q 344 195 339 171 q 354 243 349 219 q 365 288 360 267 q 369 325 369 308 q 358 381 369 360 q 311 401 347 401 q 171 294 232 401 l 108 0 l -31 0 l 174 953 l 317 972 z "},"l":{"ha":300,"x_min":10,"x_max":375,"o":"m 318 972 l 156 222 q 149 160 149 194 q 157 117 149 136 q 192 97 165 97 q 259 138 225 97 q 324 249 293 178 l 375 249 q 308 110 342 161 q 244 33 275 60 q 184 -1 213 7 q 133 -8 156 -8 q 74 4 97 -8 q 36 38 50 17 q 16 86 22 58 q 10 146 10 114 q 13 197 10 171 q 22 249 17 224 l 174 953 l 318 972 z "},"<":{"ha":497,"x_min":10,"x_max":449,"o":"m 435 519 l 100 353 l 369 219 l 353 140 l 10 331 l 22 388 l 449 596 l 435 519 z "},"¬":{"ha":629,"x_min":29,"x_max":536,"o":"m 465 71 l 353 71 l 404 321 l 29 321 l 51 418 l 536 418 l 465 71 z "},"ł":{"ha":300,"x_min":-24,"x_max":433,"o":"m 74 488 l 174 953 l 318 972 l 236 592 l 433 718 l 429 657 l 221 522 l 156 222 q 149 160 149 194 q 157 117 149 136 q 192 97 165 97 q 259 138 225 97 q 324 249 293 178 l 375 249 q 308 110 342 161 q 244 33 275 60 q 184 -1 213 7 q 133 -8 156 -8 q 74 4 97 -8 q 36 38 50 17 q 16 86 22 58 q 10 146 10 114 q 13 197 10 171 q 22 249 17 224 l 58 418 l -24 365 l -24 425 l 74 488 z "},"m":{"ha":963,"x_min":-31,"x_max":1038,"o":"m 814 165 q 822 117 814 136 q 856 97 831 97 q 986 249 921 97 l 1038 249 q 971 110 1004 161 q 906 33 938 58 q 848 -1 875 7 q 800 -8 821 -8 q 697 37 728 -8 q 667 149 667 82 q 677 244 667 194 q 700 343 688 294 q 723 437 713 392 q 733 519 733 482 q 721 575 733 554 q 672 596 708 596 q 597 560 628 596 q 532 447 565 524 l 436 0 l 296 0 l 394 464 q 400 499 399 483 q 401 526 401 514 q 386 581 401 565 q 344 596 371 596 q 269 559 300 596 q 204 447 238 522 l 108 0 l -31 0 l 117 694 l 257 694 l 238 606 q 331 685 286 668 q 410 701 375 701 q 511 668 479 701 q 550 585 543 635 q 601 647 575 624 q 651 682 626 669 q 697 698 675 694 q 738 701 718 701 q 807 689 779 701 q 851 655 835 676 q 874 605 868 633 q 881 544 881 576 q 870 449 881 499 q 847 350 860 399 q 824 254 835 301 q 814 165 814 207 z "},"−":{"ha":654,"x_min":57,"x_max":565,"o":"m 544 321 l 57 321 l 79 418 l 565 418 l 544 321 z "},"µ":{"ha":631,"x_min":-79,"x_max":706,"o":"m 588 694 l 486 222 q 479 160 479 194 q 488 117 479 136 q 522 97 496 97 q 590 138 556 97 q 654 249 624 178 l 706 249 q 639 110 672 161 q 574 33 606 60 q 515 -1 543 7 q 464 -8 486 -8 q 389 23 419 -8 q 353 125 358 54 q 263 23 313 54 q 167 -8 214 -8 q 106 4 135 -8 l 63 -197 l -79 -231 l 117 694 l 257 694 l 156 222 q 150 176 150 200 q 168 117 150 136 q 213 97 186 97 q 295 137 253 97 q 353 249 338 176 l 447 694 l 588 694 z "},"×":{"ha":557,"x_min":53,"x_max":475,"o":"m 403 158 l 271 289 l 124 142 l 57 208 l 204 356 l 53 508 l 124 581 l 275 426 l 408 560 l 475 493 l 342 360 l 472 231 l 403 158 z "},"n":{"ha":649,"x_min":-31,"x_max":724,"o":"m 257 694 l 235 590 q 288 649 261 626 q 338 683 314 671 q 384 698 363 694 q 424 701 406 701 q 493 689 465 701 q 538 655 521 676 q 560 605 554 633 q 567 544 567 576 q 556 449 567 499 q 533 350 546 399 q 510 254 521 301 q 500 165 500 207 q 508 117 500 136 q 542 97 517 97 q 672 249 607 97 l 724 249 q 657 110 690 161 q 592 33 624 58 q 534 -1 561 7 q 486 -8 507 -8 q 383 37 414 -8 q 353 149 353 82 q 363 244 353 194 q 386 343 374 294 q 409 437 399 392 q 419 519 419 482 q 407 575 419 554 q 358 596 394 596 q 204 447 272 596 l 108 0 l -31 0 l 117 694 l 257 694 z "},"ń":{"ha":649,"x_min":-31,"x_max":724,"o":"m 257 694 l 235 590 q 288 649 261 626 q 338 683 314 671 q 384 698 363 694 q 424 701 406 701 q 493 689 465 701 q 538 655 521 676 q 560 605 554 633 q 567 544 567 576 q 556 449 567 499 q 533 350 546 399 q 510 254 521 301 q 500 165 500 207 q 508 117 500 136 q 542 97 517 97 q 672 249 607 97 l 724 249 q 657 110 690 161 q 592 33 624 58 q 534 -1 561 7 q 486 -8 507 -8 q 383 37 414 -8 q 353 149 353 82 q 363 244 353 194 q 386 343 374 294 q 409 437 399 392 q 419 519 419 482 q 407 575 419 554 q 358 596 394 596 q 204 447 272 596 l 108 0 l -31 0 l 117 694 l 257 694 m 476 1042 l 594 1042 l 426 779 l 350 779 l 476 1042 z "},"ñ":{"ha":649,"x_min":-31,"x_max":724,"o":"m 257 694 l 235 590 q 288 649 261 626 q 338 683 314 671 q 384 698 363 694 q 424 701 406 701 q 493 689 465 701 q 538 655 521 676 q 560 605 554 633 q 567 544 567 576 q 556 449 567 499 q 533 350 546 399 q 510 254 521 301 q 500 165 500 207 q 508 117 500 136 q 542 97 517 97 q 672 249 607 97 l 724 249 q 657 110 690 161 q 592 33 624 58 q 534 -1 561 7 q 486 -8 507 -8 q 383 37 414 -8 q 353 149 353 82 q 363 244 353 194 q 386 343 374 294 q 409 437 399 392 q 419 519 419 482 q 407 575 419 554 q 358 596 394 596 q 204 447 272 596 l 108 0 l -31 0 l 117 694 l 257 694 m 647 924 q 623 879 642 901 q 576 839 604 857 q 515 810 549 821 q 446 799 481 799 q 388 806 415 799 q 336 822 361 813 q 286 838 311 831 q 236 844 261 844 q 153 811 188 844 l 146 814 q 230 906 176 875 q 354 936 283 936 q 415 930 389 936 q 465 916 442 924 q 511 902 489 908 q 561 896 533 896 q 606 903 585 896 q 640 924 626 910 l 647 924 z "},"#":{"ha":729,"x_min":-6,"x_max":706,"o":"m 410 196 l 211 196 l 160 -37 l 122 -37 l 164 196 l -6 196 l 14 288 l 181 288 l 211 463 l 50 463 l 69 554 l 228 554 l 308 997 l 389 997 l 290 554 l 474 554 l 554 997 l 635 997 l 536 554 l 706 554 l 688 463 l 517 463 l 478 288 l 650 288 l 632 196 l 457 196 l 406 -37 l 368 -37 l 410 196 m 232 288 l 426 288 l 457 463 l 271 463 l 232 288 z "},"o":{"ha":582,"x_min":11,"x_max":772,"o":"m 375 701 q 494 645 458 701 q 532 482 531 589 q 760 565 656 482 l 772 528 q 669 453 733 483 q 529 414 604 424 q 499 247 522 324 q 436 113 475 169 q 344 24 397 56 q 228 -8 292 -8 q 142 3 182 -8 q 74 42 103 15 q 28 110 44 68 q 11 211 11 151 q 18 303 11 251 q 42 409 25 354 q 85 516 58 464 q 153 610 113 568 q 249 676 194 651 q 375 701 303 701 m 281 97 q 341 119 311 97 q 395 181 371 140 q 437 278 419 221 q 461 410 454 336 q 416 426 426 410 q 406 467 406 442 q 422 519 406 503 q 465 538 439 535 q 438 606 460 586 q 382 625 417 625 q 317 606 347 625 q 263 555 288 586 q 220 483 239 524 q 189 399 201 442 q 170 313 176 356 q 164 236 164 271 q 190 131 164 164 q 281 97 215 97 z "},"ó":{"ha":582,"x_min":11,"x_max":772,"o":"m 375 701 q 494 645 458 701 q 532 482 531 589 q 543 479 538 479 q 556 479 549 479 q 608 488 579 479 q 665 508 636 496 q 718 536 693 521 q 760 565 743 551 l 772 528 q 669 453 733 483 q 529 414 604 424 q 499 247 522 324 q 436 113 475 169 q 344 24 397 56 q 228 -8 292 -8 q 142 3 182 -8 q 74 42 103 15 q 28 110 44 68 q 11 211 11 151 q 18 303 11 251 q 42 409 25 354 q 85 516 58 464 q 153 610 113 568 q 249 676 194 651 q 375 701 303 701 m 281 97 q 341 119 311 97 q 395 181 371 140 q 437 278 419 221 q 461 410 454 336 q 416 426 426 410 q 406 467 406 442 q 422 519 406 503 q 465 538 439 535 q 438 606 460 586 q 382 625 417 625 q 317 606 347 625 q 263 555 288 586 q 220 483 239 524 q 189 399 201 442 q 170 313 176 356 q 164 236 164 271 q 190 131 164 164 q 281 97 215 97 m 469 1042 l 588 1042 l 419 779 l 343 779 l 469 1042 z "},"ô":{"ha":582,"x_min":11,"x_max":772,"o":"m 375 701 q 494 645 458 701 q 532 482 531 589 q 547 481 536 481 q 601 488 571 481 q 660 508 631 496 q 716 536 689 521 q 760 565 743 551 l 772 528 q 669 453 733 483 q 529 414 604 424 q 499 247 522 324 q 436 113 475 169 q 344 24 397 56 q 228 -8 292 -8 q 142 3 182 -8 q 74 42 103 15 q 28 110 44 68 q 11 211 11 151 q 18 303 11 251 q 42 409 25 354 q 85 516 58 464 q 153 610 113 568 q 249 676 194 651 q 375 701 303 701 m 281 97 q 341 119 311 97 q 395 181 371 140 q 437 278 419 221 q 461 410 454 336 q 416 426 426 410 q 406 467 406 442 q 422 519 406 503 q 465 538 439 535 q 438 606 460 586 q 382 625 417 625 q 317 606 347 625 q 263 555 288 586 q 220 483 239 524 q 189 399 201 442 q 170 313 176 356 q 164 236 164 271 q 190 131 164 164 q 281 97 215 97 m 533 779 l 443 919 l 218 779 l 171 779 l 450 1011 l 479 1011 l 564 779 l 533 779 z "},"ö":{"ha":582,"x_min":11,"x_max":772,"o":"m 375 701 q 494 645 458 701 q 532 482 531 589 q 557 478 542 478 q 609 487 581 478 q 666 509 638 496 q 719 538 694 522 q 760 565 743 553 l 772 528 q 669 453 733 483 q 529 414 604 424 q 499 247 522 324 q 436 113 475 169 q 344 24 397 56 q 228 -8 292 -8 q 142 3 182 -8 q 74 42 103 15 q 28 110 44 68 q 11 211 11 151 q 18 303 11 251 q 42 409 25 354 q 85 516 58 464 q 153 610 113 568 q 249 676 194 651 q 375 701 303 701 m 281 97 q 341 119 311 97 q 395 181 371 140 q 437 278 419 221 q 461 410 454 336 q 416 426 426 410 q 406 467 406 442 q 422 519 406 503 q 465 538 439 535 q 438 606 460 586 q 382 625 417 625 q 317 606 347 625 q 263 555 288 586 q 220 483 239 524 q 189 399 201 442 q 170 313 176 356 q 164 236 164 271 q 190 131 164 164 q 281 97 215 97 m 200 892 q 221 944 200 922 q 272 965 242 965 q 324 944 303 965 q 346 892 346 922 q 324 840 346 861 q 272 819 303 819 q 221 840 242 819 q 200 892 200 861 m 428 892 q 449 944 428 922 q 500 965 469 965 q 552 944 531 965 q 574 892 574 922 q 552 840 574 861 q 500 819 531 819 q 449 840 469 819 q 428 892 428 861 z "},"œ":{"ha":936,"x_min":11,"x_max":1010,"o":"m 375 701 q 483 659 446 701 q 529 536 519 617 q 633 653 569 606 q 786 701 696 701 q 842 695 815 701 q 889 673 868 689 q 922 629 910 657 q 935 558 935 601 q 845 367 935 440 q 594 278 756 294 q 593 256 593 267 q 593 235 593 246 q 620 131 593 164 q 714 97 647 97 q 846 132 781 97 q 965 249 911 167 l 1010 249 q 943 151 982 197 q 857 69 904 104 q 756 13 810 33 q 647 -8 703 -8 q 526 25 582 -8 q 451 135 471 58 q 355 30 411 68 q 228 -8 299 -8 q 142 3 182 -8 q 74 42 103 15 q 28 110 44 68 q 11 211 11 151 q 18 303 11 251 q 42 409 25 354 q 85 516 58 464 q 153 610 113 568 q 249 676 194 651 q 375 701 303 701 m 281 97 q 341 119 311 97 q 395 181 371 140 q 437 278 419 221 q 461 410 454 336 q 416 426 426 410 q 406 467 406 442 q 422 519 406 503 q 465 538 439 535 q 438 606 460 586 q 382 625 417 625 q 317 606 347 625 q 263 555 288 586 q 220 483 239 524 q 189 399 201 442 q 170 313 176 356 q 164 236 164 271 q 190 131 164 164 q 281 97 215 97 m 799 633 q 727 606 760 633 q 669 536 694 579 q 627 440 644 493 q 601 332 610 386 q 788 412 718 349 q 857 569 857 475 q 844 613 857 593 q 799 633 832 633 z "},"˛":{"ha":404,"x_min":63,"x_max":326,"o":"m 253 7 q 219 -11 236 1 q 190 -40 203 -24 q 167 -76 176 -57 q 158 -117 158 -96 q 176 -173 158 -146 q 228 -200 194 -200 q 279 -181 256 -200 q 326 -139 303 -162 l 324 -182 q 296 -209 311 -194 q 262 -237 281 -224 q 221 -259 243 -250 q 172 -268 199 -268 q 123 -258 143 -268 q 89 -232 103 -247 q 69 -197 75 -217 q 63 -160 63 -178 q 90 -77 63 -121 q 169 7 117 -33 l 253 7 z "},"ò":{"ha":582,"x_min":11,"x_max":772,"o":"m 375 701 q 494 645 458 701 q 532 482 531 589 q 542 480 538 481 q 554 479 547 479 q 606 488 578 479 q 663 508 635 496 q 717 536 692 521 q 760 565 743 551 l 772 528 q 669 453 733 483 q 529 414 604 424 q 499 247 522 324 q 436 113 475 169 q 344 24 397 56 q 228 -8 292 -8 q 142 3 182 -8 q 74 42 103 15 q 28 110 44 68 q 11 211 11 151 q 18 303 11 251 q 42 409 25 354 q 85 516 58 464 q 153 610 113 568 q 249 676 194 651 q 375 701 303 701 m 281 97 q 341 119 311 97 q 395 181 371 140 q 437 278 419 221 q 461 410 454 336 q 416 426 426 410 q 406 467 406 442 q 422 519 406 503 q 465 538 439 535 q 438 606 460 586 q 382 625 417 625 q 317 606 347 625 q 263 555 288 586 q 220 483 239 524 q 189 399 201 442 q 170 313 176 356 q 164 236 164 271 q 190 131 164 164 q 281 97 215 97 m 410 779 l 333 779 l 249 1042 l 367 1042 l 410 779 z "},"ő":{"ha":582,"x_min":11,"x_max":772,"o":"m 375 701 q 494 645 458 701 q 532 482 531 589 q 760 565 656 482 l 772 528 q 669 453 733 483 q 529 414 604 424 q 499 247 522 324 q 436 113 475 169 q 344 24 397 56 q 228 -8 292 -8 q 142 3 182 -8 q 74 42 103 15 q 28 110 44 68 q 11 211 11 151 q 18 303 11 251 q 42 409 25 354 q 85 516 58 464 q 153 610 113 568 q 249 676 194 651 q 375 701 303 701 m 281 97 q 341 119 311 97 q 395 181 371 140 q 437 278 419 221 q 461 410 454 336 q 416 426 426 410 q 406 467 406 442 q 422 519 406 503 q 465 538 439 535 q 438 606 460 586 q 382 625 417 625 q 317 606 347 625 q 263 555 288 586 q 220 483 239 524 q 189 399 201 442 q 170 313 176 356 q 164 236 164 271 q 190 131 164 164 q 281 97 215 97 m 396 1042 l 514 1042 l 346 779 l 269 779 l 396 1042 m 576 1042 l 694 1042 l 526 779 l 450 779 l 576 1042 z "},"½":{"ha":933,"x_min":90,"x_max":846,"o":"m 174 0 l 90 0 l 626 1042 l 710 1042 l 174 0 m 549 92 q 631 83 593 92 q 704 75 668 75 q 764 87 735 75 q 825 131 793 99 q 826 117 825 124 q 826 103 826 110 q 807 29 826 58 q 729 0 788 0 q 681 4 706 0 q 633 13 657 8 q 587 21 608 17 q 549 25 565 25 q 509 20 529 25 q 467 4 489 15 q 465 17 465 11 q 464 29 464 22 q 486 103 464 68 q 542 172 508 139 q 613 236 575 204 q 685 302 651 268 q 740 374 718 336 q 763 456 763 411 q 738 514 763 496 q 685 532 714 532 q 633 516 657 532 q 610 468 610 500 q 615 436 610 454 q 633 410 621 418 q 606 392 619 397 q 579 388 592 388 q 547 406 560 388 q 535 458 535 424 q 545 497 535 478 q 575 533 556 517 q 624 558 594 549 q 693 568 654 568 q 811 535 776 568 q 846 449 846 503 q 809 334 846 383 q 722 244 772 285 q 623 167 672 203 q 549 92 574 131 m 179 421 l 99 421 l 206 889 l 129 889 l 139 924 q 172 926 153 924 q 214 936 192 929 q 260 954 236 943 q 307 982 285 965 l 179 421 z "},"¼":{"ha":918,"x_min":96,"x_max":865,"o":"m 206 0 l 122 0 l 658 1042 l 742 1042 l 206 0 m 865 564 l 793 251 l 844 251 l 832 208 l 783 208 l 736 1 l 651 1 l 699 208 l 489 208 q 518 276 499 239 q 556 353 538 313 q 588 435 574 393 q 601 518 601 476 q 596 564 601 543 q 642 544 619 564 q 665 493 665 525 q 653 427 665 458 q 622 367 640 396 q 585 309 604 338 q 553 251 567 281 l 708 251 l 776 553 l 865 564 m 176 421 l 96 421 l 203 889 l 126 889 l 136 924 q 169 926 150 924 q 211 936 189 929 q 258 954 233 943 q 304 982 282 965 l 176 421 z "},"¹":{"ha":279,"x_min":113,"x_max":321,"o":"m 193 479 l 113 479 l 219 947 l 143 947 l 153 982 q 186 985 167 982 q 228 994 206 988 q 274 1013 250 1001 q 321 1040 299 1024 l 193 479 z "},"ª":{"ha":463,"x_min":132,"x_max":481,"o":"m 481 1028 l 422 776 q 420 762 421 769 q 419 746 419 754 q 425 719 419 731 q 449 707 431 707 q 474 711 457 707 q 449 661 464 675 q 411 647 433 647 q 369 665 386 647 q 349 725 351 683 q 299 670 331 693 q 231 647 268 647 q 163 676 193 647 q 132 774 132 704 q 144 856 132 811 q 180 941 156 901 q 242 1008 204 981 q 331 1035 279 1035 q 369 1024 350 1035 q 394 989 389 1014 l 403 1028 l 481 1028 m 267 707 q 316 731 290 707 q 349 792 342 756 l 386 957 q 374 981 383 969 q 347 992 365 992 q 286 969 311 992 q 246 915 261 947 q 223 846 231 882 q 215 783 215 810 q 230 723 215 739 q 267 707 244 707 z "},"º":{"ha":422,"x_min":131,"x_max":493,"o":"m 336 1036 q 422 949 410 1036 q 429 935 426 946 q 461 949 446 935 q 483 974 476 963 l 493 957 q 466 910 482 931 q 424 879 450 889 q 406 787 419 829 q 371 713 393 744 q 319 664 349 682 q 256 646 290 646 q 168 674 206 646 q 131 767 131 701 q 140 846 131 800 q 174 934 150 892 q 238 1006 199 976 q 336 1036 278 1036 m 285 704 q 347 749 318 704 q 385 874 376 794 q 356 906 356 874 q 365 935 356 924 q 386 950 374 946 q 340 994 378 994 q 288 972 311 994 q 248 916 264 949 q 223 847 232 883 q 214 781 214 810 q 285 704 214 704 z "},"ø":{"ha":582,"x_min":11,"x_max":772,"o":"m 153 -143 l 182 -6 q 59 56 107 6 q 11 211 11 107 q 18 300 11 250 q 40 403 25 350 q 81 507 56 456 q 144 599 107 558 q 233 668 182 640 q 350 700 283 696 l 379 840 l 451 840 l 421 696 q 505 626 479 681 q 532 482 531 572 q 557 479 539 479 q 609 488 581 479 q 665 508 638 496 q 718 536 693 521 q 760 565 743 551 l 772 528 q 669 453 733 483 q 529 414 604 424 q 501 254 524 328 q 444 125 479 181 q 360 35 408 69 q 254 -7 313 0 l 225 -143 l 153 -143 m 281 97 q 341 119 311 97 q 395 181 371 140 q 437 278 419 221 q 461 410 454 336 q 416 426 426 410 q 406 467 406 442 q 422 519 406 503 q 465 538 439 535 q 438 606 460 586 q 382 625 417 625 q 317 606 347 625 q 263 555 288 586 q 220 483 239 524 q 189 399 201 442 q 170 313 176 356 q 164 236 164 271 q 190 131 164 164 q 281 97 215 97 z "},"õ":{"ha":582,"x_min":11,"x_max":772,"o":"m 375 701 q 494 645 458 701 q 532 482 531 589 q 553 479 543 479 q 606 488 576 479 q 663 508 635 496 q 717 536 692 521 q 760 565 743 551 l 772 528 q 669 453 733 483 q 529 414 604 424 q 499 247 522 324 q 436 113 475 169 q 344 24 397 56 q 228 -8 292 -8 q 142 3 182 -8 q 74 42 103 15 q 28 110 44 68 q 11 211 11 151 q 18 303 11 251 q 42 409 25 354 q 85 516 58 464 q 153 610 113 568 q 249 676 194 651 q 375 701 303 701 m 281 97 q 341 119 311 97 q 395 181 371 140 q 437 278 419 221 q 461 410 454 336 q 416 426 426 410 q 406 467 406 442 q 422 519 406 503 q 465 538 439 535 q 438 606 460 586 q 382 625 417 625 q 317 606 347 625 q 263 555 288 586 q 220 483 239 524 q 189 399 201 442 q 170 313 176 356 q 164 236 164 271 q 190 131 164 164 q 281 97 215 97 m 629 924 q 605 879 624 901 q 558 839 586 857 q 497 810 531 821 q 428 799 463 799 q 370 806 397 799 q 318 822 343 813 q 268 838 293 831 q 218 844 243 844 q 135 811 169 844 l 128 814 q 212 906 158 875 q 336 936 265 936 q 397 930 371 936 q 447 916 424 924 q 493 902 471 908 q 543 896 515 896 q 588 903 567 896 q 622 924 608 910 l 629 924 z "},"p":{"ha":588,"x_min":-104,"x_max":568,"o":"m 268 746 l 244 639 q 316 684 276 667 q 401 701 356 701 q 468 689 438 701 q 521 649 499 676 q 556 577 543 621 q 568 469 568 533 q 561 372 568 425 q 539 266 554 319 q 498 163 524 213 q 435 76 472 114 q 347 15 397 38 q 233 -8 297 -8 q 169 10 196 -8 q 122 60 142 29 l 43 -312 l -104 -347 l 128 746 l 268 746 m 335 611 q 276 593 303 611 q 225 543 249 575 l 136 129 q 173 92 151 103 q 211 81 194 81 q 315 123 274 81 q 383 226 357 165 q 419 352 408 286 q 431 467 431 418 q 422 536 431 508 q 400 581 414 564 q 369 604 386 597 q 335 611 353 611 z "},"¶":{"ha":721,"x_min":90,"x_max":694,"o":"m 213 -112 l 319 396 q 218 429 261 403 q 147 494 175 456 q 104 582 118 533 q 90 682 90 631 q 113 810 90 746 q 178 926 135 875 q 287 1008 222 976 q 438 1040 351 1040 q 536 1028 489 1040 q 618 988 583 1015 q 674 917 653 961 q 694 811 694 874 q 692 763 694 788 q 683 711 689 739 l 507 -112 l 407 -112 l 519 422 q 472 409 499 415 q 418 399 446 403 l 311 -112 l 213 -112 z "},"(":{"ha":378,"x_min":17,"x_max":478,"o":"m 478 1004 q 328 870 397 965 q 209 649 260 775 q 130 381 158 524 q 101 106 101 239 q 126 -126 101 -18 q 213 -314 150 -235 l 174 -347 q 54 -131 92 -257 q 17 139 17 -4 q 49 415 17 275 q 140 677 81 554 q 283 896 199 800 q 469 1042 367 992 l 478 1004 z "},")":{"ha":378,"x_min":-140,"x_max":321,"o":"m -140 -310 q 9 -176 -60 -271 q 128 45 78 -81 q 208 313 179 171 q 236 589 236 456 q 212 821 236 713 q 125 1008 188 929 l 164 1042 q 283 825 246 951 q 321 556 321 699 q 289 280 321 419 q 198 17 257 140 q 55 -201 139 -106 q -132 -347 -29 -297 l -140 -310 z "},"%":{"ha":854,"x_min":94,"x_max":782,"o":"m 217 0 l 133 0 l 669 1042 l 753 1042 l 217 0 m 317 975 q 405 935 379 975 q 431 822 431 894 q 417 720 431 774 q 377 622 404 667 q 308 549 350 578 q 208 519 265 519 q 151 532 174 519 q 117 565 129 544 q 99 615 104 586 q 94 675 94 643 q 111 794 94 739 q 157 889 128 849 q 227 952 186 929 q 317 975 268 975 m 171 665 q 174 632 171 649 q 183 603 176 615 q 200 582 189 590 q 229 574 211 574 q 282 595 258 574 q 324 653 306 617 q 351 740 342 690 q 361 843 361 789 q 352 905 361 879 q 313 931 343 931 q 258 910 283 931 q 213 852 232 889 q 182 767 193 815 q 171 665 171 719 m 668 456 q 756 415 731 456 q 782 303 782 375 q 769 201 782 254 q 728 103 756 147 q 659 29 701 58 q 560 0 617 0 q 503 13 525 0 q 468 46 481 25 q 451 95 456 67 q 446 156 446 124 q 463 274 446 219 q 508 369 479 329 q 578 433 538 410 q 668 456 619 456 m 522 146 q 525 113 522 129 q 534 83 528 96 q 551 63 540 71 q 581 54 563 54 q 633 76 610 54 q 675 134 657 97 q 703 220 693 171 q 713 324 713 269 q 703 385 713 360 q 664 411 694 411 q 609 390 635 411 q 564 333 583 369 q 533 248 544 296 q 522 146 522 200 z "},".":{"ha":296,"x_min":-17,"x_max":168,"o":"m -17 85 q 10 150 -17 122 q 75 178 36 178 q 140 150 113 178 q 168 85 168 122 q 140 19 168 46 q 75 -7 113 -7 q 10 19 36 -7 q -17 85 -17 46 z "},"·":{"ha":357,"x_min":49,"x_max":278,"o":"m 49 371 q 81 453 49 419 q 163 486 114 486 q 244 453 211 486 q 278 371 278 419 q 244 290 278 322 q 163 257 211 257 q 81 290 114 257 q 49 371 49 322 z "},"‰":{"ha":1240,"x_min":96,"x_max":1169,"o":"m 218 0 l 135 0 l 671 1042 l 754 1042 l 218 0 m 318 975 q 406 935 381 975 q 432 822 432 894 q 419 720 432 774 q 378 622 406 667 q 309 549 351 578 q 210 519 267 519 q 153 532 175 519 q 118 565 131 544 q 101 615 106 586 q 96 675 96 643 q 113 794 96 739 q 158 889 129 849 q 228 952 188 929 q 318 975 269 975 m 172 665 q 175 632 172 649 q 184 603 178 615 q 201 582 190 590 q 231 574 213 574 q 283 595 260 574 q 325 653 307 617 q 353 740 343 690 q 363 843 363 789 q 353 905 363 879 q 314 931 344 931 q 259 910 285 931 q 214 852 233 889 q 183 767 194 815 q 172 665 172 719 m 669 456 q 758 415 732 456 q 783 303 783 375 q 770 201 783 254 q 730 103 757 147 q 660 29 703 58 q 561 0 618 0 q 504 13 526 0 q 469 46 482 25 q 452 95 457 67 q 447 156 447 124 q 464 274 447 219 q 510 369 481 329 q 580 433 539 410 q 669 456 621 456 m 524 146 q 526 113 524 129 q 535 83 529 96 q 553 63 542 71 q 582 54 564 54 q 635 76 611 54 q 676 134 658 97 q 704 220 694 171 q 714 324 714 269 q 705 385 714 360 q 665 411 696 411 q 610 390 636 411 q 565 333 585 369 q 535 248 546 296 q 524 146 524 200 m 1056 456 q 1144 415 1118 456 q 1169 303 1169 375 q 1156 201 1169 254 q 1116 103 1143 147 q 1047 29 1089 58 q 947 0 1004 0 q 890 13 913 0 q 856 46 868 25 q 838 95 843 67 q 833 156 833 124 q 850 274 833 219 q 896 369 867 329 q 966 433 925 410 q 1056 456 1007 456 m 910 146 q 913 113 910 129 q 922 83 915 96 q 939 63 928 71 q 968 54 950 54 q 1021 76 997 54 q 1063 134 1044 97 q 1090 220 1081 171 q 1100 324 1100 269 q 1091 385 1100 360 q 1051 411 1082 411 q 997 390 1022 411 q 951 333 971 369 q 921 248 932 296 q 910 146 910 200 z "},"+":{"ha":596,"x_min":21,"x_max":553,"o":"m 532 343 l 333 343 l 290 144 l 175 144 l 218 343 l 21 343 l 43 440 l 239 440 l 276 610 l 392 610 l 354 440 l 553 440 l 532 343 z "},"±":{"ha":665,"x_min":4,"x_max":621,"o":"m 600 488 l 401 488 l 358 289 l 243 289 l 286 488 l 89 488 l 111 585 l 307 585 l 344 754 l 460 754 l 422 585 l 621 585 l 600 488 m 517 107 l 4 107 l 26 204 l 538 204 l 517 107 z "},"q":{"ha":618,"x_min":7,"x_max":629,"o":"m 629 694 l 415 -312 l 268 -347 l 357 74 q 279 15 324 38 q 185 -8 235 -8 q 119 3 151 -8 q 63 42 88 15 q 22 112 38 69 q 7 215 7 154 q 17 317 7 263 q 47 425 28 371 q 97 529 67 479 q 167 617 128 579 q 255 678 206 656 q 363 701 304 701 q 430 687 396 701 q 475 631 464 672 l 489 694 l 629 694 m 243 97 q 284 107 263 97 q 326 134 306 117 q 363 175 346 151 q 389 226 379 199 l 461 568 q 440 607 457 589 q 393 625 424 625 q 292 583 336 625 q 217 482 247 542 q 171 354 186 422 q 156 235 156 286 q 179 126 156 156 q 243 97 203 97 z "},"?":{"ha":581,"x_min":101,"x_max":615,"o":"m 615 804 q 593 699 615 744 q 537 618 571 654 q 462 550 503 582 q 382 485 421 518 q 313 413 343 451 q 268 322 282 374 l 204 322 q 225 410 204 371 q 277 485 246 450 q 344 553 308 519 q 412 623 381 586 q 464 703 443 660 q 485 801 485 746 q 449 885 485 860 q 367 911 414 911 q 312 902 339 911 q 263 876 285 893 q 228 835 242 858 q 214 782 214 811 q 219 756 214 769 q 235 728 224 742 q 264 705 246 715 q 308 690 282 694 q 263 647 290 661 q 207 632 236 632 q 134 661 167 632 q 101 749 101 690 q 117 823 101 783 q 169 896 133 863 q 259 951 204 929 q 393 972 314 972 q 493 959 451 972 q 562 923 535 946 q 602 869 589 900 q 615 804 615 839 m 111 92 q 138 157 111 129 q 203 185 164 185 q 268 157 240 185 q 296 92 296 129 q 268 26 296 53 q 203 0 240 0 q 138 26 164 0 q 111 92 111 53 z "},"¿":{"ha":592,"x_min":-67,"x_max":447,"o":"m -67 -175 q -44 -70 -67 -115 q 12 11 -22 -25 q 87 79 46 47 q 167 144 128 111 q 236 217 206 178 q 281 307 267 256 l 344 307 q 324 219 344 258 q 272 144 303 179 q 204 76 240 110 q 137 6 168 43 q 85 -74 106 -31 q 64 -172 64 -117 q 99 -256 64 -231 q 182 -282 135 -282 q 236 -273 208 -282 q 285 -247 264 -264 q 321 -206 307 -229 q 335 -153 335 -182 q 330 -126 335 -140 q 314 -99 325 -112 q 285 -76 303 -86 q 240 -61 267 -65 q 285 -17 258 -32 q 342 -3 313 -3 q 415 -32 382 -3 q 447 -119 447 -61 q 431 -194 447 -156 q 380 -267 415 -233 q 290 -322 344 -300 q 156 -343 235 -343 q 56 -330 97 -343 q -13 -294 14 -317 q -53 -240 -40 -271 q -67 -175 -67 -210 m 438 538 q 411 472 438 500 q 346 444 385 444 q 281 472 308 444 q 253 538 253 500 q 281 603 253 576 q 346 629 308 629 q 411 603 385 629 q 438 538 438 576 z "},"\"":{"ha":465,"x_min":129,"x_max":553,"o":"m 214 1042 l 332 1042 l 206 779 l 129 779 l 214 1042 m 435 1042 l 553 1042 l 426 779 l 350 779 l 435 1042 z "},"„":{"ha":601,"x_min":-25,"x_max":469,"o":"m -17 85 q 12 154 -17 131 q 75 178 40 178 q 142 154 122 178 q 163 94 163 131 q 147 19 163 60 q 107 -60 132 -22 q 51 -130 82 -99 q -12 -175 19 -161 q -25 -151 -25 -167 q -17 -118 -25 -135 q 2 -85 -8 -101 q 22 -52 13 -68 q 31 -21 31 -36 q 23 7 31 -1 q 7 23 15 15 q -9 44 -1 31 q -17 85 -17 57 m 290 85 q 319 154 290 131 q 382 178 347 178 q 449 154 429 178 q 469 94 469 131 q 454 19 469 60 q 414 -60 439 -22 q 358 -130 389 -99 q 294 -175 326 -161 q 282 -151 282 -167 q 290 -118 282 -135 q 309 -85 299 -101 q 328 -52 319 -68 q 338 -21 338 -36 q 330 7 338 -1 q 314 23 322 15 q 298 44 306 31 q 290 85 290 57 z "},"“":{"ha":596,"x_min":126,"x_max":621,"o":"m 308 779 q 280 710 308 733 q 217 686 251 686 q 147 715 168 686 q 126 779 126 743 q 142 853 126 814 q 182 928 157 892 q 239 994 207 965 q 304 1039 271 1024 q 317 1015 317 1031 q 308 982 317 999 q 288 949 299 965 q 269 916 278 932 q 261 885 261 900 q 269 857 261 865 q 285 841 276 849 q 301 820 293 833 q 308 779 308 807 m 613 779 q 584 710 613 733 q 521 686 556 686 q 451 715 472 686 q 431 779 431 743 q 446 853 431 814 q 486 928 461 892 q 543 994 511 965 q 608 1039 575 1024 q 621 1015 621 1031 q 612 982 621 999 q 592 949 603 965 q 574 916 582 932 q 565 885 565 900 q 573 857 565 865 q 589 841 581 849 q 605 820 597 833 q 613 779 613 807 z "},"”":{"ha":592,"x_min":149,"x_max":643,"o":"m 461 946 q 490 1015 461 992 q 553 1039 518 1039 q 622 1010 601 1039 q 643 946 643 982 q 628 872 643 911 q 588 796 613 832 q 531 730 563 760 q 465 686 499 700 q 453 710 453 694 q 461 743 453 726 q 480 776 469 760 q 499 809 490 793 q 508 840 508 825 q 501 868 508 860 q 485 884 493 876 q 469 905 476 892 q 461 946 461 918 m 157 946 q 185 1015 157 992 q 249 1039 214 1039 q 318 1010 297 1039 q 339 946 339 982 q 324 872 339 911 q 283 796 308 832 q 226 730 258 760 q 161 686 194 700 q 149 710 149 694 q 157 743 149 726 q 176 776 165 760 q 195 809 186 793 q 204 840 204 825 q 197 868 204 860 q 181 884 189 876 q 165 905 172 892 q 157 946 157 918 z "},"‘":{"ha":292,"x_min":126,"x_max":317,"o":"m 308 779 q 280 710 308 733 q 217 686 251 686 q 147 715 168 686 q 126 779 126 743 q 142 853 126 814 q 182 928 157 892 q 239 994 207 965 q 304 1039 271 1024 q 317 1015 317 1031 q 308 982 317 999 q 288 949 299 965 q 269 916 278 932 q 261 885 261 900 q 269 857 261 865 q 285 841 276 849 q 301 820 293 833 q 308 779 308 807 z "},"’":{"ha":288,"x_min":149,"x_max":339,"o":"m 157 946 q 185 1015 157 992 q 249 1039 214 1039 q 318 1010 297 1039 q 339 946 339 982 q 324 872 339 911 q 283 796 308 832 q 226 730 258 760 q 161 686 194 700 q 149 710 149 694 q 157 743 149 726 q 176 776 165 760 q 195 809 186 793 q 204 840 204 825 q 197 868 204 860 q 181 884 189 876 q 165 905 172 892 q 157 946 157 918 z "},"‚":{"ha":294,"x_min":-25,"x_max":163,"o":"m -17 85 q 12 154 -17 131 q 75 178 40 178 q 142 154 122 178 q 163 94 163 131 q 147 19 163 60 q 107 -60 132 -22 q 51 -130 82 -99 q -12 -175 19 -161 q -25 -151 -25 -167 q -17 -118 -25 -135 q 2 -85 -8 -101 q 22 -52 13 -68 q 31 -21 31 -36 q 23 7 31 -1 q 7 23 15 15 q -9 44 -1 31 q -17 85 -17 57 z "},"'":{"ha":244,"x_min":129,"x_max":332,"o":"m 214 1042 l 332 1042 l 206 779 l 129 779 l 214 1042 z "},"r":{"ha":467,"x_min":-31,"x_max":496,"o":"m 257 694 l 232 581 q 272 624 251 603 q 316 663 293 646 q 364 691 339 681 q 418 701 389 701 q 478 683 460 701 q 496 636 496 664 q 487 592 496 610 q 465 565 478 575 q 439 550 453 554 q 415 546 425 546 q 397 551 403 546 q 384 563 390 557 q 369 575 378 569 q 346 581 361 581 q 281 559 315 581 q 218 513 247 538 l 108 0 l -31 0 l 117 694 l 257 694 z "},"®":{"ha":783,"x_min":60,"x_max":732,"o":"m 396 110 q 265 138 326 110 q 158 213 204 165 q 86 326 113 261 q 60 464 60 390 q 86 603 60 539 q 158 716 113 668 q 265 792 204 764 q 396 819 326 819 q 525 792 464 819 q 632 717 586 765 q 705 605 678 669 q 732 465 732 540 q 705 326 732 390 q 632 213 678 261 q 525 138 586 165 q 396 110 464 110 m 96 464 q 120 335 96 394 q 185 233 144 276 q 281 164 226 189 q 399 139 336 139 q 515 164 460 139 q 610 233 569 189 q 676 335 651 276 q 700 464 700 394 q 676 592 700 532 q 610 695 651 651 q 515 764 569 739 q 399 789 460 789 q 281 764 336 789 q 185 695 226 739 q 120 592 144 651 q 96 464 96 532 m 269 671 l 406 671 q 508 644 471 671 q 544 554 544 617 q 523 485 544 511 q 465 447 501 458 l 553 274 l 501 265 l 415 438 l 318 438 l 318 267 l 268 267 l 269 671 m 318 486 l 410 486 q 467 501 440 486 q 494 554 494 515 q 468 604 494 590 q 407 618 442 618 l 318 618 l 318 486 z "},"˚":{"ha":217,"x_min":0,"x_max":218,"o":"m 118 990 q 194 959 169 990 q 218 883 218 928 q 190 802 218 838 q 97 767 163 767 q 26 795 53 767 q 0 864 0 824 q 7 904 0 882 q 28 946 14 926 q 64 978 42 965 q 118 990 86 990 m 167 879 q 166 901 167 889 q 160 922 165 913 q 147 938 156 932 q 121 944 138 944 q 70 919 85 944 q 56 867 56 893 q 67 829 56 843 q 103 815 78 815 q 151 833 135 815 q 167 879 167 850 z "},"s":{"ha":475,"x_min":-21,"x_max":557,"o":"m 557 249 q 463 163 510 197 q 374 101 417 128 q 334 50 357 71 q 285 16 311 29 q 233 -3 260 3 q 182 -8 206 -8 q 91 8 129 -8 q 28 49 53 24 q -9 106 3 74 q -21 169 -21 138 q 2 251 -21 218 q 53 299 25 285 q 151 505 111 403 q 224 710 192 607 l 369 738 q 383 521 376 604 q 394 385 389 438 q 401 299 399 332 q 404 232 404 267 q 403 208 404 219 q 401 185 403 196 q 453 217 428 200 q 499 249 478 233 l 557 249 m 258 231 q 256 285 258 260 q 250 347 254 310 q 240 442 246 385 q 229 589 235 499 q 183 440 210 511 q 118 294 156 369 q 132 276 126 288 q 138 249 138 265 q 119 197 138 215 q 81 179 100 179 q 47 199 58 179 q 69 123 47 150 q 138 96 92 96 q 224 126 190 96 q 258 231 258 157 z "},"ś":{"ha":475,"x_min":-21,"x_max":557,"o":"m 557 249 q 463 163 510 197 q 374 101 417 128 q 334 50 357 71 q 285 16 311 29 q 233 -3 260 3 q 182 -8 206 -8 q 91 8 129 -8 q 28 49 53 24 q -9 106 3 74 q -21 169 -21 138 q 2 251 -21 218 q 53 299 25 285 q 151 505 111 403 q 224 710 192 607 l 369 738 q 383 521 376 604 q 394 385 389 438 q 401 299 399 332 q 404 232 404 267 q 403 208 404 219 q 401 185 403 196 q 453 217 428 200 q 499 249 478 233 l 557 249 m 258 231 q 256 285 258 260 q 250 347 254 310 q 240 442 246 385 q 229 589 235 499 q 183 440 210 511 q 118 294 156 369 q 132 276 126 288 q 138 249 138 265 q 119 197 138 215 q 81 179 100 179 q 47 199 58 179 q 69 123 47 150 q 138 96 92 96 q 224 126 190 96 q 258 231 258 157 m 397 1042 l 515 1042 l 347 779 l 271 779 l 397 1042 z "},"š":{"ha":475,"x_min":-21,"x_max":613,"o":"m 557 249 q 463 163 510 197 q 374 101 417 128 q 334 50 357 71 q 285 16 311 29 q 233 -3 260 3 q 182 -8 206 -8 q 91 8 129 -8 q 28 49 53 24 q -9 106 3 74 q -21 169 -21 138 q 2 251 -21 218 q 53 299 25 285 q 151 505 111 403 q 224 710 192 607 l 369 738 q 383 521 376 604 q 394 385 389 438 q 401 299 399 332 q 404 232 404 267 q 403 208 404 219 q 401 185 403 196 q 453 217 428 200 q 499 249 478 233 l 557 249 m 258 231 q 256 285 258 260 q 250 347 254 310 q 240 442 246 385 q 229 589 235 499 q 183 440 210 511 q 118 294 156 369 q 132 276 126 288 q 138 249 138 265 q 119 197 138 215 q 81 179 100 179 q 47 199 58 179 q 69 123 47 150 q 138 96 92 96 q 224 126 190 96 q 258 231 258 157 m 250 1031 l 340 890 l 565 1031 l 613 1031 l 333 799 l 304 799 l 219 1031 l 250 1031 z "},"§":{"ha":722,"x_min":-14,"x_max":701,"o":"m 701 906 q 681 829 701 861 q 622 797 660 797 q 598 801 611 797 q 572 819 585 806 q 609 861 596 833 q 622 917 622 889 q 601 977 622 950 q 526 1004 579 1004 q 461 991 492 1004 q 408 955 431 978 q 372 903 385 932 q 358 842 358 874 q 382 767 358 799 q 440 707 406 735 q 517 653 475 679 q 593 594 558 626 q 651 519 628 561 q 675 418 675 476 q 665 343 675 381 q 633 274 654 306 q 583 221 613 243 q 514 190 553 199 l 514 182 q 493 76 514 124 q 433 -4 472 29 q 339 -56 394 -37 q 214 -75 283 -75 q 144 -69 183 -75 q 69 -45 104 -64 q 10 9 35 -26 q -14 106 -14 44 q -3 176 -14 144 q 25 230 7 207 q 67 265 43 253 q 117 278 90 278 q 172 258 151 278 q 211 214 193 239 q 129 185 156 210 q 103 107 103 160 q 140 8 103 39 q 225 -22 176 -22 q 278 -14 250 -22 q 328 14 306 -6 q 366 63 351 33 q 381 138 381 93 q 359 229 381 190 q 305 299 338 268 q 235 357 272 331 q 165 413 197 383 q 110 476 132 442 q 89 557 89 511 q 130 670 89 621 q 235 744 171 719 q 226 806 226 771 q 253 910 226 865 q 322 983 279 954 q 417 1027 364 1013 q 524 1042 469 1042 q 573 1038 543 1042 q 631 1021 603 1035 q 681 980 660 1007 q 701 906 701 953 m 574 347 q 556 419 574 388 q 508 478 538 451 q 443 530 479 506 q 372 580 407 554 q 304 634 336 606 q 253 700 272 663 q 211 672 228 689 q 194 628 194 656 q 215 571 194 597 q 267 519 235 544 q 336 465 299 493 q 408 404 374 438 q 470 331 443 371 q 508 238 497 290 q 555 278 536 250 q 574 347 574 306 z "},";":{"ha":346,"x_min":22,"x_max":282,"o":"m 31 200 q 59 269 31 246 q 122 293 88 293 q 187 269 158 293 q 215 200 215 246 q 201 147 215 181 q 163 76 188 114 q 106 2 139 39 q 35 -60 74 -35 q 22 -36 22 -51 q 31 -3 22 -19 q 49 31 39 14 q 69 63 60 47 q 78 94 78 79 q 70 122 78 114 q 54 138 63 131 q 38 159 46 146 q 31 200 31 172 m 97 536 q 124 601 97 574 q 189 629 150 629 q 254 601 226 629 q 282 536 282 574 q 254 471 282 497 q 189 444 226 444 q 124 471 150 444 q 97 536 97 497 z "},"/":{"ha":271,"x_min":-67,"x_max":297,"o":"m 3 -347 l -67 -347 l 228 1042 l 297 1042 l 3 -347 z "}," ":{"ha":299,"x_min":0,"x_max":0,"o":""},"£":{"ha":647,"x_min":31,"x_max":557,"o":"m 31 0 l 153 507 l 144 507 q 61 474 96 507 l 54 476 q 172 583 93 553 l 272 999 l 414 1029 l 308 594 q 351 585 332 590 q 390 573 371 579 q 428 563 408 567 q 469 558 447 558 q 514 565 493 558 q 549 586 535 572 l 556 586 q 531 542 550 564 q 485 501 513 519 q 423 472 457 483 q 354 461 389 461 q 278 472 315 461 l 182 81 q 269 95 229 94 q 351 98 308 96 q 442 113 393 100 q 557 164 490 125 q 517 44 549 89 q 440 0 486 0 l 31 0 z "},"t":{"ha":328,"x_min":10,"x_max":403,"o":"m 71 694 l 117 694 l 158 886 l 303 906 l 257 694 l 364 694 l 354 646 l 246 646 l 156 222 q 149 194 153 211 q 146 163 146 178 q 156 117 146 138 q 199 97 167 97 q 276 138 236 97 q 351 249 317 178 l 403 249 q 331 122 367 172 q 261 43 294 72 q 197 3 228 14 q 140 -8 165 -8 q 76 5 101 -8 q 37 40 51 18 q 16 90 22 61 q 10 147 10 118 q 14 201 10 174 q 22 249 18 228 l 107 646 l 61 646 l 71 694 z "},"þ":{"ha":657,"x_min":-104,"x_max":568,"o":"m 113 674 q 129 803 129 749 q 115 891 129 851 q 69 972 101 931 l 101 972 q 156 931 129 953 q 203 879 182 910 q 236 806 224 849 q 249 706 249 764 q 247 673 249 690 q 243 638 246 656 q 315 683 275 665 q 401 701 354 701 q 468 689 438 701 q 521 649 499 676 q 556 577 543 621 q 568 469 568 533 q 561 372 568 425 q 539 266 554 319 q 498 163 524 213 q 435 76 472 114 q 347 15 397 38 q 233 -8 297 -8 q 169 10 197 -8 q 122 58 142 28 l 44 -311 l -104 -347 l 113 674 m 335 611 q 277 594 304 611 q 226 546 250 576 l 138 128 q 174 92 153 103 q 211 81 194 81 q 315 123 274 81 q 383 226 357 165 q 419 352 408 286 q 431 467 431 418 q 422 536 431 508 q 400 581 414 564 q 369 604 386 597 q 335 611 353 611 z "},"¾":{"ha":1108,"x_min":64,"x_max":1057,"o":"m 383 0 l 300 0 l 836 1042 l 919 1042 l 383 0 m 208 618 q 155 584 171 610 q 139 533 139 558 q 161 481 139 504 q 224 457 183 457 q 273 471 250 457 q 313 506 296 485 q 339 555 329 528 q 349 608 349 582 q 329 680 349 646 q 251 733 310 714 q 311 759 286 742 q 352 797 336 776 q 375 840 368 818 q 382 881 382 863 q 363 926 382 907 q 300 946 343 946 q 240 927 260 946 q 219 881 219 908 q 226 850 219 867 q 250 829 232 833 q 196 804 222 804 q 159 822 174 804 q 144 867 144 839 q 191 949 144 917 q 311 981 238 981 q 422 951 389 981 q 454 876 454 921 q 431 799 454 839 q 350 732 407 758 q 423 681 403 717 q 443 604 443 644 q 431 539 443 572 q 392 478 418 506 q 325 433 365 450 q 231 415 285 415 q 184 419 213 415 q 129 435 156 422 q 83 472 103 447 q 64 536 64 496 q 94 620 64 589 q 157 651 124 651 q 187 644 174 651 q 208 618 200 638 m 1057 564 l 985 251 l 1036 251 l 1024 208 l 975 208 l 928 1 l 843 1 l 890 208 l 681 208 q 710 276 690 239 q 747 353 729 313 q 779 435 765 393 q 793 518 793 476 q 788 564 793 543 q 834 544 811 564 q 857 493 857 525 q 844 427 857 458 q 814 367 832 396 q 777 309 796 338 q 744 251 758 281 l 900 251 l 968 553 l 1057 564 z "},"³":{"ha":482,"x_min":93,"x_max":483,"o":"m 238 678 q 184 644 200 669 q 168 593 168 618 q 190 540 168 564 q 253 517 213 517 q 302 531 279 517 q 342 566 325 544 q 368 615 358 588 q 378 668 378 642 q 358 740 378 706 q 281 793 339 774 q 340 819 315 801 q 381 857 365 836 q 404 900 397 878 q 411 940 411 922 q 392 986 411 967 q 329 1006 372 1006 q 269 987 289 1006 q 249 940 249 968 q 255 910 249 926 q 279 889 261 893 q 225 864 251 864 q 188 881 203 864 q 174 926 174 899 q 220 1008 174 976 q 340 1040 267 1040 q 451 1010 418 1040 q 483 936 483 981 q 460 858 483 899 q 379 792 436 818 q 452 740 432 776 q 472 664 472 704 q 460 599 472 632 q 421 538 447 565 q 354 492 394 510 q 260 475 314 475 q 213 478 242 475 q 158 494 185 482 q 113 531 132 507 q 93 596 93 556 q 123 680 93 649 q 186 711 153 711 q 216 704 203 711 q 238 678 229 697 z "},"˜":{"ha":560,"x_min":61,"x_max":563,"o":"m 563 924 q 538 879 557 901 q 492 839 519 857 q 430 810 464 821 q 361 799 396 799 q 303 806 331 799 q 251 822 276 813 q 201 838 226 831 q 151 844 176 844 q 68 811 103 844 l 61 814 q 145 906 92 875 q 269 936 199 936 q 331 930 304 936 q 381 916 357 924 q 426 902 404 908 q 476 896 449 896 q 521 903 500 896 q 556 924 542 910 l 563 924 z "},"™":{"ha":671,"x_min":147,"x_max":676,"o":"m 386 601 l 497 904 l 539 908 l 528 665 l 629 908 l 676 908 l 633 601 l 585 601 l 615 818 l 525 601 l 481 601 l 490 815 l 411 601 l 386 601 m 390 864 q 358 867 375 864 q 324 874 342 871 l 267 601 l 221 601 l 281 881 q 264 882 275 882 q 199 865 222 882 q 176 800 176 849 q 179 777 176 785 q 185 765 182 769 q 158 774 168 765 q 147 808 147 783 q 155 847 147 828 q 180 881 163 867 q 224 905 197 896 q 290 914 251 914 q 345 909 324 914 q 393 904 367 904 q 422 907 410 904 q 443 913 435 910 q 390 864 443 864 z "},"²":{"ha":478,"x_min":90,"x_max":472,"o":"m 175 564 q 257 556 219 564 q 331 547 294 547 q 390 559 361 547 q 451 603 419 571 q 452 589 451 596 q 453 575 453 582 q 433 501 453 531 q 356 472 414 472 q 308 476 332 472 q 259 485 283 481 q 213 493 235 489 q 175 497 192 497 q 135 492 156 497 q 93 476 115 488 q 91 489 92 483 q 90 501 90 494 q 113 576 90 542 q 168 644 135 611 q 240 708 201 676 q 311 774 278 740 q 367 846 344 808 q 389 928 389 883 q 365 986 389 968 q 311 1004 340 1004 q 260 988 283 1004 q 236 940 236 972 q 242 908 236 926 q 260 882 247 890 q 232 865 246 869 q 206 860 218 860 q 174 878 186 860 q 161 931 161 896 q 172 969 161 950 q 201 1005 182 989 q 251 1031 221 1021 q 319 1040 281 1040 q 438 1008 403 1040 q 472 921 472 975 q 435 806 472 856 q 349 716 399 757 q 249 639 299 675 q 175 564 200 603 z "},"u":{"ha":631,"x_min":14,"x_max":706,"o":"m 588 694 l 486 222 q 479 160 479 194 q 488 117 479 136 q 522 97 496 97 q 590 138 556 97 q 654 249 624 178 l 706 249 q 639 110 672 161 q 574 33 606 60 q 515 -1 543 7 q 464 -8 486 -8 q 389 23 419 -8 q 353 125 358 54 q 263 23 313 54 q 167 -8 214 -8 q 107 5 135 -8 q 58 42 79 18 q 26 100 38 65 q 14 178 14 135 q 22 249 14 211 l 117 694 l 257 694 l 156 222 q 150 176 150 200 q 168 117 150 136 q 213 97 186 97 q 295 137 253 97 q 353 249 338 176 l 447 694 l 588 694 z "},"ú":{"ha":631,"x_min":14,"x_max":706,"o":"m 588 694 l 486 222 q 479 160 479 194 q 488 117 479 136 q 522 97 496 97 q 590 138 556 97 q 654 249 624 178 l 706 249 q 639 110 672 161 q 574 33 606 60 q 515 -1 543 7 q 464 -8 486 -8 q 389 23 419 -8 q 353 125 358 54 q 263 23 313 54 q 167 -8 214 -8 q 107 5 135 -8 q 58 42 79 18 q 26 100 38 65 q 14 178 14 135 q 22 249 14 211 l 117 694 l 257 694 l 156 222 q 150 176 150 200 q 168 117 150 136 q 213 97 186 97 q 295 137 253 97 q 353 249 338 176 l 447 694 l 588 694 m 442 1042 l 560 1042 l 392 779 l 315 779 l 442 1042 z "},"û":{"ha":631,"x_min":14,"x_max":706,"o":"m 588 694 l 486 222 q 479 160 479 194 q 488 117 479 136 q 522 97 496 97 q 590 138 556 97 q 654 249 624 178 l 706 249 q 639 110 672 161 q 574 33 606 60 q 515 -1 543 7 q 464 -8 486 -8 q 389 23 419 -8 q 353 125 358 54 q 263 23 313 54 q 167 -8 214 -8 q 107 5 135 -8 q 58 42 79 18 q 26 100 38 65 q 14 178 14 135 q 22 249 14 211 l 117 694 l 257 694 l 156 222 q 150 176 150 200 q 168 117 150 136 q 213 97 186 97 q 295 137 253 97 q 353 249 338 176 l 447 694 l 588 694 m 542 779 l 451 919 l 226 779 l 179 779 l 458 1011 l 488 1011 l 572 779 l 542 779 z "},"ü":{"ha":631,"x_min":14,"x_max":706,"o":"m 588 694 l 486 222 q 479 160 479 194 q 488 117 479 136 q 522 97 496 97 q 590 138 556 97 q 654 249 624 178 l 706 249 q 639 110 672 161 q 574 33 606 60 q 515 -1 543 7 q 464 -8 486 -8 q 389 23 419 -8 q 353 125 358 54 q 263 23 313 54 q 167 -8 214 -8 q 107 5 135 -8 q 58 42 79 18 q 26 100 38 65 q 14 178 14 135 q 22 249 14 211 l 117 694 l 257 694 l 156 222 q 150 176 150 200 q 168 117 150 136 q 213 97 186 97 q 295 137 253 97 q 353 249 338 176 l 447 694 l 588 694 m 426 892 q 447 944 426 922 q 499 965 468 965 q 551 944 529 965 q 572 892 572 922 q 551 840 572 861 q 499 819 529 819 q 447 840 468 819 q 426 892 426 861 m 199 892 q 219 944 199 922 q 271 965 240 965 q 323 944 301 965 q 344 892 344 922 q 323 840 344 861 q 271 819 301 819 q 219 840 240 819 q 199 892 199 861 z "},"ù":{"ha":631,"x_min":14,"x_max":706,"o":"m 588 694 l 486 222 q 479 160 479 194 q 488 117 479 136 q 522 97 496 97 q 590 138 556 97 q 654 249 624 178 l 706 249 q 639 110 672 161 q 574 33 606 60 q 515 -1 543 7 q 464 -8 486 -8 q 389 23 419 -8 q 353 125 358 54 q 263 23 313 54 q 167 -8 214 -8 q 107 5 135 -8 q 58 42 79 18 q 26 100 38 65 q 14 178 14 135 q 22 249 14 211 l 117 694 l 257 694 l 156 222 q 150 176 150 200 q 168 117 150 136 q 213 97 186 97 q 295 137 253 97 q 353 249 338 176 l 447 694 l 588 694 m 382 779 l 306 779 l 221 1042 l 339 1042 l 382 779 z "},"ű":{"ha":631,"x_min":14,"x_max":706,"o":"m 588 694 l 486 222 q 479 160 479 194 q 488 117 479 136 q 522 97 496 97 q 590 138 556 97 q 654 249 624 178 l 706 249 q 639 110 672 161 q 574 33 606 60 q 515 -1 543 7 q 464 -8 486 -8 q 389 23 419 -8 q 353 125 358 54 q 263 23 313 54 q 167 -8 214 -8 q 107 5 135 -8 q 58 42 79 18 q 26 100 38 65 q 14 178 14 135 q 22 249 14 211 l 117 694 l 257 694 l 156 222 q 150 176 150 200 q 168 117 150 136 q 213 97 186 97 q 295 137 253 97 q 353 249 338 176 l 447 694 l 588 694 m 531 1042 l 649 1042 l 481 779 l 404 779 l 531 1042 m 350 1042 l 468 1042 l 300 779 l 224 779 l 350 1042 z "},"_":{"ha":613,"x_min":-31,"x_max":478,"o":"m 457 0 l -31 0 l -8 97 l 478 97 l 457 0 z "},"­":{"ha":446,"x_min":57,"x_max":357,"o":"m 336 321 l 57 321 l 79 418 l 357 418 l 336 321 z "},"v":{"ha":554,"x_min":10,"x_max":528,"o":"m 528 601 q 516 474 528 543 q 483 338 504 406 q 430 208 461 271 q 360 97 399 146 q 276 20 321 49 q 181 -8 231 -8 q 56 32 101 -8 q 10 156 10 72 q 11 185 10 167 q 17 222 13 203 l 117 694 l 256 694 l 156 222 q 150 176 150 200 q 164 119 150 142 q 210 97 178 97 q 281 123 249 97 q 342 191 314 149 q 390 287 369 233 q 425 395 411 340 q 447 501 439 450 q 454 590 454 551 q 429 581 444 582 q 406 579 414 579 q 375 597 386 579 q 364 639 364 615 q 382 693 364 667 q 435 719 400 719 q 503 689 479 719 q 528 601 528 658 z "},"w":{"ha":865,"x_min":14,"x_max":842,"o":"m 257 694 l 156 222 q 150 176 150 200 q 168 117 150 136 q 213 97 186 97 q 295 137 253 97 q 353 249 338 176 l 447 694 l 586 694 l 486 222 q 481 176 481 200 q 494 119 481 142 q 540 97 508 97 q 612 124 579 97 q 670 193 644 150 q 715 290 696 236 q 748 398 735 343 q 767 503 761 453 q 774 590 774 554 q 749 581 764 582 q 725 579 733 579 q 694 597 706 579 q 683 639 683 615 q 701 693 683 667 q 754 719 719 719 q 820 689 799 719 q 842 601 842 658 q 831 472 842 540 q 799 335 819 403 q 748 205 778 267 q 682 96 718 143 q 602 20 646 49 q 511 -8 558 -8 q 399 21 443 -8 q 344 110 356 50 q 258 19 304 47 q 167 -8 211 -8 q 107 5 135 -8 q 58 42 79 18 q 26 100 38 65 q 14 178 14 135 q 22 249 14 211 l 117 694 l 257 694 z "},"x":{"ha":692,"x_min":21,"x_max":758,"o":"m 476 383 q 592 531 553 469 q 635 638 632 593 q 622 635 628 636 q 611 635 617 635 q 562 658 575 635 q 549 713 549 681 q 568 759 549 744 q 622 774 588 774 q 678 748 657 774 q 700 667 700 722 q 688 594 700 631 q 651 516 676 558 q 585 424 625 474 q 488 311 544 374 l 497 247 q 524 138 508 179 q 576 97 540 97 q 619 110 597 97 q 659 144 640 124 q 693 192 678 165 q 717 244 708 218 l 758 244 q 705 114 736 164 q 638 37 674 64 q 567 1 603 10 q 503 -8 532 -8 q 412 50 450 -8 q 354 240 374 108 l 157 0 l 63 0 l 343 310 l 321 472 q 299 570 310 543 q 268 597 288 597 q 179 508 228 597 q 72 246 131 419 l 21 246 q 82 403 53 322 q 147 551 111 485 q 229 659 182 617 q 346 701 276 701 q 391 686 372 701 q 422 647 410 671 q 442 593 435 622 q 454 536 450 564 l 476 383 z "},"y":{"ha":631,"x_min":14,"x_max":706,"o":"m 257 694 l 156 222 q 150 176 150 200 q 168 117 150 136 q 213 97 186 97 q 295 137 253 97 q 353 249 338 176 l 447 694 l 586 694 l 444 28 q 513 56 482 40 q 569 98 544 72 q 615 160 594 124 q 654 249 636 196 l 706 249 q 653 128 681 175 q 593 52 626 82 q 520 6 560 22 q 433 -22 481 -11 l 415 -111 q 381 -232 400 -186 q 340 -303 363 -278 q 289 -338 317 -329 q 226 -347 261 -347 q 118 -319 163 -347 q 74 -222 74 -290 q 94 -158 74 -187 q 146 -101 114 -128 q 217 -54 178 -75 q 296 -18 257 -33 l 314 69 q 241 10 279 29 q 167 -8 203 -8 q 107 5 135 -8 q 58 42 79 18 q 26 100 38 65 q 14 178 14 135 q 22 249 14 211 l 117 694 l 257 694 m 179 -275 q 239 -231 218 -275 q 275 -114 260 -186 l 285 -69 q 167 -143 207 -103 q 128 -221 128 -183 q 141 -260 128 -244 q 179 -275 154 -275 z "},"ý":{"ha":631,"x_min":14,"x_max":706,"o":"m 257 694 l 156 222 q 150 176 150 200 q 168 117 150 136 q 213 97 186 97 q 252 106 231 97 q 293 134 274 115 q 328 181 313 153 q 353 249 344 210 l 447 694 l 586 694 l 444 28 q 513 56 482 40 q 569 98 544 72 q 615 160 594 124 q 654 249 636 196 l 706 249 q 653 128 681 175 q 593 52 626 82 q 520 6 560 22 q 433 -22 481 -11 l 415 -111 q 381 -232 400 -186 q 340 -303 363 -278 q 289 -338 317 -329 q 226 -347 261 -347 q 118 -319 163 -347 q 74 -222 74 -290 q 94 -158 74 -187 q 146 -101 114 -128 q 217 -54 178 -75 q 296 -18 257 -33 l 314 69 q 241 10 279 29 q 167 -8 203 -8 q 107 5 135 -8 q 58 42 79 18 q 26 100 38 65 q 14 178 14 135 q 22 249 14 211 l 117 694 l 257 694 m 440 1042 l 558 1042 l 390 779 l 314 779 l 440 1042 m 179 -275 q 239 -231 218 -275 q 275 -114 260 -186 l 285 -69 q 167 -143 207 -103 q 128 -221 128 -183 q 141 -260 128 -244 q 179 -275 154 -275 z "},"ÿ":{"ha":631,"x_min":14,"x_max":706,"o":"m 257 694 l 156 222 q 150 176 150 200 q 168 117 150 136 q 213 97 186 97 q 295 137 253 97 q 353 249 338 176 l 447 694 l 586 694 l 444 28 q 513 56 482 40 q 569 98 544 72 q 615 160 594 124 q 654 249 636 196 l 706 249 q 653 128 681 175 q 593 52 626 82 q 520 6 560 22 q 433 -22 481 -11 l 415 -111 q 381 -232 400 -186 q 340 -303 363 -278 q 289 -338 317 -329 q 226 -347 261 -347 q 118 -319 163 -347 q 74 -222 74 -290 q 94 -158 74 -187 q 146 -101 114 -128 q 217 -54 178 -75 q 296 -18 257 -33 l 314 69 q 241 10 279 29 q 167 -8 203 -8 q 107 5 135 -8 q 58 42 79 18 q 26 100 38 65 q 14 178 14 135 q 22 249 14 211 l 117 694 l 257 694 m 179 -275 q 239 -231 218 -275 q 275 -114 260 -186 l 285 -69 q 167 -143 207 -103 q 128 -221 128 -183 q 141 -260 128 -244 q 179 -275 154 -275 m 203 892 q 224 944 203 922 q 275 965 244 965 q 327 944 306 965 q 349 892 349 922 q 327 840 349 861 q 275 819 306 819 q 224 840 244 819 q 203 892 203 861 m 431 892 q 451 944 431 922 q 503 965 472 965 q 555 944 533 965 q 576 892 576 922 q 555 840 576 861 q 503 819 533 819 q 451 840 472 819 q 431 892 431 861 z "},"¥":{"ha":725,"x_min":83,"x_max":728,"o":"m 272 267 l 296 378 l 118 378 l 132 426 l 307 426 l 151 1035 l 310 1035 l 440 499 l 664 1035 l 728 1035 l 458 426 l 669 426 l 656 378 l 447 378 l 424 267 l 635 267 l 621 218 l 413 218 l 367 0 l 215 0 l 261 218 l 83 218 l 97 267 l 272 267 z "},"z":{"ha":575,"x_min":24,"x_max":564,"o":"m 444 118 q 431 131 436 121 q 426 147 426 140 q 449 186 426 172 q 494 200 471 200 q 539 183 519 200 q 558 131 558 167 q 544 85 558 108 q 506 44 531 63 q 448 13 482 25 q 374 0 414 0 l 24 0 l 378 619 l 272 619 q 215 616 240 619 q 189 597 189 613 q 196 578 189 586 q 203 558 203 569 q 181 528 203 543 q 132 513 160 513 q 72 594 72 513 q 80 634 72 615 q 106 666 88 653 q 156 687 125 679 q 233 694 188 694 l 564 694 l 218 97 q 248 96 226 97 q 294 93 269 94 q 344 90 319 92 q 382 89 368 89 q 424 97 407 89 q 444 118 440 106 z "},"ź":{"ha":575,"x_min":24,"x_max":583,"o":"m 444 118 q 431 131 436 121 q 426 147 426 140 q 449 186 426 172 q 494 200 471 200 q 539 183 519 200 q 558 131 558 167 q 544 85 558 108 q 506 44 531 63 q 448 13 482 25 q 374 0 414 0 l 24 0 l 378 619 l 272 619 q 215 616 240 619 q 189 597 189 613 q 196 578 189 586 q 203 558 203 569 q 181 528 203 543 q 132 513 160 513 q 72 594 72 513 q 80 634 72 615 q 106 666 88 653 q 156 687 125 679 q 233 694 188 694 l 564 694 l 218 97 q 248 96 226 97 q 294 93 269 94 q 344 90 319 92 q 382 89 368 89 q 424 97 407 89 q 444 118 440 106 m 465 1042 l 583 1042 l 415 779 l 339 779 l 465 1042 z "},"ž":{"ha":575,"x_min":24,"x_max":711,"o":"m 444 118 q 431 131 436 121 q 426 147 426 140 q 449 186 426 172 q 494 200 471 200 q 539 183 519 200 q 558 131 558 167 q 544 85 558 108 q 506 44 531 63 q 448 13 482 25 q 374 0 414 0 l 24 0 l 378 619 l 272 619 q 215 616 240 619 q 189 597 189 613 q 196 578 189 586 q 203 558 203 569 q 181 528 203 543 q 132 513 160 513 q 72 594 72 513 q 80 634 72 615 q 106 666 88 653 q 156 687 125 679 q 233 694 188 694 l 564 694 l 218 97 q 248 96 226 97 q 294 93 269 94 q 344 90 319 92 q 382 89 368 89 q 424 97 407 89 q 444 118 440 106 m 349 1031 l 439 890 l 664 1031 l 711 1031 l 432 799 l 403 799 l 318 1031 l 349 1031 z "},"ż":{"ha":575,"x_min":24,"x_max":564,"o":"m 468 881 q 443 820 468 844 q 383 796 418 796 q 323 820 347 796 q 299 881 299 844 q 323 940 299 915 q 383 965 347 965 q 443 940 418 965 q 468 881 468 915 m 444 118 q 431 131 436 121 q 426 147 426 140 q 449 186 426 172 q 494 200 471 200 q 539 183 519 200 q 558 131 558 167 q 544 85 558 108 q 506 44 531 63 q 448 13 482 25 q 374 0 414 0 l 24 0 l 378 619 l 272 619 q 215 616 240 619 q 189 597 189 613 q 196 578 189 586 q 203 558 203 569 q 181 528 203 543 q 132 513 160 513 q 72 594 72 513 q 80 634 72 615 q 106 666 88 653 q 156 687 125 679 q 233 694 188 694 l 564 694 l 218 97 q 248 96 226 97 q 294 93 269 94 q 344 90 319 92 q 382 89 368 89 q 424 97 407 89 q 444 118 440 106 z "}}}
